<svg xmlns="http://www.w3.org/2000/svg" width="18" height="18" viewBox="0 0 18 18">
  <path id="Icon_awesome-exclamation-circle" data-name="Icon awesome-exclamation-circle" d="M18.562,9.563a9,9,0,1,1-9-9A9,9,0,0,1,18.562,9.563Zm-9,1.815a1.669,1.669,0,1,0,1.669,1.669A1.669,1.669,0,0,0,9.563,11.377Zm-1.585-6,.269,4.935a.435.435,0,0,0,.435.412h1.762a.435.435,0,0,0,.435-.412l.269-4.935a.435.435,0,0,0-.435-.459h-2.3A.435.435,0,0,0,7.978,5.377Z" transform="translate(-0.563 -0.563)" fill="#fd6868"/>
</svg>
