<svg xmlns="http://www.w3.org/2000/svg" width="183.296" height="235" viewBox="0 0 183.296 235">
  <g id="Group_482" data-name="Group 482" transform="translate(-76.609 -46.723)">
    <circle id="Ellipse_40" data-name="Ellipse 40" cx="2.797" cy="2.797" r="2.797" transform="translate(76.61 46.723)" fill="#00b3bc"/>
    <path id="Path_471" data-name="Path 471" d="M95.056,49.518a2.8,2.8,0,1,1-2.8-2.8A2.8,2.8,0,0,1,95.056,49.518Z" transform="translate(16.765 0.001)" fill="#00b3bc"/>
    <path id="Path_472" data-name="Path 472" d="M107.906,49.518a2.8,2.8,0,1,1-2.8-2.8A2.8,2.8,0,0,1,107.906,49.518Z" transform="translate(33.53 0.001)" fill="#00b3bc"/>
    <circle id="Ellipse_41" data-name="Ellipse 41" cx="2.797" cy="2.797" r="2.797" transform="translate(165.461 46.723)" fill="#00b3bc"/>
    <circle id="Ellipse_42" data-name="Ellipse 42" cx="2.797" cy="2.797" r="2.797" transform="translate(195.078 46.723)" fill="#00b3bc"/>
    <path id="Path_473" data-name="Path 473" d="M146.462,49.518a2.8,2.8,0,1,1-2.8-2.8A2.8,2.8,0,0,1,146.462,49.518Z" transform="translate(83.826 0.001)" fill="#00b3bc"/>
    <circle id="Ellipse_43" data-name="Ellipse 43" cx="2.797" cy="2.797" r="2.797" transform="translate(254.312 46.723)" fill="#00b3bc"/>
    <path id="Path_474" data-name="Path 474" d="M82.2,63.739a2.8,2.8,0,1,1-2.8-2.8A2.8,2.8,0,0,1,82.2,63.739Z" transform="translate(0 18.552)" fill="#00b3bc"/>
    <path id="Path_475" data-name="Path 475" d="M95.056,63.739a2.8,2.8,0,1,1-2.8-2.8A2.8,2.8,0,0,1,95.056,63.739Z" transform="translate(16.765 18.552)" fill="#00b3bc"/>
    <path id="Path_476" data-name="Path 476" d="M107.906,63.739a2.8,2.8,0,1,1-2.8-2.8A2.8,2.8,0,0,1,107.906,63.739Z" transform="translate(33.53 18.552)" fill="#00b3bc"/>
    <path id="Path_477" data-name="Path 477" d="M120.758,63.739a2.8,2.8,0,1,1-2.8-2.8A2.8,2.8,0,0,1,120.758,63.739Z" transform="translate(50.295 18.552)" fill="#00b3bc"/>
    <path id="Path_478" data-name="Path 478" d="M133.61,63.739a2.8,2.8,0,1,1-2.8-2.8A2.8,2.8,0,0,1,133.61,63.739Z" transform="translate(67.061 18.552)" fill="#fff"/>
    <path id="Path_479" data-name="Path 479" d="M146.462,63.739a2.8,2.8,0,1,1-2.8-2.8A2.8,2.8,0,0,1,146.462,63.739Z" transform="translate(83.826 18.552)" fill="#00b3bc"/>
    <path id="Path_480" data-name="Path 480" d="M159.314,63.739a2.8,2.8,0,1,1-2.8-2.8A2.8,2.8,0,0,1,159.314,63.739Z" transform="translate(100.591 18.552)" fill="#00b3bc"/>
    <circle id="Ellipse_44" data-name="Ellipse 44" cx="2.797" cy="2.797" r="2.797" transform="translate(76.61 112.267)" fill="#00b3bc"/>
    <path id="Path_481" data-name="Path 481" d="M95.056,77.96a2.8,2.8,0,1,1-2.8-2.8A2.8,2.8,0,0,1,95.056,77.96Z" transform="translate(16.765 37.103)" fill="#00b3bc"/>
    <path id="Path_482" data-name="Path 482" d="M107.906,77.96a2.8,2.8,0,1,1-2.8-2.8A2.8,2.8,0,0,1,107.906,77.96Z" transform="translate(33.53 37.103)" fill="#00b3bc"/>
    <circle id="Ellipse_45" data-name="Ellipse 45" cx="2.797" cy="2.797" r="2.797" transform="translate(165.461 112.267)" fill="#00b3bc"/>
    <circle id="Ellipse_46" data-name="Ellipse 46" cx="2.797" cy="2.797" r="2.797" transform="translate(195.078 112.267)" fill="#00b3bc"/>
    <path id="Path_483" data-name="Path 483" d="M146.462,77.96a2.8,2.8,0,1,1-2.8-2.8A2.8,2.8,0,0,1,146.462,77.96Z" transform="translate(83.826 37.103)" fill="#00b3bc"/>
    <circle id="Ellipse_47" data-name="Ellipse 47" cx="2.797" cy="2.797" r="2.797" transform="translate(254.312 112.267)" fill="#00b3bc"/>
    <path id="Path_484" data-name="Path 484" d="M82.2,92.184a2.8,2.8,0,1,1-2.8-2.8A2.8,2.8,0,0,1,82.2,92.184Z" transform="translate(0 55.653)" fill="#00b3bc"/>
    <path id="Path_485" data-name="Path 485" d="M95.056,92.184a2.8,2.8,0,1,1-2.8-2.8A2.8,2.8,0,0,1,95.056,92.184Z" transform="translate(16.765 55.653)" fill="#00b3bc"/>
    <path id="Path_486" data-name="Path 486" d="M107.906,92.184a2.8,2.8,0,1,1-2.8-2.8A2.8,2.8,0,0,1,107.906,92.184Z" transform="translate(33.53 55.653)" fill="#fff"/>
    <path id="Path_487" data-name="Path 487" d="M120.758,92.184a2.8,2.8,0,1,1-2.8-2.8A2.8,2.8,0,0,1,120.758,92.184Z" transform="translate(50.295 55.653)" fill="#00b3bc"/>
    <path id="Path_488" data-name="Path 488" d="M133.61,92.184a2.8,2.8,0,1,1-2.8-2.8A2.8,2.8,0,0,1,133.61,92.184Z" transform="translate(67.061 55.653)" fill="#00b3bc"/>
    <path id="Path_489" data-name="Path 489" d="M146.462,92.184a2.8,2.8,0,1,1-2.8-2.8A2.8,2.8,0,0,1,146.462,92.184Z" transform="translate(83.826 55.653)" fill="#00b3bc"/>
    <path id="Path_490" data-name="Path 490" d="M159.314,92.184a2.8,2.8,0,1,1-2.8-2.8A2.8,2.8,0,0,1,159.314,92.184Z" transform="translate(100.591 55.653)" fill="#00b3bc"/>
    <circle id="Ellipse_48" data-name="Ellipse 48" cx="2.797" cy="2.797" r="2.797" transform="translate(76.61 177.812)" fill="#00b3bc"/>
    <path id="Path_491" data-name="Path 491" d="M95.056,106.4a2.8,2.8,0,1,1-2.8-2.8A2.8,2.8,0,0,1,95.056,106.4Z" transform="translate(16.765 74.204)" fill="#00b3bc"/>
    <path id="Path_492" data-name="Path 492" d="M107.906,106.4a2.8,2.8,0,1,1-2.8-2.8A2.8,2.8,0,0,1,107.906,106.4Z" transform="translate(33.53 74.204)" fill="#00b3bc"/>
    <circle id="Ellipse_49" data-name="Ellipse 49" cx="2.797" cy="2.797" r="2.797" transform="translate(165.461 177.812)" fill="#00b3bc"/>
    <circle id="Ellipse_50" data-name="Ellipse 50" cx="2.797" cy="2.797" r="2.797" transform="translate(195.078 177.812)" fill="#00b3bc"/>
    <path id="Path_493" data-name="Path 493" d="M146.462,106.4a2.8,2.8,0,1,1-2.8-2.8A2.8,2.8,0,0,1,146.462,106.4Z" transform="translate(83.826 74.204)" fill="#00b3bc"/>
    <circle id="Ellipse_51" data-name="Ellipse 51" cx="2.797" cy="2.797" r="2.797" transform="translate(254.312 177.812)" fill="#00b3bc"/>
    <circle id="Ellipse_52" data-name="Ellipse 52" cx="2.797" cy="2.797" r="2.797" transform="translate(76.61 210.584)" fill="#00b3bc"/>
    <path id="Path_494" data-name="Path 494" d="M95.056,120.626a2.8,2.8,0,1,1-2.8-2.8A2.8,2.8,0,0,1,95.056,120.626Z" transform="translate(16.765 92.755)" fill="#00b3bc"/>
    <path id="Path_495" data-name="Path 495" d="M107.906,120.626a2.8,2.8,0,1,1-2.8-2.8A2.8,2.8,0,0,1,107.906,120.626Z" transform="translate(33.53 92.755)" fill="#00b3bc"/>
    <circle id="Ellipse_53" data-name="Ellipse 53" cx="2.797" cy="2.797" r="2.797" transform="translate(165.461 210.584)" fill="#00b3bc"/>
    <circle id="Ellipse_54" data-name="Ellipse 54" cx="2.797" cy="2.797" r="2.797" transform="translate(195.078 210.584)" fill="#00b3bc"/>
    <path id="Path_496" data-name="Path 496" d="M146.462,120.626a2.8,2.8,0,1,1-2.8-2.8A2.8,2.8,0,0,1,146.462,120.626Z" transform="translate(83.826 92.755)" fill="#fff"/>
    <circle id="Ellipse_55" data-name="Ellipse 55" cx="2.797" cy="2.797" r="2.797" transform="translate(254.312 210.584)" fill="#00b3bc"/>
    <path id="Path_497" data-name="Path 497" d="M82.2,134.847a2.8,2.8,0,1,1-2.8-2.8A2.8,2.8,0,0,1,82.2,134.847Z" transform="translate(0 111.306)" fill="#00b3bc"/>
    <path id="Path_498" data-name="Path 498" d="M95.056,134.847a2.8,2.8,0,1,1-2.8-2.8A2.8,2.8,0,0,1,95.056,134.847Z" transform="translate(16.765 111.306)" fill="#00b3bc"/>
    <path id="Path_499" data-name="Path 499" d="M107.906,134.847a2.8,2.8,0,1,1-2.8-2.8A2.8,2.8,0,0,1,107.906,134.847Z" transform="translate(33.53 111.306)" fill="#00b3bc"/>
    <path id="Path_500" data-name="Path 500" d="M120.758,134.847a2.8,2.8,0,1,1-2.8-2.8A2.8,2.8,0,0,1,120.758,134.847Z" transform="translate(50.295 111.306)" fill="#00b3bc"/>
    <path id="Path_501" data-name="Path 501" d="M133.61,134.847a2.8,2.8,0,1,1-2.8-2.8A2.8,2.8,0,0,1,133.61,134.847Z" transform="translate(67.061 111.306)" fill="#00b3bc"/>
    <path id="Path_502" data-name="Path 502" d="M146.462,134.847a2.8,2.8,0,1,1-2.8-2.8A2.8,2.8,0,0,1,146.462,134.847Z" transform="translate(83.826 111.306)" fill="#00b3bc"/>
    <path id="Path_503" data-name="Path 503" d="M159.314,134.847a2.8,2.8,0,1,1-2.8-2.8A2.8,2.8,0,0,1,159.314,134.847Z" transform="translate(100.591 111.306)" fill="#00b3bc"/>
    <circle id="Ellipse_56" data-name="Ellipse 56" cx="2.797" cy="2.797" r="2.797" transform="translate(76.61 276.129)" fill="#00b3bc"/>
    <path id="Path_504" data-name="Path 504" d="M95.056,149.066a2.8,2.8,0,1,1-2.8-2.8A2.8,2.8,0,0,1,95.056,149.066Z" transform="translate(16.765 129.859)" fill="#00b3bc"/>
    <path id="Path_505" data-name="Path 505" d="M107.906,149.066a2.8,2.8,0,1,1-2.8-2.8A2.8,2.8,0,0,1,107.906,149.066Z" transform="translate(33.53 129.859)" fill="#fff"/>
    <circle id="Ellipse_57" data-name="Ellipse 57" cx="2.797" cy="2.797" r="2.797" transform="translate(165.461 276.129)" fill="#00b3bc"/>
    <circle id="Ellipse_58" data-name="Ellipse 58" cx="2.797" cy="2.797" r="2.797" transform="translate(195.078 276.129)" fill="#00b3bc"/>
    <path id="Path_506" data-name="Path 506" d="M146.462,149.066a2.8,2.8,0,1,1-2.8-2.8A2.8,2.8,0,0,1,146.462,149.066Z" transform="translate(83.826 129.859)" fill="#00b3bc"/>
    <circle id="Ellipse_59" data-name="Ellipse 59" cx="2.797" cy="2.797" r="2.797" transform="translate(254.312 276.129)" fill="#00b3bc"/>
  </g>
</svg>
