<svg xmlns="http://www.w3.org/2000/svg" xmlns:xlink="http://www.w3.org/1999/xlink" width="211.652" height="329.995" viewBox="0 0 211.652 329.995">
  <defs>
    <clipPath id="clip-path">
      <path id="Path_566" data-name="Path 566" d="M146.864,45.546,313,257.2H-17Z" transform="translate(509.833 -79.5) rotate(90)" fill="#018892"/>
    </clipPath>
  </defs>
  <g id="Group_494" data-name="Group 494" transform="translate(318.875 341.537)">
    <g id="arrow" transform="translate(-571.51 -245.042)" clip-path="url(#clip-path)">
      <g id="Group_490" data-name="Group 490">
        <circle id="Ellipse_413" data-name="Ellipse 413" cx="2" cy="2" r="2" transform="translate(238 -74)" fill="#018892"/>
        <circle id="Ellipse_414" data-name="Ellipse 414" cx="2" cy="2" r="2" transform="translate(256 -74)" fill="#018892"/>
        <circle id="Ellipse_415" data-name="Ellipse 415" cx="2" cy="2" r="2" transform="translate(274 -74)" fill="#018892"/>
        <circle id="Ellipse_416" data-name="Ellipse 416" cx="2" cy="2" r="2" transform="translate(292 -74)" fill="#018892"/>
        <circle id="Ellipse_417" data-name="Ellipse 417" cx="2" cy="2" r="2" transform="translate(310 -74)" fill="#018892"/>
        <circle id="Ellipse_418" data-name="Ellipse 418" cx="2" cy="2" r="2" transform="translate(328 -74)" fill="#018892"/>
        <circle id="Ellipse_419" data-name="Ellipse 419" cx="2" cy="2" r="2" transform="translate(346 -74)" fill="#018892"/>
        <circle id="Ellipse_420" data-name="Ellipse 420" cx="2" cy="2" r="2" transform="translate(364 -74)" fill="#018892"/>
        <circle id="Ellipse_421" data-name="Ellipse 421" cx="2" cy="2" r="2" transform="translate(382 -74)" fill="#018892"/>
        <circle id="Ellipse_422" data-name="Ellipse 422" cx="2" cy="2" r="2" transform="translate(400 -74)" fill="#018892"/>
        <circle id="Ellipse_423" data-name="Ellipse 423" cx="2" cy="2" r="2" transform="translate(418 -74)" fill="#018892"/>
        <circle id="Ellipse_424" data-name="Ellipse 424" cx="2" cy="2" r="2" transform="translate(436 -74)" fill="#018892"/>
        <circle id="Ellipse_425" data-name="Ellipse 425" cx="2" cy="2" r="2" transform="translate(454 -74)" fill="#018892"/>
        <circle id="Ellipse_426" data-name="Ellipse 426" cx="2" cy="2" r="2" transform="translate(472 -74)" fill="#018892"/>
        <circle id="Ellipse_427" data-name="Ellipse 427" cx="2" cy="2" r="2" transform="translate(490 -74)" fill="#018892"/>
        <circle id="Ellipse_428" data-name="Ellipse 428" cx="2" cy="2" r="2" transform="translate(508 -74)" fill="#018892"/>
        <circle id="Ellipse_429" data-name="Ellipse 429" cx="2" cy="2" r="2" transform="translate(238 -60)" fill="#018892"/>
        <circle id="Ellipse_430" data-name="Ellipse 430" cx="2" cy="2" r="2" transform="translate(256 -60)" fill="#018892"/>
        <circle id="Ellipse_431" data-name="Ellipse 431" cx="2" cy="2" r="2" transform="translate(274 -60)" fill="#018892"/>
        <circle id="Ellipse_432" data-name="Ellipse 432" cx="2" cy="2" r="2" transform="translate(292 -60)" fill="#018892"/>
        <circle id="Ellipse_433" data-name="Ellipse 433" cx="2" cy="2" r="2" transform="translate(310 -60)" fill="#018892"/>
        <circle id="Ellipse_434" data-name="Ellipse 434" cx="2" cy="2" r="2" transform="translate(328 -60)" fill="#018892"/>
        <circle id="Ellipse_435" data-name="Ellipse 435" cx="2" cy="2" r="2" transform="translate(346 -60)" fill="#018892"/>
        <circle id="Ellipse_436" data-name="Ellipse 436" cx="2" cy="2" r="2" transform="translate(364 -60)" fill="#018892"/>
        <circle id="Ellipse_437" data-name="Ellipse 437" cx="2" cy="2" r="2" transform="translate(382 -60)" fill="#018892"/>
        <circle id="Ellipse_438" data-name="Ellipse 438" cx="2" cy="2" r="2" transform="translate(400 -60)" fill="#018892"/>
        <circle id="Ellipse_439" data-name="Ellipse 439" cx="2" cy="2" r="2" transform="translate(418 -60)" fill="#018892"/>
        <circle id="Ellipse_440" data-name="Ellipse 440" cx="2" cy="2" r="2" transform="translate(436 -60)" fill="#018892"/>
        <circle id="Ellipse_441" data-name="Ellipse 441" cx="2" cy="2" r="2" transform="translate(454 -60)" fill="#018892"/>
        <circle id="Ellipse_442" data-name="Ellipse 442" cx="2" cy="2" r="2" transform="translate(472 -60)" fill="#018892"/>
        <circle id="Ellipse_443" data-name="Ellipse 443" cx="2" cy="2" r="2" transform="translate(490 -60)" fill="#018892"/>
        <circle id="Ellipse_444" data-name="Ellipse 444" cx="2" cy="2" r="2" transform="translate(508 -60)" fill="#018892"/>
        <circle id="Ellipse_445" data-name="Ellipse 445" cx="2" cy="2" r="2" transform="translate(238 -46)" fill="#018892"/>
        <circle id="Ellipse_446" data-name="Ellipse 446" cx="2" cy="2" r="2" transform="translate(256 -46)" fill="#018892"/>
        <circle id="Ellipse_447" data-name="Ellipse 447" cx="2" cy="2" r="2" transform="translate(274 -46)" fill="#018892"/>
        <circle id="Ellipse_448" data-name="Ellipse 448" cx="2" cy="2" r="2" transform="translate(292 -46)" fill="#018892"/>
        <circle id="Ellipse_449" data-name="Ellipse 449" cx="2" cy="2" r="2" transform="translate(310 -46)" fill="#018892"/>
        <circle id="Ellipse_450" data-name="Ellipse 450" cx="2" cy="2" r="2" transform="translate(328 -46)" fill="#018892"/>
        <circle id="Ellipse_451" data-name="Ellipse 451" cx="2" cy="2" r="2" transform="translate(346 -46)" fill="#018892"/>
        <circle id="Ellipse_452" data-name="Ellipse 452" cx="2" cy="2" r="2" transform="translate(364 -46)" fill="#018892"/>
        <circle id="Ellipse_453" data-name="Ellipse 453" cx="2" cy="2" r="2" transform="translate(382 -46)" fill="#018892"/>
        <circle id="Ellipse_454" data-name="Ellipse 454" cx="2" cy="2" r="2" transform="translate(400 -46)" fill="#018892"/>
        <circle id="Ellipse_455" data-name="Ellipse 455" cx="2" cy="2" r="2" transform="translate(418 -46)" fill="#018892"/>
        <circle id="Ellipse_456" data-name="Ellipse 456" cx="2" cy="2" r="2" transform="translate(436 -46)" fill="#018892"/>
        <circle id="Ellipse_457" data-name="Ellipse 457" cx="2" cy="2" r="2" transform="translate(454 -46)" fill="#018892"/>
        <circle id="Ellipse_458" data-name="Ellipse 458" cx="2" cy="2" r="2" transform="translate(472 -46)" fill="#018892"/>
        <circle id="Ellipse_459" data-name="Ellipse 459" cx="2" cy="2" r="2" transform="translate(490 -46)" fill="#018892"/>
        <circle id="Ellipse_460" data-name="Ellipse 460" cx="2" cy="2" r="2" transform="translate(508 -46)" fill="#018892"/>
        <circle id="Ellipse_461" data-name="Ellipse 461" cx="2" cy="2" r="2" transform="translate(238 -32)" fill="#018892"/>
        <circle id="Ellipse_462" data-name="Ellipse 462" cx="2" cy="2" r="2" transform="translate(256 -32)" fill="rgba(255,255,255,0.94)"/>
        <circle id="Ellipse_463" data-name="Ellipse 463" cx="2" cy="2" r="2" transform="translate(274 -32)" fill="#018892"/>
        <circle id="Ellipse_464" data-name="Ellipse 464" cx="2" cy="2" r="2" transform="translate(292 -32)" fill="#018892"/>
        <circle id="Ellipse_465" data-name="Ellipse 465" cx="2" cy="2" r="2" transform="translate(310 -32)" fill="#018892"/>
        <circle id="Ellipse_466" data-name="Ellipse 466" cx="2" cy="2" r="2" transform="translate(328 -32)" fill="#018892"/>
        <circle id="Ellipse_467" data-name="Ellipse 467" cx="2" cy="2" r="2" transform="translate(346 -32)" fill="#018892"/>
        <circle id="Ellipse_468" data-name="Ellipse 468" cx="2" cy="2" r="2" transform="translate(364 -32)" fill="#018892"/>
        <circle id="Ellipse_469" data-name="Ellipse 469" cx="2" cy="2" r="2" transform="translate(382 -32)" fill="#018892"/>
        <circle id="Ellipse_470" data-name="Ellipse 470" cx="2" cy="2" r="2" transform="translate(400 -32)" fill="#018892"/>
        <circle id="Ellipse_471" data-name="Ellipse 471" cx="2" cy="2" r="2" transform="translate(418 -32)" fill="#018892"/>
        <circle id="Ellipse_472" data-name="Ellipse 472" cx="2" cy="2" r="2" transform="translate(436 -32)" fill="#018892"/>
        <circle id="Ellipse_473" data-name="Ellipse 473" cx="2" cy="2" r="2" transform="translate(454 -32)" fill="#018892"/>
        <circle id="Ellipse_474" data-name="Ellipse 474" cx="2" cy="2" r="2" transform="translate(472 -32)" fill="#018892"/>
        <circle id="Ellipse_475" data-name="Ellipse 475" cx="2" cy="2" r="2" transform="translate(490 -32)" fill="#018892"/>
        <circle id="Ellipse_476" data-name="Ellipse 476" cx="2" cy="2" r="2" transform="translate(508 -32)" fill="#018892"/>
        <circle id="Ellipse_477" data-name="Ellipse 477" cx="2" cy="2" r="2" transform="translate(238 -18)" fill="#018892"/>
        <circle id="Ellipse_478" data-name="Ellipse 478" cx="2" cy="2" r="2" transform="translate(256 -18)" fill="#018892"/>
        <circle id="Ellipse_479" data-name="Ellipse 479" cx="2" cy="2" r="2" transform="translate(274 -18)" fill="#018892"/>
        <circle id="Ellipse_480" data-name="Ellipse 480" cx="2" cy="2" r="2" transform="translate(292 -18)" fill="#018892"/>
        <circle id="Ellipse_481" data-name="Ellipse 481" cx="2" cy="2" r="2" transform="translate(310 -18)" fill="#018892"/>
        <circle id="Ellipse_482" data-name="Ellipse 482" cx="2" cy="2" r="2" transform="translate(328 -18)" fill="#018892"/>
        <circle id="Ellipse_483" data-name="Ellipse 483" cx="2" cy="2" r="2" transform="translate(346 -18)" fill="#018892"/>
        <circle id="Ellipse_484" data-name="Ellipse 484" cx="2" cy="2" r="2" transform="translate(364 -18)" fill="#018892"/>
        <circle id="Ellipse_485" data-name="Ellipse 485" cx="2" cy="2" r="2" transform="translate(382 -18)" fill="#018892"/>
        <circle id="Ellipse_486" data-name="Ellipse 486" cx="2" cy="2" r="2" transform="translate(400 -18)" fill="#018892"/>
        <circle id="Ellipse_487" data-name="Ellipse 487" cx="2" cy="2" r="2" transform="translate(418 -18)" fill="#018892"/>
        <circle id="Ellipse_488" data-name="Ellipse 488" cx="2" cy="2" r="2" transform="translate(436 -18)" fill="#018892"/>
        <circle id="Ellipse_489" data-name="Ellipse 489" cx="2" cy="2" r="2" transform="translate(454 -18)" fill="#018892"/>
        <circle id="Ellipse_490" data-name="Ellipse 490" cx="2" cy="2" r="2" transform="translate(472 -18)" fill="#018892"/>
        <circle id="Ellipse_491" data-name="Ellipse 491" cx="2" cy="2" r="2" transform="translate(490 -18)" fill="#018892"/>
        <circle id="Ellipse_492" data-name="Ellipse 492" cx="2" cy="2" r="2" transform="translate(508 -18)" fill="#018892"/>
        <circle id="Ellipse_493" data-name="Ellipse 493" cx="2" cy="2" r="2" transform="translate(238 -4)" fill="#018892"/>
        <circle id="Ellipse_494" data-name="Ellipse 494" cx="2" cy="2" r="2" transform="translate(256 -4)" fill="#018892"/>
        <circle id="Ellipse_495" data-name="Ellipse 495" cx="2" cy="2" r="2" transform="translate(274 -4)" fill="#018892"/>
        <circle id="Ellipse_496" data-name="Ellipse 496" cx="2" cy="2" r="2" transform="translate(292 -4)" fill="#018892"/>
        <circle id="Ellipse_497" data-name="Ellipse 497" cx="2" cy="2" r="2" transform="translate(310 -4)" fill="#018892"/>
        <circle id="Ellipse_498" data-name="Ellipse 498" cx="2" cy="2" r="2" transform="translate(328 -4)" fill="#018892"/>
        <circle id="Ellipse_499" data-name="Ellipse 499" cx="2" cy="2" r="2" transform="translate(346 -4)" fill="#018892"/>
        <circle id="Ellipse_500" data-name="Ellipse 500" cx="2" cy="2" r="2" transform="translate(364 -4)" fill="#018892"/>
        <circle id="Ellipse_501" data-name="Ellipse 501" cx="2" cy="2" r="2" transform="translate(382 -4)" fill="#018892"/>
        <circle id="Ellipse_502" data-name="Ellipse 502" cx="2" cy="2" r="2" transform="translate(400 -4)" fill="#018892"/>
        <circle id="Ellipse_503" data-name="Ellipse 503" cx="2" cy="2" r="2" transform="translate(418 -4)" fill="#018892"/>
        <circle id="Ellipse_504" data-name="Ellipse 504" cx="2" cy="2" r="2" transform="translate(436 -4)" fill="#018892"/>
        <circle id="Ellipse_505" data-name="Ellipse 505" cx="2" cy="2" r="2" transform="translate(454 -4)" fill="#018892"/>
        <circle id="Ellipse_506" data-name="Ellipse 506" cx="2" cy="2" r="2" transform="translate(472 -4)" fill="#018892"/>
        <circle id="Ellipse_507" data-name="Ellipse 507" cx="2" cy="2" r="2" transform="translate(490 -4)" fill="#018892"/>
        <circle id="Ellipse_508" data-name="Ellipse 508" cx="2" cy="2" r="2" transform="translate(508 -4)" fill="#018892"/>
        <circle id="Ellipse_509" data-name="Ellipse 509" cx="2" cy="2" r="2" transform="translate(238 10)" fill="#018892"/>
        <circle id="Ellipse_510" data-name="Ellipse 510" cx="2" cy="2" r="2" transform="translate(256 10)" fill="#018892"/>
        <circle id="Ellipse_511" data-name="Ellipse 511" cx="2" cy="2" r="2" transform="translate(274 10)" fill="#018892"/>
        <circle id="Ellipse_512" data-name="Ellipse 512" cx="2" cy="2" r="2" transform="translate(292 10)" fill="#018892"/>
        <circle id="Ellipse_513" data-name="Ellipse 513" cx="2" cy="2" r="2" transform="translate(310 10)" fill="#018892"/>
        <circle id="Ellipse_514" data-name="Ellipse 514" cx="2" cy="2" r="2" transform="translate(328 10)" fill="#018892"/>
        <circle id="Ellipse_515" data-name="Ellipse 515" cx="2" cy="2" r="2" transform="translate(346 10)" fill="#018892"/>
        <circle id="Ellipse_516" data-name="Ellipse 516" cx="2" cy="2" r="2" transform="translate(364 10)" fill="#018892"/>
        <circle id="Ellipse_517" data-name="Ellipse 517" cx="2" cy="2" r="2" transform="translate(382 10)" fill="#018892"/>
        <circle id="Ellipse_518" data-name="Ellipse 518" cx="2" cy="2" r="2" transform="translate(400 10)" fill="#018892"/>
        <circle id="Ellipse_519" data-name="Ellipse 519" cx="2" cy="2" r="2" transform="translate(418 10)" fill="#018892"/>
        <circle id="Ellipse_520" data-name="Ellipse 520" cx="2" cy="2" r="2" transform="translate(436 10)" fill="#018892"/>
        <circle id="Ellipse_521" data-name="Ellipse 521" cx="2" cy="2" r="2" transform="translate(454 10)" fill="#018892"/>
        <circle id="Ellipse_522" data-name="Ellipse 522" cx="2" cy="2" r="2" transform="translate(472 10)" fill="#018892"/>
        <circle id="Ellipse_523" data-name="Ellipse 523" cx="2" cy="2" r="2" transform="translate(490 10)" fill="#018892"/>
        <circle id="Ellipse_524" data-name="Ellipse 524" cx="2" cy="2" r="2" transform="translate(508 10)" fill="#018892"/>
        <circle id="Ellipse_525" data-name="Ellipse 525" cx="2" cy="2" r="2" transform="translate(238 24)" fill="#018892"/>
        <circle id="Ellipse_526" data-name="Ellipse 526" cx="2" cy="2" r="2" transform="translate(256 24)" fill="#018892"/>
        <circle id="Ellipse_527" data-name="Ellipse 527" cx="2" cy="2" r="2" transform="translate(274 24)" fill="#018892"/>
        <circle id="Ellipse_528" data-name="Ellipse 528" cx="2" cy="2" r="2" transform="translate(292 24)" fill="rgba(255,255,255,0.94)"/>
        <circle id="Ellipse_529" data-name="Ellipse 529" cx="2" cy="2" r="2" transform="translate(310 24)" fill="#018892"/>
        <circle id="Ellipse_530" data-name="Ellipse 530" cx="2" cy="2" r="2" transform="translate(328 24)" fill="#018892"/>
        <circle id="Ellipse_531" data-name="Ellipse 531" cx="2" cy="2" r="2" transform="translate(346 24)" fill="#018892"/>
        <circle id="Ellipse_532" data-name="Ellipse 532" cx="2" cy="2" r="2" transform="translate(364 24)" fill="#018892"/>
        <circle id="Ellipse_533" data-name="Ellipse 533" cx="2" cy="2" r="2" transform="translate(382 24)" fill="#018892"/>
        <circle id="Ellipse_534" data-name="Ellipse 534" cx="2" cy="2" r="2" transform="translate(400 24)" fill="#018892"/>
        <circle id="Ellipse_535" data-name="Ellipse 535" cx="2" cy="2" r="2" transform="translate(418 24)" fill="#018892"/>
        <circle id="Ellipse_536" data-name="Ellipse 536" cx="2" cy="2" r="2" transform="translate(436 24)" fill="#018892"/>
        <circle id="Ellipse_537" data-name="Ellipse 537" cx="2" cy="2" r="2" transform="translate(454 24)" fill="#018892"/>
        <circle id="Ellipse_538" data-name="Ellipse 538" cx="2" cy="2" r="2" transform="translate(472 24)" fill="#018892"/>
        <circle id="Ellipse_539" data-name="Ellipse 539" cx="2" cy="2" r="2" transform="translate(490 24)" fill="#018892"/>
        <circle id="Ellipse_540" data-name="Ellipse 540" cx="2" cy="2" r="2" transform="translate(508 24)" fill="#018892"/>
        <circle id="Ellipse_541" data-name="Ellipse 541" cx="2" cy="2" r="2" transform="translate(238 38)" fill="#018892"/>
        <circle id="Ellipse_542" data-name="Ellipse 542" cx="2" cy="2" r="2" transform="translate(256 38)" fill="#018892"/>
        <circle id="Ellipse_543" data-name="Ellipse 543" cx="2" cy="2" r="2" transform="translate(274 38)" fill="#018892"/>
        <circle id="Ellipse_544" data-name="Ellipse 544" cx="2" cy="2" r="2" transform="translate(292 38)" fill="#018892"/>
        <circle id="Ellipse_545" data-name="Ellipse 545" cx="2" cy="2" r="2" transform="translate(310 38)" fill="#018892"/>
        <circle id="Ellipse_546" data-name="Ellipse 546" cx="2" cy="2" r="2" transform="translate(328 38)" fill="#018892"/>
        <circle id="Ellipse_547" data-name="Ellipse 547" cx="2" cy="2" r="2" transform="translate(346 38)" fill="#018892"/>
        <circle id="Ellipse_548" data-name="Ellipse 548" cx="2" cy="2" r="2" transform="translate(364 38)" fill="#018892"/>
        <circle id="Ellipse_549" data-name="Ellipse 549" cx="2" cy="2" r="2" transform="translate(382 38)" fill="#018892"/>
        <circle id="Ellipse_550" data-name="Ellipse 550" cx="2" cy="2" r="2" transform="translate(400 38)" fill="#018892"/>
        <circle id="Ellipse_551" data-name="Ellipse 551" cx="2" cy="2" r="2" transform="translate(418 38)" fill="#018892"/>
        <circle id="Ellipse_552" data-name="Ellipse 552" cx="2" cy="2" r="2" transform="translate(436 38)" fill="#018892"/>
        <circle id="Ellipse_553" data-name="Ellipse 553" cx="2" cy="2" r="2" transform="translate(454 38)" fill="#018892"/>
        <circle id="Ellipse_554" data-name="Ellipse 554" cx="2" cy="2" r="2" transform="translate(472 38)" fill="#018892"/>
        <circle id="Ellipse_555" data-name="Ellipse 555" cx="2" cy="2" r="2" transform="translate(490 38)" fill="#018892"/>
        <circle id="Ellipse_556" data-name="Ellipse 556" cx="2" cy="2" r="2" transform="translate(508 38)" fill="#018892"/>
        <circle id="Ellipse_557" data-name="Ellipse 557" cx="2" cy="2" r="2" transform="translate(238 52)" fill="#018892"/>
        <circle id="Ellipse_558" data-name="Ellipse 558" cx="2" cy="2" r="2" transform="translate(256 52)" fill="#018892"/>
        <circle id="Ellipse_559" data-name="Ellipse 559" cx="2" cy="2" r="2" transform="translate(274 52)" fill="#018892"/>
        <circle id="Ellipse_560" data-name="Ellipse 560" cx="2" cy="2" r="2" transform="translate(292 52)" fill="#018892"/>
        <circle id="Ellipse_561" data-name="Ellipse 561" cx="2" cy="2" r="2" transform="translate(310 52)" fill="#018892"/>
        <circle id="Ellipse_562" data-name="Ellipse 562" cx="2" cy="2" r="2" transform="translate(328 52)" fill="#018892"/>
        <circle id="Ellipse_563" data-name="Ellipse 563" cx="2" cy="2" r="2" transform="translate(346 52)" fill="#018892"/>
        <circle id="Ellipse_564" data-name="Ellipse 564" cx="2" cy="2" r="2" transform="translate(364 52)" fill="#018892"/>
        <circle id="Ellipse_565" data-name="Ellipse 565" cx="2" cy="2" r="2" transform="translate(382 52)" fill="#018892"/>
        <circle id="Ellipse_566" data-name="Ellipse 566" cx="2" cy="2" r="2" transform="translate(400 52)" fill="#018892"/>
        <circle id="Ellipse_567" data-name="Ellipse 567" cx="2" cy="2" r="2" transform="translate(418 52)" fill="#018892"/>
        <circle id="Ellipse_568" data-name="Ellipse 568" cx="2" cy="2" r="2" transform="translate(436 52)" fill="#018892"/>
        <circle id="Ellipse_569" data-name="Ellipse 569" cx="2" cy="2" r="2" transform="translate(454 52)" fill="#018892"/>
        <circle id="Ellipse_570" data-name="Ellipse 570" cx="2" cy="2" r="2" transform="translate(472 52)" fill="#018892"/>
        <circle id="Ellipse_571" data-name="Ellipse 571" cx="2" cy="2" r="2" transform="translate(490 52)" fill="#018892"/>
        <circle id="Ellipse_572" data-name="Ellipse 572" cx="2" cy="2" r="2" transform="translate(508 52)" fill="#018892"/>
        <circle id="Ellipse_573" data-name="Ellipse 573" cx="2" cy="2" r="2" transform="translate(238 66)" fill="#018892"/>
        <circle id="Ellipse_574" data-name="Ellipse 574" cx="2" cy="2" r="2" transform="translate(256 66)" fill="#018892"/>
        <circle id="Ellipse_575" data-name="Ellipse 575" cx="2" cy="2" r="2" transform="translate(274 66)" fill="#018892"/>
        <circle id="Ellipse_576" data-name="Ellipse 576" cx="2" cy="2" r="2" transform="translate(292 66)" fill="#018892"/>
        <circle id="Ellipse_577" data-name="Ellipse 577" cx="2" cy="2" r="2" transform="translate(310 66)" fill="#018892"/>
        <circle id="Ellipse_578" data-name="Ellipse 578" cx="2" cy="2" r="2" transform="translate(328 66)" fill="#018892"/>
        <circle id="Ellipse_579" data-name="Ellipse 579" cx="2" cy="2" r="2" transform="translate(346 66)" fill="#018892"/>
        <circle id="Ellipse_580" data-name="Ellipse 580" cx="2" cy="2" r="2" transform="translate(364 66)" fill="#018892"/>
        <circle id="Ellipse_581" data-name="Ellipse 581" cx="2" cy="2" r="2" transform="translate(382 66)" fill="rgba(255,255,255,0.94)"/>
        <circle id="Ellipse_582" data-name="Ellipse 582" cx="2" cy="2" r="2" transform="translate(400 66)" fill="#018892"/>
        <circle id="Ellipse_583" data-name="Ellipse 583" cx="2" cy="2" r="2" transform="translate(418 66)" fill="#018892"/>
        <circle id="Ellipse_584" data-name="Ellipse 584" cx="2" cy="2" r="2" transform="translate(436 66)" fill="#018892"/>
        <circle id="Ellipse_585" data-name="Ellipse 585" cx="2" cy="2" r="2" transform="translate(454 66)" fill="#018892"/>
        <circle id="Ellipse_586" data-name="Ellipse 586" cx="2" cy="2" r="2" transform="translate(472 66)" fill="#018892"/>
        <circle id="Ellipse_587" data-name="Ellipse 587" cx="2" cy="2" r="2" transform="translate(490 66)" fill="#018892"/>
        <circle id="Ellipse_588" data-name="Ellipse 588" cx="2" cy="2" r="2" transform="translate(508 66)" fill="#018892"/>
        <circle id="Ellipse_589" data-name="Ellipse 589" cx="2" cy="2" r="2" transform="translate(238 80)" fill="#018892"/>
        <circle id="Ellipse_590" data-name="Ellipse 590" cx="2" cy="2" r="2" transform="translate(256 80)" fill="#018892"/>
        <circle id="Ellipse_591" data-name="Ellipse 591" cx="2" cy="2" r="2" transform="translate(274 80)" fill="#018892"/>
        <circle id="Ellipse_592" data-name="Ellipse 592" cx="2" cy="2" r="2" transform="translate(292 80)" fill="#018892"/>
        <circle id="Ellipse_593" data-name="Ellipse 593" cx="2" cy="2" r="2" transform="translate(310 80)" fill="#018892"/>
        <circle id="Ellipse_594" data-name="Ellipse 594" cx="2" cy="2" r="2" transform="translate(328 80)" fill="#018892"/>
        <circle id="Ellipse_595" data-name="Ellipse 595" cx="2" cy="2" r="2" transform="translate(346 80)" fill="#018892"/>
        <circle id="Ellipse_596" data-name="Ellipse 596" cx="2" cy="2" r="2" transform="translate(364 80)" fill="#018892"/>
        <circle id="Ellipse_597" data-name="Ellipse 597" cx="2" cy="2" r="2" transform="translate(382 80)" fill="#018892"/>
        <circle id="Ellipse_598" data-name="Ellipse 598" cx="2" cy="2" r="2" transform="translate(400 80)" fill="#018892"/>
        <circle id="Ellipse_599" data-name="Ellipse 599" cx="2" cy="2" r="2" transform="translate(418 80)" fill="#018892"/>
        <circle id="Ellipse_600" data-name="Ellipse 600" cx="2" cy="2" r="2" transform="translate(436 80)" fill="#018892"/>
        <circle id="Ellipse_601" data-name="Ellipse 601" cx="2" cy="2" r="2" transform="translate(454 80)" fill="#018892"/>
        <circle id="Ellipse_602" data-name="Ellipse 602" cx="2" cy="2" r="2" transform="translate(472 80)" fill="#018892"/>
        <circle id="Ellipse_603" data-name="Ellipse 603" cx="2" cy="2" r="2" transform="translate(490 80)" fill="#018892"/>
        <circle id="Ellipse_604" data-name="Ellipse 604" cx="2" cy="2" r="2" transform="translate(508 80)" fill="#018892"/>
        <circle id="Ellipse_605" data-name="Ellipse 605" cx="2" cy="2" r="2" transform="translate(238 94)" fill="#018892"/>
        <circle id="Ellipse_606" data-name="Ellipse 606" cx="2" cy="2" r="2" transform="translate(256 94)" fill="#018892"/>
        <circle id="Ellipse_607" data-name="Ellipse 607" cx="2" cy="2" r="2" transform="translate(274 94)" fill="#018892"/>
        <circle id="Ellipse_608" data-name="Ellipse 608" cx="2" cy="2" r="2" transform="translate(292 94)" fill="#018892"/>
        <circle id="Ellipse_609" data-name="Ellipse 609" cx="2" cy="2" r="2" transform="translate(310 94)" fill="#018892"/>
        <circle id="Ellipse_610" data-name="Ellipse 610" cx="2" cy="2" r="2" transform="translate(328 94)" fill="#018892"/>
        <circle id="Ellipse_611" data-name="Ellipse 611" cx="2" cy="2" r="2" transform="translate(346 94)" fill="#018892"/>
        <circle id="Ellipse_612" data-name="Ellipse 612" cx="2" cy="2" r="2" transform="translate(364 94)" fill="#018892"/>
        <circle id="Ellipse_613" data-name="Ellipse 613" cx="2" cy="2" r="2" transform="translate(382 94)" fill="#018892"/>
        <circle id="Ellipse_614" data-name="Ellipse 614" cx="2" cy="2" r="2" transform="translate(400 94)" fill="#018892"/>
        <circle id="Ellipse_615" data-name="Ellipse 615" cx="2" cy="2" r="2" transform="translate(418 94)" fill="#018892"/>
        <circle id="Ellipse_616" data-name="Ellipse 616" cx="2" cy="2" r="2" transform="translate(436 94)" fill="#018892"/>
        <circle id="Ellipse_617" data-name="Ellipse 617" cx="2" cy="2" r="2" transform="translate(454 94)" fill="#018892"/>
        <circle id="Ellipse_618" data-name="Ellipse 618" cx="2" cy="2" r="2" transform="translate(472 94)" fill="#018892"/>
        <circle id="Ellipse_619" data-name="Ellipse 619" cx="2" cy="2" r="2" transform="translate(490 94)" fill="#018892"/>
        <circle id="Ellipse_620" data-name="Ellipse 620" cx="2" cy="2" r="2" transform="translate(508 94)" fill="#018892"/>
        <circle id="Ellipse_621" data-name="Ellipse 621" cx="2" cy="2" r="2" transform="translate(238 108)" fill="#018892"/>
        <circle id="Ellipse_622" data-name="Ellipse 622" cx="2" cy="2" r="2" transform="translate(256 108)" fill="#018892"/>
        <circle id="Ellipse_623" data-name="Ellipse 623" cx="2" cy="2" r="2" transform="translate(274 108)" fill="#018892"/>
        <circle id="Ellipse_624" data-name="Ellipse 624" cx="2" cy="2" r="2" transform="translate(292 108)" fill="#018892"/>
        <circle id="Ellipse_625" data-name="Ellipse 625" cx="2" cy="2" r="2" transform="translate(310 108)" fill="#018892"/>
        <circle id="Ellipse_626" data-name="Ellipse 626" cx="2" cy="2" r="2" transform="translate(328 108)" fill="#018892"/>
        <circle id="Ellipse_627" data-name="Ellipse 627" cx="2" cy="2" r="2" transform="translate(346 108)" fill="#018892"/>
        <circle id="Ellipse_628" data-name="Ellipse 628" cx="2" cy="2" r="2" transform="translate(364 108)" fill="#018892"/>
        <circle id="Ellipse_629" data-name="Ellipse 629" cx="2" cy="2" r="2" transform="translate(382 108)" fill="#018892"/>
        <circle id="Ellipse_630" data-name="Ellipse 630" cx="2" cy="2" r="2" transform="translate(400 108)" fill="#018892"/>
        <circle id="Ellipse_631" data-name="Ellipse 631" cx="2" cy="2" r="2" transform="translate(418 108)" fill="#018892"/>
        <circle id="Ellipse_632" data-name="Ellipse 632" cx="2" cy="2" r="2" transform="translate(436 108)" fill="#018892"/>
        <circle id="Ellipse_633" data-name="Ellipse 633" cx="2" cy="2" r="2" transform="translate(454 108)" fill="#018892"/>
        <circle id="Ellipse_634" data-name="Ellipse 634" cx="2" cy="2" r="2" transform="translate(472 108)" fill="#018892"/>
        <circle id="Ellipse_635" data-name="Ellipse 635" cx="2" cy="2" r="2" transform="translate(490 108)" fill="#018892"/>
        <circle id="Ellipse_636" data-name="Ellipse 636" cx="2" cy="2" r="2" transform="translate(508 108)" fill="#018892"/>
        <circle id="Ellipse_637" data-name="Ellipse 637" cx="2" cy="2" r="2" transform="translate(238 122)" fill="#018892"/>
        <circle id="Ellipse_638" data-name="Ellipse 638" cx="2" cy="2" r="2" transform="translate(256 122)" fill="#018892"/>
        <circle id="Ellipse_639" data-name="Ellipse 639" cx="2" cy="2" r="2" transform="translate(274 122)" fill="#018892"/>
        <circle id="Ellipse_640" data-name="Ellipse 640" cx="2" cy="2" r="2" transform="translate(292 122)" fill="#018892"/>
        <circle id="Ellipse_641" data-name="Ellipse 641" cx="2" cy="2" r="2" transform="translate(310 122)" fill="#018892"/>
        <circle id="Ellipse_642" data-name="Ellipse 642" cx="2" cy="2" r="2" transform="translate(328 122)" fill="#018892"/>
        <circle id="Ellipse_643" data-name="Ellipse 643" cx="2" cy="2" r="2" transform="translate(346 122)" fill="#018892"/>
        <circle id="Ellipse_644" data-name="Ellipse 644" cx="2" cy="2" r="2" transform="translate(364 122)" fill="#018892"/>
        <circle id="Ellipse_645" data-name="Ellipse 645" cx="2" cy="2" r="2" transform="translate(382 122)" fill="#018892"/>
        <circle id="Ellipse_646" data-name="Ellipse 646" cx="2" cy="2" r="2" transform="translate(400 122)" fill="#018892"/>
        <circle id="Ellipse_647" data-name="Ellipse 647" cx="2" cy="2" r="2" transform="translate(418 122)" fill="#018892"/>
        <circle id="Ellipse_648" data-name="Ellipse 648" cx="2" cy="2" r="2" transform="translate(436 122)" fill="#018892"/>
        <circle id="Ellipse_649" data-name="Ellipse 649" cx="2" cy="2" r="2" transform="translate(454 122)" fill="#018892"/>
        <circle id="Ellipse_650" data-name="Ellipse 650" cx="2" cy="2" r="2" transform="translate(472 122)" fill="#018892"/>
        <circle id="Ellipse_651" data-name="Ellipse 651" cx="2" cy="2" r="2" transform="translate(490 122)" fill="#018892"/>
        <circle id="Ellipse_652" data-name="Ellipse 652" cx="2" cy="2" r="2" transform="translate(508 122)" fill="#018892"/>
        <circle id="Ellipse_653" data-name="Ellipse 653" cx="2" cy="2" r="2" transform="translate(238 136)" fill="#018892"/>
        <circle id="Ellipse_654" data-name="Ellipse 654" cx="2" cy="2" r="2" transform="translate(256 136)" fill="#018892"/>
        <circle id="Ellipse_655" data-name="Ellipse 655" cx="2" cy="2" r="2" transform="translate(274 136)" fill="#018892"/>
        <circle id="Ellipse_656" data-name="Ellipse 656" cx="2" cy="2" r="2" transform="translate(292 136)" fill="#018892"/>
        <circle id="Ellipse_657" data-name="Ellipse 657" cx="2" cy="2" r="2" transform="translate(310 136)" fill="#018892"/>
        <circle id="Ellipse_658" data-name="Ellipse 658" cx="2" cy="2" r="2" transform="translate(328 136)" fill="#018892"/>
        <circle id="Ellipse_659" data-name="Ellipse 659" cx="2" cy="2" r="2" transform="translate(346 136)" fill="#018892"/>
        <circle id="Ellipse_660" data-name="Ellipse 660" cx="2" cy="2" r="2" transform="translate(364 136)" fill="#018892"/>
        <circle id="Ellipse_661" data-name="Ellipse 661" cx="2" cy="2" r="2" transform="translate(382 136)" fill="#018892"/>
        <circle id="Ellipse_662" data-name="Ellipse 662" cx="2" cy="2" r="2" transform="translate(400 136)" fill="#018892"/>
        <circle id="Ellipse_663" data-name="Ellipse 663" cx="2" cy="2" r="2" transform="translate(418 136)" fill="#018892"/>
        <circle id="Ellipse_664" data-name="Ellipse 664" cx="2" cy="2" r="2" transform="translate(436 136)" fill="#018892"/>
        <circle id="Ellipse_665" data-name="Ellipse 665" cx="2" cy="2" r="2" transform="translate(454 136)" fill="#018892"/>
        <circle id="Ellipse_666" data-name="Ellipse 666" cx="2" cy="2" r="2" transform="translate(472 136)" fill="#018892"/>
        <circle id="Ellipse_667" data-name="Ellipse 667" cx="2" cy="2" r="2" transform="translate(490 136)" fill="#018892"/>
        <circle id="Ellipse_668" data-name="Ellipse 668" cx="2" cy="2" r="2" transform="translate(508 136)" fill="#018892"/>
        <circle id="Ellipse_669" data-name="Ellipse 669" cx="2" cy="2" r="2" transform="translate(238 150)" fill="#018892"/>
        <circle id="Ellipse_670" data-name="Ellipse 670" cx="2" cy="2" r="2" transform="translate(256 150)" fill="#018892"/>
        <circle id="Ellipse_671" data-name="Ellipse 671" cx="2" cy="2" r="2" transform="translate(274 150)" fill="rgba(255,255,255,0.94)"/>
        <circle id="Ellipse_672" data-name="Ellipse 672" cx="2" cy="2" r="2" transform="translate(292 150)" fill="#018892"/>
        <circle id="Ellipse_673" data-name="Ellipse 673" cx="2" cy="2" r="2" transform="translate(310 150)" fill="#018892"/>
        <circle id="Ellipse_674" data-name="Ellipse 674" cx="2" cy="2" r="2" transform="translate(328 150)" fill="#018892"/>
        <circle id="Ellipse_675" data-name="Ellipse 675" cx="2" cy="2" r="2" transform="translate(346 150)" fill="#018892"/>
        <circle id="Ellipse_676" data-name="Ellipse 676" cx="2" cy="2" r="2" transform="translate(364 150)" fill="#018892"/>
        <circle id="Ellipse_677" data-name="Ellipse 677" cx="2" cy="2" r="2" transform="translate(382 150)" fill="#018892"/>
        <circle id="Ellipse_678" data-name="Ellipse 678" cx="2" cy="2" r="2" transform="translate(400 150)" fill="#018892"/>
        <circle id="Ellipse_679" data-name="Ellipse 679" cx="2" cy="2" r="2" transform="translate(418 150)" fill="#018892"/>
        <circle id="Ellipse_680" data-name="Ellipse 680" cx="2" cy="2" r="2" transform="translate(436 150)" fill="#018892"/>
        <circle id="Ellipse_681" data-name="Ellipse 681" cx="2" cy="2" r="2" transform="translate(454 150)" fill="#018892"/>
        <circle id="Ellipse_682" data-name="Ellipse 682" cx="2" cy="2" r="2" transform="translate(472 150)" fill="#018892"/>
        <circle id="Ellipse_683" data-name="Ellipse 683" cx="2" cy="2" r="2" transform="translate(490 150)" fill="#018892"/>
        <circle id="Ellipse_684" data-name="Ellipse 684" cx="2" cy="2" r="2" transform="translate(508 150)" fill="#018892"/>
        <circle id="Ellipse_685" data-name="Ellipse 685" cx="2" cy="2" r="2" transform="translate(238 164)" fill="#018892"/>
        <circle id="Ellipse_686" data-name="Ellipse 686" cx="2" cy="2" r="2" transform="translate(256 164)" fill="#018892"/>
        <circle id="Ellipse_687" data-name="Ellipse 687" cx="2" cy="2" r="2" transform="translate(274 164)" fill="#018892"/>
        <circle id="Ellipse_688" data-name="Ellipse 688" cx="2" cy="2" r="2" transform="translate(292 164)" fill="#018892"/>
        <circle id="Ellipse_689" data-name="Ellipse 689" cx="2" cy="2" r="2" transform="translate(310 164)" fill="#018892"/>
        <circle id="Ellipse_690" data-name="Ellipse 690" cx="2" cy="2" r="2" transform="translate(328 164)" fill="#018892"/>
        <circle id="Ellipse_691" data-name="Ellipse 691" cx="2" cy="2" r="2" transform="translate(346 164)" fill="#018892"/>
        <circle id="Ellipse_692" data-name="Ellipse 692" cx="2" cy="2" r="2" transform="translate(364 164)" fill="#018892"/>
        <circle id="Ellipse_693" data-name="Ellipse 693" cx="2" cy="2" r="2" transform="translate(382 164)" fill="#018892"/>
        <circle id="Ellipse_694" data-name="Ellipse 694" cx="2" cy="2" r="2" transform="translate(400 164)" fill="#018892"/>
        <circle id="Ellipse_695" data-name="Ellipse 695" cx="2" cy="2" r="2" transform="translate(418 164)" fill="#018892"/>
        <circle id="Ellipse_696" data-name="Ellipse 696" cx="2" cy="2" r="2" transform="translate(436 164)" fill="#018892"/>
        <circle id="Ellipse_697" data-name="Ellipse 697" cx="2" cy="2" r="2" transform="translate(454 164)" fill="#018892"/>
        <circle id="Ellipse_698" data-name="Ellipse 698" cx="2" cy="2" r="2" transform="translate(472 164)" fill="#018892"/>
        <circle id="Ellipse_699" data-name="Ellipse 699" cx="2" cy="2" r="2" transform="translate(490 164)" fill="#018892"/>
        <circle id="Ellipse_700" data-name="Ellipse 700" cx="2" cy="2" r="2" transform="translate(508 164)" fill="#018892"/>
        <circle id="Ellipse_701" data-name="Ellipse 701" cx="2" cy="2" r="2" transform="translate(238 178)" fill="#018892"/>
        <circle id="Ellipse_702" data-name="Ellipse 702" cx="2" cy="2" r="2" transform="translate(256 178)" fill="#018892"/>
        <circle id="Ellipse_703" data-name="Ellipse 703" cx="2" cy="2" r="2" transform="translate(274 178)" fill="#018892"/>
        <circle id="Ellipse_704" data-name="Ellipse 704" cx="2" cy="2" r="2" transform="translate(292 178)" fill="#018892"/>
        <circle id="Ellipse_705" data-name="Ellipse 705" cx="2" cy="2" r="2" transform="translate(310 178)" fill="rgba(255,255,255,0.94)"/>
        <circle id="Ellipse_706" data-name="Ellipse 706" cx="2" cy="2" r="2" transform="translate(328 178)" fill="#018892"/>
        <circle id="Ellipse_707" data-name="Ellipse 707" cx="2" cy="2" r="2" transform="translate(346 178)" fill="#018892"/>
        <circle id="Ellipse_708" data-name="Ellipse 708" cx="2" cy="2" r="2" transform="translate(364 178)" fill="#018892"/>
        <circle id="Ellipse_709" data-name="Ellipse 709" cx="2" cy="2" r="2" transform="translate(382 178)" fill="#018892"/>
        <circle id="Ellipse_710" data-name="Ellipse 710" cx="2" cy="2" r="2" transform="translate(400 178)" fill="#018892"/>
        <circle id="Ellipse_711" data-name="Ellipse 711" cx="2" cy="2" r="2" transform="translate(418 178)" fill="#018892"/>
        <circle id="Ellipse_712" data-name="Ellipse 712" cx="2" cy="2" r="2" transform="translate(436 178)" fill="#018892"/>
        <circle id="Ellipse_713" data-name="Ellipse 713" cx="2" cy="2" r="2" transform="translate(454 178)" fill="#018892"/>
        <circle id="Ellipse_714" data-name="Ellipse 714" cx="2" cy="2" r="2" transform="translate(472 178)" fill="#018892"/>
        <circle id="Ellipse_715" data-name="Ellipse 715" cx="2" cy="2" r="2" transform="translate(490 178)" fill="#018892"/>
        <circle id="Ellipse_716" data-name="Ellipse 716" cx="2" cy="2" r="2" transform="translate(508 178)" fill="#018892"/>
        <circle id="Ellipse_717" data-name="Ellipse 717" cx="2" cy="2" r="2" transform="translate(238 192)" fill="#018892"/>
        <circle id="Ellipse_718" data-name="Ellipse 718" cx="2" cy="2" r="2" transform="translate(256 192)" fill="#018892"/>
        <circle id="Ellipse_719" data-name="Ellipse 719" cx="2" cy="2" r="2" transform="translate(274 192)" fill="#018892"/>
        <circle id="Ellipse_720" data-name="Ellipse 720" cx="2" cy="2" r="2" transform="translate(292 192)" fill="#018892"/>
        <circle id="Ellipse_721" data-name="Ellipse 721" cx="2" cy="2" r="2" transform="translate(310 192)" fill="#018892"/>
        <circle id="Ellipse_722" data-name="Ellipse 722" cx="2" cy="2" r="2" transform="translate(328 192)" fill="#018892"/>
        <circle id="Ellipse_723" data-name="Ellipse 723" cx="2" cy="2" r="2" transform="translate(346 192)" fill="#018892"/>
        <circle id="Ellipse_724" data-name="Ellipse 724" cx="2" cy="2" r="2" transform="translate(364 192)" fill="#018892"/>
        <circle id="Ellipse_725" data-name="Ellipse 725" cx="2" cy="2" r="2" transform="translate(382 192)" fill="#018892"/>
        <circle id="Ellipse_726" data-name="Ellipse 726" cx="2" cy="2" r="2" transform="translate(400 192)" fill="#018892"/>
        <circle id="Ellipse_727" data-name="Ellipse 727" cx="2" cy="2" r="2" transform="translate(418 192)" fill="#018892"/>
        <circle id="Ellipse_728" data-name="Ellipse 728" cx="2" cy="2" r="2" transform="translate(436 192)" fill="#018892"/>
        <circle id="Ellipse_729" data-name="Ellipse 729" cx="2" cy="2" r="2" transform="translate(454 192)" fill="#018892"/>
        <circle id="Ellipse_730" data-name="Ellipse 730" cx="2" cy="2" r="2" transform="translate(472 192)" fill="#018892"/>
        <circle id="Ellipse_731" data-name="Ellipse 731" cx="2" cy="2" r="2" transform="translate(490 192)" fill="#018892"/>
        <circle id="Ellipse_732" data-name="Ellipse 732" cx="2" cy="2" r="2" transform="translate(508 192)" fill="#018892"/>
        <circle id="Ellipse_733" data-name="Ellipse 733" cx="2" cy="2" r="2" transform="translate(238 206)" fill="#018892"/>
        <circle id="Ellipse_734" data-name="Ellipse 734" cx="2" cy="2" r="2" transform="translate(256 206)" fill="#018892"/>
        <circle id="Ellipse_735" data-name="Ellipse 735" cx="2" cy="2" r="2" transform="translate(274 206)" fill="#018892"/>
        <circle id="Ellipse_736" data-name="Ellipse 736" cx="2" cy="2" r="2" transform="translate(292 206)" fill="#018892"/>
        <circle id="Ellipse_737" data-name="Ellipse 737" cx="2" cy="2" r="2" transform="translate(310 206)" fill="#018892"/>
        <circle id="Ellipse_738" data-name="Ellipse 738" cx="2" cy="2" r="2" transform="translate(328 206)" fill="#018892"/>
        <circle id="Ellipse_739" data-name="Ellipse 739" cx="2" cy="2" r="2" transform="translate(346 206)" fill="#018892"/>
        <circle id="Ellipse_740" data-name="Ellipse 740" cx="2" cy="2" r="2" transform="translate(364 206)" fill="#018892"/>
        <circle id="Ellipse_741" data-name="Ellipse 741" cx="2" cy="2" r="2" transform="translate(382 206)" fill="#018892"/>
        <circle id="Ellipse_742" data-name="Ellipse 742" cx="2" cy="2" r="2" transform="translate(400 206)" fill="#018892"/>
        <circle id="Ellipse_743" data-name="Ellipse 743" cx="2" cy="2" r="2" transform="translate(418 206)" fill="#018892"/>
        <circle id="Ellipse_744" data-name="Ellipse 744" cx="2" cy="2" r="2" transform="translate(436 206)" fill="#018892"/>
        <circle id="Ellipse_745" data-name="Ellipse 745" cx="2" cy="2" r="2" transform="translate(454 206)" fill="#018892"/>
        <circle id="Ellipse_746" data-name="Ellipse 746" cx="2" cy="2" r="2" transform="translate(472 206)" fill="#018892"/>
        <circle id="Ellipse_747" data-name="Ellipse 747" cx="2" cy="2" r="2" transform="translate(490 206)" fill="#018892"/>
        <circle id="Ellipse_748" data-name="Ellipse 748" cx="2" cy="2" r="2" transform="translate(508 206)" fill="#018892"/>
        <circle id="Ellipse_749" data-name="Ellipse 749" cx="2" cy="2" r="2" transform="translate(238 220)" fill="#018892"/>
        <circle id="Ellipse_750" data-name="Ellipse 750" cx="2" cy="2" r="2" transform="translate(256 220)" fill="#018892"/>
        <circle id="Ellipse_751" data-name="Ellipse 751" cx="2" cy="2" r="2" transform="translate(274 220)" fill="#018892"/>
        <circle id="Ellipse_752" data-name="Ellipse 752" cx="2" cy="2" r="2" transform="translate(292 220)" fill="#018892"/>
        <circle id="Ellipse_753" data-name="Ellipse 753" cx="2" cy="2" r="2" transform="translate(310 220)" fill="#018892"/>
        <circle id="Ellipse_754" data-name="Ellipse 754" cx="2" cy="2" r="2" transform="translate(328 220)" fill="#018892"/>
        <circle id="Ellipse_755" data-name="Ellipse 755" cx="2" cy="2" r="2" transform="translate(346 220)" fill="#018892"/>
        <circle id="Ellipse_756" data-name="Ellipse 756" cx="2" cy="2" r="2" transform="translate(364 220)" fill="#018892"/>
        <circle id="Ellipse_757" data-name="Ellipse 757" cx="2" cy="2" r="2" transform="translate(382 220)" fill="#018892"/>
        <circle id="Ellipse_758" data-name="Ellipse 758" cx="2" cy="2" r="2" transform="translate(400 220)" fill="#018892"/>
        <circle id="Ellipse_759" data-name="Ellipse 759" cx="2" cy="2" r="2" transform="translate(418 220)" fill="#018892"/>
        <circle id="Ellipse_760" data-name="Ellipse 760" cx="2" cy="2" r="2" transform="translate(436 220)" fill="#018892"/>
        <circle id="Ellipse_761" data-name="Ellipse 761" cx="2" cy="2" r="2" transform="translate(454 220)" fill="#018892"/>
        <circle id="Ellipse_762" data-name="Ellipse 762" cx="2" cy="2" r="2" transform="translate(472 220)" fill="#018892"/>
        <circle id="Ellipse_763" data-name="Ellipse 763" cx="2" cy="2" r="2" transform="translate(490 220)" fill="#018892"/>
        <circle id="Ellipse_764" data-name="Ellipse 764" cx="2" cy="2" r="2" transform="translate(508 220)" fill="#018892"/>
      </g>
    </g>
    <g id="Polygon_20" data-name="Polygon 20" transform="translate(-129.51 -106.042) rotate(90)" fill="#00f2fe">
      <path d="M 25.05206489562988 18.5 L 0.9479352831840515 18.5 L 13 0.8854438662528992 L 25.05206489562988 18.5 Z" stroke="none"/>
      <path d="M 13 1.770902633666992 L 1.895879745483398 18 L 24.1041202545166 18 L 13 1.770902633666992 M 13 0 L 26 19 L 0 19 L 13 0 Z" stroke="none" fill="#707070"/>
    </g>
  </g>
</svg>
