<svg xmlns="http://www.w3.org/2000/svg" xmlns:xlink="http://www.w3.org/1999/xlink" width="269.287" height="329.995" viewBox="0 0 269.287 329.995">
  <defs>
    <clipPath id="clip-path">
      <path id="Path_559" data-name="Path 559" d="M146.864,45.546,313,257.2H-17Z" transform="translate(509.833 -79.5) rotate(90)" fill="#018892"/>
    </clipPath>
  </defs>
  <g id="Group_528" data-name="Group 528" transform="translate(-990 -3837.505)">
    <g id="Mask_Group_4" data-name="Mask Group 4" transform="translate(795 3934)" clip-path="url(#clip-path)">
      <g id="Group_483" data-name="Group 483">
        <circle id="Ellipse_61" data-name="Ellipse 61" cx="2" cy="2" r="2" transform="translate(238 -74)" fill="#018892"/>
        <circle id="Ellipse_62" data-name="Ellipse 62" cx="2" cy="2" r="2" transform="translate(256 -74)" fill="#018892"/>
        <circle id="Ellipse_63" data-name="Ellipse 63" cx="2" cy="2" r="2" transform="translate(274 -74)" fill="#018892"/>
        <circle id="Ellipse_64" data-name="Ellipse 64" cx="2" cy="2" r="2" transform="translate(292 -74)" fill="#018892"/>
        <circle id="Ellipse_65" data-name="Ellipse 65" cx="2" cy="2" r="2" transform="translate(310 -74)" fill="#018892"/>
        <circle id="Ellipse_66" data-name="Ellipse 66" cx="2" cy="2" r="2" transform="translate(328 -74)" fill="#018892"/>
        <circle id="Ellipse_67" data-name="Ellipse 67" cx="2" cy="2" r="2" transform="translate(346 -74)" fill="#018892"/>
        <circle id="Ellipse_68" data-name="Ellipse 68" cx="2" cy="2" r="2" transform="translate(364 -74)" fill="#018892"/>
        <circle id="Ellipse_69" data-name="Ellipse 69" cx="2" cy="2" r="2" transform="translate(382 -74)" fill="#018892"/>
        <circle id="Ellipse_70" data-name="Ellipse 70" cx="2" cy="2" r="2" transform="translate(400 -74)" fill="#018892"/>
        <circle id="Ellipse_71" data-name="Ellipse 71" cx="2" cy="2" r="2" transform="translate(418 -74)" fill="#018892"/>
        <circle id="Ellipse_72" data-name="Ellipse 72" cx="2" cy="2" r="2" transform="translate(436 -74)" fill="#018892"/>
        <circle id="Ellipse_73" data-name="Ellipse 73" cx="2" cy="2" r="2" transform="translate(454 -74)" fill="#018892"/>
        <circle id="Ellipse_74" data-name="Ellipse 74" cx="2" cy="2" r="2" transform="translate(472 -74)" fill="#018892"/>
        <circle id="Ellipse_75" data-name="Ellipse 75" cx="2" cy="2" r="2" transform="translate(490 -74)" fill="#018892"/>
        <circle id="Ellipse_76" data-name="Ellipse 76" cx="2" cy="2" r="2" transform="translate(508 -74)" fill="#018892"/>
        <circle id="Ellipse_77" data-name="Ellipse 77" cx="2" cy="2" r="2" transform="translate(238 -60)" fill="#018892"/>
        <circle id="Ellipse_78" data-name="Ellipse 78" cx="2" cy="2" r="2" transform="translate(256 -60)" fill="#018892"/>
        <circle id="Ellipse_79" data-name="Ellipse 79" cx="2" cy="2" r="2" transform="translate(274 -60)" fill="#018892"/>
        <circle id="Ellipse_80" data-name="Ellipse 80" cx="2" cy="2" r="2" transform="translate(292 -60)" fill="#018892"/>
        <circle id="Ellipse_81" data-name="Ellipse 81" cx="2" cy="2" r="2" transform="translate(310 -60)" fill="#018892"/>
        <circle id="Ellipse_82" data-name="Ellipse 82" cx="2" cy="2" r="2" transform="translate(328 -60)" fill="#018892"/>
        <circle id="Ellipse_83" data-name="Ellipse 83" cx="2" cy="2" r="2" transform="translate(346 -60)" fill="#018892"/>
        <circle id="Ellipse_84" data-name="Ellipse 84" cx="2" cy="2" r="2" transform="translate(364 -60)" fill="#018892"/>
        <circle id="Ellipse_85" data-name="Ellipse 85" cx="2" cy="2" r="2" transform="translate(382 -60)" fill="#018892"/>
        <circle id="Ellipse_86" data-name="Ellipse 86" cx="2" cy="2" r="2" transform="translate(400 -60)" fill="#018892"/>
        <circle id="Ellipse_87" data-name="Ellipse 87" cx="2" cy="2" r="2" transform="translate(418 -60)" fill="#018892"/>
        <circle id="Ellipse_88" data-name="Ellipse 88" cx="2" cy="2" r="2" transform="translate(436 -60)" fill="#018892"/>
        <circle id="Ellipse_89" data-name="Ellipse 89" cx="2" cy="2" r="2" transform="translate(454 -60)" fill="#018892"/>
        <circle id="Ellipse_90" data-name="Ellipse 90" cx="2" cy="2" r="2" transform="translate(472 -60)" fill="#018892"/>
        <circle id="Ellipse_91" data-name="Ellipse 91" cx="2" cy="2" r="2" transform="translate(490 -60)" fill="#018892"/>
        <circle id="Ellipse_92" data-name="Ellipse 92" cx="2" cy="2" r="2" transform="translate(508 -60)" fill="#018892"/>
        <circle id="Ellipse_93" data-name="Ellipse 93" cx="2" cy="2" r="2" transform="translate(238 -46)" fill="#018892"/>
        <circle id="Ellipse_94" data-name="Ellipse 94" cx="2" cy="2" r="2" transform="translate(256 -46)" fill="#018892"/>
        <circle id="Ellipse_95" data-name="Ellipse 95" cx="2" cy="2" r="2" transform="translate(274 -46)" fill="#018892"/>
        <circle id="Ellipse_96" data-name="Ellipse 96" cx="2" cy="2" r="2" transform="translate(292 -46)" fill="#018892"/>
        <circle id="Ellipse_97" data-name="Ellipse 97" cx="2" cy="2" r="2" transform="translate(310 -46)" fill="#018892"/>
        <circle id="Ellipse_98" data-name="Ellipse 98" cx="2" cy="2" r="2" transform="translate(328 -46)" fill="#018892"/>
        <circle id="Ellipse_99" data-name="Ellipse 99" cx="2" cy="2" r="2" transform="translate(346 -46)" fill="#018892"/>
        <circle id="Ellipse_100" data-name="Ellipse 100" cx="2" cy="2" r="2" transform="translate(364 -46)" fill="#018892"/>
        <circle id="Ellipse_101" data-name="Ellipse 101" cx="2" cy="2" r="2" transform="translate(382 -46)" fill="#018892"/>
        <circle id="Ellipse_102" data-name="Ellipse 102" cx="2" cy="2" r="2" transform="translate(400 -46)" fill="#018892"/>
        <circle id="Ellipse_103" data-name="Ellipse 103" cx="2" cy="2" r="2" transform="translate(418 -46)" fill="#018892"/>
        <circle id="Ellipse_104" data-name="Ellipse 104" cx="2" cy="2" r="2" transform="translate(436 -46)" fill="#018892"/>
        <circle id="Ellipse_105" data-name="Ellipse 105" cx="2" cy="2" r="2" transform="translate(454 -46)" fill="#018892"/>
        <circle id="Ellipse_106" data-name="Ellipse 106" cx="2" cy="2" r="2" transform="translate(472 -46)" fill="#018892"/>
        <circle id="Ellipse_107" data-name="Ellipse 107" cx="2" cy="2" r="2" transform="translate(490 -46)" fill="#018892"/>
        <circle id="Ellipse_108" data-name="Ellipse 108" cx="2" cy="2" r="2" transform="translate(508 -46)" fill="#018892"/>
        <circle id="Ellipse_109" data-name="Ellipse 109" cx="2" cy="2" r="2" transform="translate(238 -32)" fill="#018892"/>
        <circle id="Ellipse_110" data-name="Ellipse 110" cx="2" cy="2" r="2" transform="translate(256 -32)" fill="rgba(255,255,255,0.94)"/>
        <circle id="Ellipse_111" data-name="Ellipse 111" cx="2" cy="2" r="2" transform="translate(274 -32)" fill="#018892"/>
        <circle id="Ellipse_112" data-name="Ellipse 112" cx="2" cy="2" r="2" transform="translate(292 -32)" fill="#018892"/>
        <circle id="Ellipse_113" data-name="Ellipse 113" cx="2" cy="2" r="2" transform="translate(310 -32)" fill="#018892"/>
        <circle id="Ellipse_114" data-name="Ellipse 114" cx="2" cy="2" r="2" transform="translate(328 -32)" fill="#018892"/>
        <circle id="Ellipse_115" data-name="Ellipse 115" cx="2" cy="2" r="2" transform="translate(346 -32)" fill="#018892"/>
        <circle id="Ellipse_116" data-name="Ellipse 116" cx="2" cy="2" r="2" transform="translate(364 -32)" fill="#018892"/>
        <circle id="Ellipse_117" data-name="Ellipse 117" cx="2" cy="2" r="2" transform="translate(382 -32)" fill="#018892"/>
        <circle id="Ellipse_118" data-name="Ellipse 118" cx="2" cy="2" r="2" transform="translate(400 -32)" fill="#018892"/>
        <circle id="Ellipse_119" data-name="Ellipse 119" cx="2" cy="2" r="2" transform="translate(418 -32)" fill="#018892"/>
        <circle id="Ellipse_120" data-name="Ellipse 120" cx="2" cy="2" r="2" transform="translate(436 -32)" fill="#018892"/>
        <circle id="Ellipse_121" data-name="Ellipse 121" cx="2" cy="2" r="2" transform="translate(454 -32)" fill="#018892"/>
        <circle id="Ellipse_122" data-name="Ellipse 122" cx="2" cy="2" r="2" transform="translate(472 -32)" fill="#018892"/>
        <circle id="Ellipse_123" data-name="Ellipse 123" cx="2" cy="2" r="2" transform="translate(490 -32)" fill="#018892"/>
        <circle id="Ellipse_124" data-name="Ellipse 124" cx="2" cy="2" r="2" transform="translate(508 -32)" fill="#018892"/>
        <circle id="Ellipse_125" data-name="Ellipse 125" cx="2" cy="2" r="2" transform="translate(238 -18)" fill="#018892"/>
        <circle id="Ellipse_126" data-name="Ellipse 126" cx="2" cy="2" r="2" transform="translate(256 -18)" fill="#018892"/>
        <circle id="Ellipse_127" data-name="Ellipse 127" cx="2" cy="2" r="2" transform="translate(274 -18)" fill="#018892"/>
        <circle id="Ellipse_128" data-name="Ellipse 128" cx="2" cy="2" r="2" transform="translate(292 -18)" fill="#018892"/>
        <circle id="Ellipse_129" data-name="Ellipse 129" cx="2" cy="2" r="2" transform="translate(310 -18)" fill="#018892"/>
        <circle id="Ellipse_130" data-name="Ellipse 130" cx="2" cy="2" r="2" transform="translate(328 -18)" fill="#018892"/>
        <circle id="Ellipse_131" data-name="Ellipse 131" cx="2" cy="2" r="2" transform="translate(346 -18)" fill="#018892"/>
        <circle id="Ellipse_132" data-name="Ellipse 132" cx="2" cy="2" r="2" transform="translate(364 -18)" fill="#018892"/>
        <circle id="Ellipse_133" data-name="Ellipse 133" cx="2" cy="2" r="2" transform="translate(382 -18)" fill="#018892"/>
        <circle id="Ellipse_134" data-name="Ellipse 134" cx="2" cy="2" r="2" transform="translate(400 -18)" fill="#018892"/>
        <circle id="Ellipse_135" data-name="Ellipse 135" cx="2" cy="2" r="2" transform="translate(418 -18)" fill="#018892"/>
        <circle id="Ellipse_136" data-name="Ellipse 136" cx="2" cy="2" r="2" transform="translate(436 -18)" fill="#018892"/>
        <circle id="Ellipse_137" data-name="Ellipse 137" cx="2" cy="2" r="2" transform="translate(454 -18)" fill="#018892"/>
        <circle id="Ellipse_138" data-name="Ellipse 138" cx="2" cy="2" r="2" transform="translate(472 -18)" fill="#018892"/>
        <circle id="Ellipse_139" data-name="Ellipse 139" cx="2" cy="2" r="2" transform="translate(490 -18)" fill="#018892"/>
        <circle id="Ellipse_140" data-name="Ellipse 140" cx="2" cy="2" r="2" transform="translate(508 -18)" fill="#018892"/>
        <circle id="Ellipse_141" data-name="Ellipse 141" cx="2" cy="2" r="2" transform="translate(238 -4)" fill="#018892"/>
        <circle id="Ellipse_142" data-name="Ellipse 142" cx="2" cy="2" r="2" transform="translate(256 -4)" fill="#018892"/>
        <circle id="Ellipse_143" data-name="Ellipse 143" cx="2" cy="2" r="2" transform="translate(274 -4)" fill="#018892"/>
        <circle id="Ellipse_144" data-name="Ellipse 144" cx="2" cy="2" r="2" transform="translate(292 -4)" fill="#018892"/>
        <circle id="Ellipse_145" data-name="Ellipse 145" cx="2" cy="2" r="2" transform="translate(310 -4)" fill="#018892"/>
        <circle id="Ellipse_146" data-name="Ellipse 146" cx="2" cy="2" r="2" transform="translate(328 -4)" fill="#018892"/>
        <circle id="Ellipse_147" data-name="Ellipse 147" cx="2" cy="2" r="2" transform="translate(346 -4)" fill="#018892"/>
        <circle id="Ellipse_148" data-name="Ellipse 148" cx="2" cy="2" r="2" transform="translate(364 -4)" fill="#018892"/>
        <circle id="Ellipse_149" data-name="Ellipse 149" cx="2" cy="2" r="2" transform="translate(382 -4)" fill="#018892"/>
        <circle id="Ellipse_150" data-name="Ellipse 150" cx="2" cy="2" r="2" transform="translate(400 -4)" fill="#018892"/>
        <circle id="Ellipse_151" data-name="Ellipse 151" cx="2" cy="2" r="2" transform="translate(418 -4)" fill="#018892"/>
        <circle id="Ellipse_152" data-name="Ellipse 152" cx="2" cy="2" r="2" transform="translate(436 -4)" fill="#018892"/>
        <circle id="Ellipse_153" data-name="Ellipse 153" cx="2" cy="2" r="2" transform="translate(454 -4)" fill="#018892"/>
        <circle id="Ellipse_154" data-name="Ellipse 154" cx="2" cy="2" r="2" transform="translate(472 -4)" fill="#018892"/>
        <circle id="Ellipse_155" data-name="Ellipse 155" cx="2" cy="2" r="2" transform="translate(490 -4)" fill="#018892"/>
        <circle id="Ellipse_156" data-name="Ellipse 156" cx="2" cy="2" r="2" transform="translate(508 -4)" fill="#018892"/>
        <circle id="Ellipse_157" data-name="Ellipse 157" cx="2" cy="2" r="2" transform="translate(238 10)" fill="#018892"/>
        <circle id="Ellipse_158" data-name="Ellipse 158" cx="2" cy="2" r="2" transform="translate(256 10)" fill="#018892"/>
        <circle id="Ellipse_159" data-name="Ellipse 159" cx="2" cy="2" r="2" transform="translate(274 10)" fill="#018892"/>
        <circle id="Ellipse_160" data-name="Ellipse 160" cx="2" cy="2" r="2" transform="translate(292 10)" fill="#018892"/>
        <circle id="Ellipse_161" data-name="Ellipse 161" cx="2" cy="2" r="2" transform="translate(310 10)" fill="#018892"/>
        <circle id="Ellipse_162" data-name="Ellipse 162" cx="2" cy="2" r="2" transform="translate(328 10)" fill="#018892"/>
        <circle id="Ellipse_163" data-name="Ellipse 163" cx="2" cy="2" r="2" transform="translate(346 10)" fill="#018892"/>
        <circle id="Ellipse_164" data-name="Ellipse 164" cx="2" cy="2" r="2" transform="translate(364 10)" fill="#018892"/>
        <circle id="Ellipse_165" data-name="Ellipse 165" cx="2" cy="2" r="2" transform="translate(382 10)" fill="#018892"/>
        <circle id="Ellipse_166" data-name="Ellipse 166" cx="2" cy="2" r="2" transform="translate(400 10)" fill="#018892"/>
        <circle id="Ellipse_167" data-name="Ellipse 167" cx="2" cy="2" r="2" transform="translate(418 10)" fill="#018892"/>
        <circle id="Ellipse_168" data-name="Ellipse 168" cx="2" cy="2" r="2" transform="translate(436 10)" fill="#018892"/>
        <circle id="Ellipse_169" data-name="Ellipse 169" cx="2" cy="2" r="2" transform="translate(454 10)" fill="#018892"/>
        <circle id="Ellipse_170" data-name="Ellipse 170" cx="2" cy="2" r="2" transform="translate(472 10)" fill="#018892"/>
        <circle id="Ellipse_171" data-name="Ellipse 171" cx="2" cy="2" r="2" transform="translate(490 10)" fill="#018892"/>
        <circle id="Ellipse_172" data-name="Ellipse 172" cx="2" cy="2" r="2" transform="translate(508 10)" fill="#018892"/>
        <circle id="Ellipse_173" data-name="Ellipse 173" cx="2" cy="2" r="2" transform="translate(238 24)" fill="#018892"/>
        <circle id="Ellipse_174" data-name="Ellipse 174" cx="2" cy="2" r="2" transform="translate(256 24)" fill="#018892"/>
        <circle id="Ellipse_175" data-name="Ellipse 175" cx="2" cy="2" r="2" transform="translate(274 24)" fill="#018892"/>
        <circle id="Ellipse_176" data-name="Ellipse 176" cx="2" cy="2" r="2" transform="translate(292 24)" fill="rgba(255,255,255,0.94)"/>
        <circle id="Ellipse_177" data-name="Ellipse 177" cx="2" cy="2" r="2" transform="translate(310 24)" fill="#018892"/>
        <circle id="Ellipse_178" data-name="Ellipse 178" cx="2" cy="2" r="2" transform="translate(328 24)" fill="#018892"/>
        <circle id="Ellipse_179" data-name="Ellipse 179" cx="2" cy="2" r="2" transform="translate(346 24)" fill="#018892"/>
        <circle id="Ellipse_180" data-name="Ellipse 180" cx="2" cy="2" r="2" transform="translate(364 24)" fill="#018892"/>
        <circle id="Ellipse_181" data-name="Ellipse 181" cx="2" cy="2" r="2" transform="translate(382 24)" fill="#018892"/>
        <circle id="Ellipse_182" data-name="Ellipse 182" cx="2" cy="2" r="2" transform="translate(400 24)" fill="#018892"/>
        <circle id="Ellipse_183" data-name="Ellipse 183" cx="2" cy="2" r="2" transform="translate(418 24)" fill="#018892"/>
        <circle id="Ellipse_184" data-name="Ellipse 184" cx="2" cy="2" r="2" transform="translate(436 24)" fill="#018892"/>
        <circle id="Ellipse_185" data-name="Ellipse 185" cx="2" cy="2" r="2" transform="translate(454 24)" fill="#018892"/>
        <circle id="Ellipse_186" data-name="Ellipse 186" cx="2" cy="2" r="2" transform="translate(472 24)" fill="#018892"/>
        <circle id="Ellipse_187" data-name="Ellipse 187" cx="2" cy="2" r="2" transform="translate(490 24)" fill="#018892"/>
        <circle id="Ellipse_188" data-name="Ellipse 188" cx="2" cy="2" r="2" transform="translate(508 24)" fill="#018892"/>
        <circle id="Ellipse_189" data-name="Ellipse 189" cx="2" cy="2" r="2" transform="translate(238 38)" fill="#018892"/>
        <circle id="Ellipse_190" data-name="Ellipse 190" cx="2" cy="2" r="2" transform="translate(256 38)" fill="#018892"/>
        <circle id="Ellipse_191" data-name="Ellipse 191" cx="2" cy="2" r="2" transform="translate(274 38)" fill="#018892"/>
        <circle id="Ellipse_192" data-name="Ellipse 192" cx="2" cy="2" r="2" transform="translate(292 38)" fill="#018892"/>
        <circle id="Ellipse_193" data-name="Ellipse 193" cx="2" cy="2" r="2" transform="translate(310 38)" fill="#018892"/>
        <circle id="Ellipse_194" data-name="Ellipse 194" cx="2" cy="2" r="2" transform="translate(328 38)" fill="#018892"/>
        <circle id="Ellipse_195" data-name="Ellipse 195" cx="2" cy="2" r="2" transform="translate(346 38)" fill="#018892"/>
        <circle id="Ellipse_196" data-name="Ellipse 196" cx="2" cy="2" r="2" transform="translate(364 38)" fill="#018892"/>
        <circle id="Ellipse_197" data-name="Ellipse 197" cx="2" cy="2" r="2" transform="translate(382 38)" fill="#018892"/>
        <circle id="Ellipse_198" data-name="Ellipse 198" cx="2" cy="2" r="2" transform="translate(400 38)" fill="#018892"/>
        <circle id="Ellipse_199" data-name="Ellipse 199" cx="2" cy="2" r="2" transform="translate(418 38)" fill="#018892"/>
        <circle id="Ellipse_200" data-name="Ellipse 200" cx="2" cy="2" r="2" transform="translate(436 38)" fill="#018892"/>
        <circle id="Ellipse_201" data-name="Ellipse 201" cx="2" cy="2" r="2" transform="translate(454 38)" fill="#018892"/>
        <circle id="Ellipse_202" data-name="Ellipse 202" cx="2" cy="2" r="2" transform="translate(472 38)" fill="#018892"/>
        <circle id="Ellipse_203" data-name="Ellipse 203" cx="2" cy="2" r="2" transform="translate(490 38)" fill="#018892"/>
        <circle id="Ellipse_204" data-name="Ellipse 204" cx="2" cy="2" r="2" transform="translate(508 38)" fill="#018892"/>
        <circle id="Ellipse_205" data-name="Ellipse 205" cx="2" cy="2" r="2" transform="translate(238 52)" fill="#018892"/>
        <circle id="Ellipse_206" data-name="Ellipse 206" cx="2" cy="2" r="2" transform="translate(256 52)" fill="#018892"/>
        <circle id="Ellipse_207" data-name="Ellipse 207" cx="2" cy="2" r="2" transform="translate(274 52)" fill="#018892"/>
        <circle id="Ellipse_208" data-name="Ellipse 208" cx="2" cy="2" r="2" transform="translate(292 52)" fill="#018892"/>
        <circle id="Ellipse_209" data-name="Ellipse 209" cx="2" cy="2" r="2" transform="translate(310 52)" fill="#018892"/>
        <circle id="Ellipse_210" data-name="Ellipse 210" cx="2" cy="2" r="2" transform="translate(328 52)" fill="#018892"/>
        <circle id="Ellipse_211" data-name="Ellipse 211" cx="2" cy="2" r="2" transform="translate(346 52)" fill="#018892"/>
        <circle id="Ellipse_212" data-name="Ellipse 212" cx="2" cy="2" r="2" transform="translate(364 52)" fill="#018892"/>
        <circle id="Ellipse_213" data-name="Ellipse 213" cx="2" cy="2" r="2" transform="translate(382 52)" fill="#018892"/>
        <circle id="Ellipse_214" data-name="Ellipse 214" cx="2" cy="2" r="2" transform="translate(400 52)" fill="#018892"/>
        <circle id="Ellipse_215" data-name="Ellipse 215" cx="2" cy="2" r="2" transform="translate(418 52)" fill="#018892"/>
        <circle id="Ellipse_216" data-name="Ellipse 216" cx="2" cy="2" r="2" transform="translate(436 52)" fill="#018892"/>
        <circle id="Ellipse_217" data-name="Ellipse 217" cx="2" cy="2" r="2" transform="translate(454 52)" fill="#018892"/>
        <circle id="Ellipse_218" data-name="Ellipse 218" cx="2" cy="2" r="2" transform="translate(472 52)" fill="#018892"/>
        <circle id="Ellipse_219" data-name="Ellipse 219" cx="2" cy="2" r="2" transform="translate(490 52)" fill="#018892"/>
        <circle id="Ellipse_220" data-name="Ellipse 220" cx="2" cy="2" r="2" transform="translate(508 52)" fill="#018892"/>
        <circle id="Ellipse_221" data-name="Ellipse 221" cx="2" cy="2" r="2" transform="translate(238 66)" fill="#018892"/>
        <circle id="Ellipse_222" data-name="Ellipse 222" cx="2" cy="2" r="2" transform="translate(256 66)" fill="#018892"/>
        <circle id="Ellipse_223" data-name="Ellipse 223" cx="2" cy="2" r="2" transform="translate(274 66)" fill="#018892"/>
        <circle id="Ellipse_224" data-name="Ellipse 224" cx="2" cy="2" r="2" transform="translate(292 66)" fill="#018892"/>
        <circle id="Ellipse_225" data-name="Ellipse 225" cx="2" cy="2" r="2" transform="translate(310 66)" fill="#018892"/>
        <circle id="Ellipse_226" data-name="Ellipse 226" cx="2" cy="2" r="2" transform="translate(328 66)" fill="#018892"/>
        <circle id="Ellipse_227" data-name="Ellipse 227" cx="2" cy="2" r="2" transform="translate(346 66)" fill="#018892"/>
        <circle id="Ellipse_228" data-name="Ellipse 228" cx="2" cy="2" r="2" transform="translate(364 66)" fill="#018892"/>
        <circle id="Ellipse_229" data-name="Ellipse 229" cx="2" cy="2" r="2" transform="translate(382 66)" fill="rgba(255,255,255,0.94)"/>
        <circle id="Ellipse_230" data-name="Ellipse 230" cx="2" cy="2" r="2" transform="translate(400 66)" fill="#018892"/>
        <circle id="Ellipse_231" data-name="Ellipse 231" cx="2" cy="2" r="2" transform="translate(418 66)" fill="#018892"/>
        <circle id="Ellipse_232" data-name="Ellipse 232" cx="2" cy="2" r="2" transform="translate(436 66)" fill="#018892"/>
        <circle id="Ellipse_233" data-name="Ellipse 233" cx="2" cy="2" r="2" transform="translate(454 66)" fill="#018892"/>
        <circle id="Ellipse_234" data-name="Ellipse 234" cx="2" cy="2" r="2" transform="translate(472 66)" fill="#018892"/>
        <circle id="Ellipse_235" data-name="Ellipse 235" cx="2" cy="2" r="2" transform="translate(490 66)" fill="#018892"/>
        <circle id="Ellipse_236" data-name="Ellipse 236" cx="2" cy="2" r="2" transform="translate(508 66)" fill="#018892"/>
        <circle id="Ellipse_237" data-name="Ellipse 237" cx="2" cy="2" r="2" transform="translate(238 80)" fill="#018892"/>
        <circle id="Ellipse_238" data-name="Ellipse 238" cx="2" cy="2" r="2" transform="translate(256 80)" fill="#018892"/>
        <circle id="Ellipse_239" data-name="Ellipse 239" cx="2" cy="2" r="2" transform="translate(274 80)" fill="#018892"/>
        <circle id="Ellipse_240" data-name="Ellipse 240" cx="2" cy="2" r="2" transform="translate(292 80)" fill="#018892"/>
        <circle id="Ellipse_241" data-name="Ellipse 241" cx="2" cy="2" r="2" transform="translate(310 80)" fill="#018892"/>
        <circle id="Ellipse_242" data-name="Ellipse 242" cx="2" cy="2" r="2" transform="translate(328 80)" fill="#018892"/>
        <circle id="Ellipse_243" data-name="Ellipse 243" cx="2" cy="2" r="2" transform="translate(346 80)" fill="#018892"/>
        <circle id="Ellipse_244" data-name="Ellipse 244" cx="2" cy="2" r="2" transform="translate(364 80)" fill="#018892"/>
        <circle id="Ellipse_245" data-name="Ellipse 245" cx="2" cy="2" r="2" transform="translate(382 80)" fill="#018892"/>
        <circle id="Ellipse_246" data-name="Ellipse 246" cx="2" cy="2" r="2" transform="translate(400 80)" fill="#018892"/>
        <circle id="Ellipse_247" data-name="Ellipse 247" cx="2" cy="2" r="2" transform="translate(418 80)" fill="#018892"/>
        <circle id="Ellipse_248" data-name="Ellipse 248" cx="2" cy="2" r="2" transform="translate(436 80)" fill="#018892"/>
        <circle id="Ellipse_249" data-name="Ellipse 249" cx="2" cy="2" r="2" transform="translate(454 80)" fill="#018892"/>
        <circle id="Ellipse_250" data-name="Ellipse 250" cx="2" cy="2" r="2" transform="translate(472 80)" fill="#018892"/>
        <circle id="Ellipse_251" data-name="Ellipse 251" cx="2" cy="2" r="2" transform="translate(490 80)" fill="#018892"/>
        <circle id="Ellipse_252" data-name="Ellipse 252" cx="2" cy="2" r="2" transform="translate(508 80)" fill="#018892"/>
        <circle id="Ellipse_253" data-name="Ellipse 253" cx="2" cy="2" r="2" transform="translate(238 94)" fill="#018892"/>
        <circle id="Ellipse_254" data-name="Ellipse 254" cx="2" cy="2" r="2" transform="translate(256 94)" fill="#018892"/>
        <circle id="Ellipse_255" data-name="Ellipse 255" cx="2" cy="2" r="2" transform="translate(274 94)" fill="#018892"/>
        <circle id="Ellipse_256" data-name="Ellipse 256" cx="2" cy="2" r="2" transform="translate(292 94)" fill="#018892"/>
        <circle id="Ellipse_257" data-name="Ellipse 257" cx="2" cy="2" r="2" transform="translate(310 94)" fill="#018892"/>
        <circle id="Ellipse_258" data-name="Ellipse 258" cx="2" cy="2" r="2" transform="translate(328 94)" fill="#018892"/>
        <circle id="Ellipse_259" data-name="Ellipse 259" cx="2" cy="2" r="2" transform="translate(346 94)" fill="#018892"/>
        <circle id="Ellipse_260" data-name="Ellipse 260" cx="2" cy="2" r="2" transform="translate(364 94)" fill="#018892"/>
        <circle id="Ellipse_261" data-name="Ellipse 261" cx="2" cy="2" r="2" transform="translate(382 94)" fill="#018892"/>
        <circle id="Ellipse_262" data-name="Ellipse 262" cx="2" cy="2" r="2" transform="translate(400 94)" fill="#018892"/>
        <circle id="Ellipse_263" data-name="Ellipse 263" cx="2" cy="2" r="2" transform="translate(418 94)" fill="#018892"/>
        <circle id="Ellipse_264" data-name="Ellipse 264" cx="2" cy="2" r="2" transform="translate(436 94)" fill="#018892"/>
        <circle id="Ellipse_265" data-name="Ellipse 265" cx="2" cy="2" r="2" transform="translate(454 94)" fill="#018892"/>
        <circle id="Ellipse_266" data-name="Ellipse 266" cx="2" cy="2" r="2" transform="translate(472 94)" fill="#018892"/>
        <circle id="Ellipse_267" data-name="Ellipse 267" cx="2" cy="2" r="2" transform="translate(490 94)" fill="#018892"/>
        <circle id="Ellipse_268" data-name="Ellipse 268" cx="2" cy="2" r="2" transform="translate(508 94)" fill="#018892"/>
        <circle id="Ellipse_269" data-name="Ellipse 269" cx="2" cy="2" r="2" transform="translate(238 108)" fill="#018892"/>
        <circle id="Ellipse_270" data-name="Ellipse 270" cx="2" cy="2" r="2" transform="translate(256 108)" fill="#018892"/>
        <circle id="Ellipse_271" data-name="Ellipse 271" cx="2" cy="2" r="2" transform="translate(274 108)" fill="#018892"/>
        <circle id="Ellipse_272" data-name="Ellipse 272" cx="2" cy="2" r="2" transform="translate(292 108)" fill="#018892"/>
        <circle id="Ellipse_273" data-name="Ellipse 273" cx="2" cy="2" r="2" transform="translate(310 108)" fill="#018892"/>
        <circle id="Ellipse_274" data-name="Ellipse 274" cx="2" cy="2" r="2" transform="translate(328 108)" fill="#018892"/>
        <circle id="Ellipse_275" data-name="Ellipse 275" cx="2" cy="2" r="2" transform="translate(346 108)" fill="#018892"/>
        <circle id="Ellipse_276" data-name="Ellipse 276" cx="2" cy="2" r="2" transform="translate(364 108)" fill="#018892"/>
        <circle id="Ellipse_277" data-name="Ellipse 277" cx="2" cy="2" r="2" transform="translate(382 108)" fill="#018892"/>
        <circle id="Ellipse_278" data-name="Ellipse 278" cx="2" cy="2" r="2" transform="translate(400 108)" fill="#018892"/>
        <circle id="Ellipse_279" data-name="Ellipse 279" cx="2" cy="2" r="2" transform="translate(418 108)" fill="#018892"/>
        <circle id="Ellipse_280" data-name="Ellipse 280" cx="2" cy="2" r="2" transform="translate(436 108)" fill="#018892"/>
        <circle id="Ellipse_281" data-name="Ellipse 281" cx="2" cy="2" r="2" transform="translate(454 108)" fill="#018892"/>
        <circle id="Ellipse_282" data-name="Ellipse 282" cx="2" cy="2" r="2" transform="translate(472 108)" fill="#018892"/>
        <circle id="Ellipse_283" data-name="Ellipse 283" cx="2" cy="2" r="2" transform="translate(490 108)" fill="#018892"/>
        <circle id="Ellipse_284" data-name="Ellipse 284" cx="2" cy="2" r="2" transform="translate(508 108)" fill="#018892"/>
        <circle id="Ellipse_285" data-name="Ellipse 285" cx="2" cy="2" r="2" transform="translate(238 122)" fill="#018892"/>
        <circle id="Ellipse_286" data-name="Ellipse 286" cx="2" cy="2" r="2" transform="translate(256 122)" fill="#018892"/>
        <circle id="Ellipse_287" data-name="Ellipse 287" cx="2" cy="2" r="2" transform="translate(274 122)" fill="#018892"/>
        <circle id="Ellipse_288" data-name="Ellipse 288" cx="2" cy="2" r="2" transform="translate(292 122)" fill="#018892"/>
        <circle id="Ellipse_289" data-name="Ellipse 289" cx="2" cy="2" r="2" transform="translate(310 122)" fill="#018892"/>
        <circle id="Ellipse_290" data-name="Ellipse 290" cx="2" cy="2" r="2" transform="translate(328 122)" fill="#018892"/>
        <circle id="Ellipse_291" data-name="Ellipse 291" cx="2" cy="2" r="2" transform="translate(346 122)" fill="#018892"/>
        <circle id="Ellipse_292" data-name="Ellipse 292" cx="2" cy="2" r="2" transform="translate(364 122)" fill="#018892"/>
        <circle id="Ellipse_293" data-name="Ellipse 293" cx="2" cy="2" r="2" transform="translate(382 122)" fill="#018892"/>
        <circle id="Ellipse_294" data-name="Ellipse 294" cx="2" cy="2" r="2" transform="translate(400 122)" fill="#018892"/>
        <circle id="Ellipse_295" data-name="Ellipse 295" cx="2" cy="2" r="2" transform="translate(418 122)" fill="#018892"/>
        <circle id="Ellipse_296" data-name="Ellipse 296" cx="2" cy="2" r="2" transform="translate(436 122)" fill="#018892"/>
        <circle id="Ellipse_297" data-name="Ellipse 297" cx="2" cy="2" r="2" transform="translate(454 122)" fill="#018892"/>
        <circle id="Ellipse_298" data-name="Ellipse 298" cx="2" cy="2" r="2" transform="translate(472 122)" fill="#018892"/>
        <circle id="Ellipse_299" data-name="Ellipse 299" cx="2" cy="2" r="2" transform="translate(490 122)" fill="#018892"/>
        <circle id="Ellipse_300" data-name="Ellipse 300" cx="2" cy="2" r="2" transform="translate(508 122)" fill="#018892"/>
        <circle id="Ellipse_301" data-name="Ellipse 301" cx="2" cy="2" r="2" transform="translate(238 136)" fill="#018892"/>
        <circle id="Ellipse_302" data-name="Ellipse 302" cx="2" cy="2" r="2" transform="translate(256 136)" fill="#018892"/>
        <circle id="Ellipse_303" data-name="Ellipse 303" cx="2" cy="2" r="2" transform="translate(274 136)" fill="#018892"/>
        <circle id="Ellipse_304" data-name="Ellipse 304" cx="2" cy="2" r="2" transform="translate(292 136)" fill="#018892"/>
        <circle id="Ellipse_305" data-name="Ellipse 305" cx="2" cy="2" r="2" transform="translate(310 136)" fill="#018892"/>
        <circle id="Ellipse_306" data-name="Ellipse 306" cx="2" cy="2" r="2" transform="translate(328 136)" fill="#018892"/>
        <circle id="Ellipse_307" data-name="Ellipse 307" cx="2" cy="2" r="2" transform="translate(346 136)" fill="#018892"/>
        <circle id="Ellipse_308" data-name="Ellipse 308" cx="2" cy="2" r="2" transform="translate(364 136)" fill="#018892"/>
        <circle id="Ellipse_309" data-name="Ellipse 309" cx="2" cy="2" r="2" transform="translate(382 136)" fill="#018892"/>
        <circle id="Ellipse_310" data-name="Ellipse 310" cx="2" cy="2" r="2" transform="translate(400 136)" fill="#018892"/>
        <circle id="Ellipse_311" data-name="Ellipse 311" cx="2" cy="2" r="2" transform="translate(418 136)" fill="#018892"/>
        <circle id="Ellipse_312" data-name="Ellipse 312" cx="2" cy="2" r="2" transform="translate(436 136)" fill="#018892"/>
        <circle id="Ellipse_313" data-name="Ellipse 313" cx="2" cy="2" r="2" transform="translate(454 136)" fill="#018892"/>
        <circle id="Ellipse_314" data-name="Ellipse 314" cx="2" cy="2" r="2" transform="translate(472 136)" fill="#018892"/>
        <circle id="Ellipse_315" data-name="Ellipse 315" cx="2" cy="2" r="2" transform="translate(490 136)" fill="#018892"/>
        <circle id="Ellipse_316" data-name="Ellipse 316" cx="2" cy="2" r="2" transform="translate(508 136)" fill="#018892"/>
        <circle id="Ellipse_317" data-name="Ellipse 317" cx="2" cy="2" r="2" transform="translate(238 150)" fill="#018892"/>
        <circle id="Ellipse_318" data-name="Ellipse 318" cx="2" cy="2" r="2" transform="translate(256 150)" fill="#018892"/>
        <circle id="Ellipse_319" data-name="Ellipse 319" cx="2" cy="2" r="2" transform="translate(274 150)" fill="rgba(255,255,255,0.94)"/>
        <circle id="Ellipse_320" data-name="Ellipse 320" cx="2" cy="2" r="2" transform="translate(292 150)" fill="#018892"/>
        <circle id="Ellipse_321" data-name="Ellipse 321" cx="2" cy="2" r="2" transform="translate(310 150)" fill="#018892"/>
        <circle id="Ellipse_322" data-name="Ellipse 322" cx="2" cy="2" r="2" transform="translate(328 150)" fill="#018892"/>
        <circle id="Ellipse_323" data-name="Ellipse 323" cx="2" cy="2" r="2" transform="translate(346 150)" fill="#018892"/>
        <circle id="Ellipse_324" data-name="Ellipse 324" cx="2" cy="2" r="2" transform="translate(364 150)" fill="#018892"/>
        <circle id="Ellipse_325" data-name="Ellipse 325" cx="2" cy="2" r="2" transform="translate(382 150)" fill="#018892"/>
        <circle id="Ellipse_326" data-name="Ellipse 326" cx="2" cy="2" r="2" transform="translate(400 150)" fill="#018892"/>
        <circle id="Ellipse_327" data-name="Ellipse 327" cx="2" cy="2" r="2" transform="translate(418 150)" fill="#018892"/>
        <circle id="Ellipse_328" data-name="Ellipse 328" cx="2" cy="2" r="2" transform="translate(436 150)" fill="#018892"/>
        <circle id="Ellipse_329" data-name="Ellipse 329" cx="2" cy="2" r="2" transform="translate(454 150)" fill="#018892"/>
        <circle id="Ellipse_330" data-name="Ellipse 330" cx="2" cy="2" r="2" transform="translate(472 150)" fill="#018892"/>
        <circle id="Ellipse_331" data-name="Ellipse 331" cx="2" cy="2" r="2" transform="translate(490 150)" fill="#018892"/>
        <circle id="Ellipse_332" data-name="Ellipse 332" cx="2" cy="2" r="2" transform="translate(508 150)" fill="#018892"/>
        <circle id="Ellipse_333" data-name="Ellipse 333" cx="2" cy="2" r="2" transform="translate(238 164)" fill="#018892"/>
        <circle id="Ellipse_334" data-name="Ellipse 334" cx="2" cy="2" r="2" transform="translate(256 164)" fill="#018892"/>
        <circle id="Ellipse_335" data-name="Ellipse 335" cx="2" cy="2" r="2" transform="translate(274 164)" fill="#018892"/>
        <circle id="Ellipse_336" data-name="Ellipse 336" cx="2" cy="2" r="2" transform="translate(292 164)" fill="#018892"/>
        <circle id="Ellipse_337" data-name="Ellipse 337" cx="2" cy="2" r="2" transform="translate(310 164)" fill="#018892"/>
        <circle id="Ellipse_338" data-name="Ellipse 338" cx="2" cy="2" r="2" transform="translate(328 164)" fill="#018892"/>
        <circle id="Ellipse_339" data-name="Ellipse 339" cx="2" cy="2" r="2" transform="translate(346 164)" fill="#018892"/>
        <circle id="Ellipse_340" data-name="Ellipse 340" cx="2" cy="2" r="2" transform="translate(364 164)" fill="#018892"/>
        <circle id="Ellipse_341" data-name="Ellipse 341" cx="2" cy="2" r="2" transform="translate(382 164)" fill="#018892"/>
        <circle id="Ellipse_342" data-name="Ellipse 342" cx="2" cy="2" r="2" transform="translate(400 164)" fill="#018892"/>
        <circle id="Ellipse_343" data-name="Ellipse 343" cx="2" cy="2" r="2" transform="translate(418 164)" fill="#018892"/>
        <circle id="Ellipse_344" data-name="Ellipse 344" cx="2" cy="2" r="2" transform="translate(436 164)" fill="#018892"/>
        <circle id="Ellipse_345" data-name="Ellipse 345" cx="2" cy="2" r="2" transform="translate(454 164)" fill="#018892"/>
        <circle id="Ellipse_346" data-name="Ellipse 346" cx="2" cy="2" r="2" transform="translate(472 164)" fill="#018892"/>
        <circle id="Ellipse_347" data-name="Ellipse 347" cx="2" cy="2" r="2" transform="translate(490 164)" fill="#018892"/>
        <circle id="Ellipse_348" data-name="Ellipse 348" cx="2" cy="2" r="2" transform="translate(508 164)" fill="#018892"/>
        <circle id="Ellipse_349" data-name="Ellipse 349" cx="2" cy="2" r="2" transform="translate(238 178)" fill="#018892"/>
        <circle id="Ellipse_350" data-name="Ellipse 350" cx="2" cy="2" r="2" transform="translate(256 178)" fill="#018892"/>
        <circle id="Ellipse_351" data-name="Ellipse 351" cx="2" cy="2" r="2" transform="translate(274 178)" fill="#018892"/>
        <circle id="Ellipse_352" data-name="Ellipse 352" cx="2" cy="2" r="2" transform="translate(292 178)" fill="#018892"/>
        <circle id="Ellipse_353" data-name="Ellipse 353" cx="2" cy="2" r="2" transform="translate(310 178)" fill="rgba(255,255,255,0.94)"/>
        <circle id="Ellipse_354" data-name="Ellipse 354" cx="2" cy="2" r="2" transform="translate(328 178)" fill="#018892"/>
        <circle id="Ellipse_355" data-name="Ellipse 355" cx="2" cy="2" r="2" transform="translate(346 178)" fill="#018892"/>
        <circle id="Ellipse_356" data-name="Ellipse 356" cx="2" cy="2" r="2" transform="translate(364 178)" fill="#018892"/>
        <circle id="Ellipse_357" data-name="Ellipse 357" cx="2" cy="2" r="2" transform="translate(382 178)" fill="#018892"/>
        <circle id="Ellipse_358" data-name="Ellipse 358" cx="2" cy="2" r="2" transform="translate(400 178)" fill="#018892"/>
        <circle id="Ellipse_359" data-name="Ellipse 359" cx="2" cy="2" r="2" transform="translate(418 178)" fill="#018892"/>
        <circle id="Ellipse_360" data-name="Ellipse 360" cx="2" cy="2" r="2" transform="translate(436 178)" fill="#018892"/>
        <circle id="Ellipse_361" data-name="Ellipse 361" cx="2" cy="2" r="2" transform="translate(454 178)" fill="#018892"/>
        <circle id="Ellipse_362" data-name="Ellipse 362" cx="2" cy="2" r="2" transform="translate(472 178)" fill="#018892"/>
        <circle id="Ellipse_363" data-name="Ellipse 363" cx="2" cy="2" r="2" transform="translate(490 178)" fill="#018892"/>
        <circle id="Ellipse_364" data-name="Ellipse 364" cx="2" cy="2" r="2" transform="translate(508 178)" fill="#018892"/>
        <circle id="Ellipse_365" data-name="Ellipse 365" cx="2" cy="2" r="2" transform="translate(238 192)" fill="#018892"/>
        <circle id="Ellipse_366" data-name="Ellipse 366" cx="2" cy="2" r="2" transform="translate(256 192)" fill="#018892"/>
        <circle id="Ellipse_367" data-name="Ellipse 367" cx="2" cy="2" r="2" transform="translate(274 192)" fill="#018892"/>
        <circle id="Ellipse_368" data-name="Ellipse 368" cx="2" cy="2" r="2" transform="translate(292 192)" fill="#018892"/>
        <circle id="Ellipse_369" data-name="Ellipse 369" cx="2" cy="2" r="2" transform="translate(310 192)" fill="#018892"/>
        <circle id="Ellipse_370" data-name="Ellipse 370" cx="2" cy="2" r="2" transform="translate(328 192)" fill="#018892"/>
        <circle id="Ellipse_371" data-name="Ellipse 371" cx="2" cy="2" r="2" transform="translate(346 192)" fill="#018892"/>
        <circle id="Ellipse_372" data-name="Ellipse 372" cx="2" cy="2" r="2" transform="translate(364 192)" fill="#018892"/>
        <circle id="Ellipse_373" data-name="Ellipse 373" cx="2" cy="2" r="2" transform="translate(382 192)" fill="#018892"/>
        <circle id="Ellipse_374" data-name="Ellipse 374" cx="2" cy="2" r="2" transform="translate(400 192)" fill="#018892"/>
        <circle id="Ellipse_375" data-name="Ellipse 375" cx="2" cy="2" r="2" transform="translate(418 192)" fill="#018892"/>
        <circle id="Ellipse_376" data-name="Ellipse 376" cx="2" cy="2" r="2" transform="translate(436 192)" fill="#018892"/>
        <circle id="Ellipse_377" data-name="Ellipse 377" cx="2" cy="2" r="2" transform="translate(454 192)" fill="#018892"/>
        <circle id="Ellipse_378" data-name="Ellipse 378" cx="2" cy="2" r="2" transform="translate(472 192)" fill="#018892"/>
        <circle id="Ellipse_379" data-name="Ellipse 379" cx="2" cy="2" r="2" transform="translate(490 192)" fill="#018892"/>
        <circle id="Ellipse_380" data-name="Ellipse 380" cx="2" cy="2" r="2" transform="translate(508 192)" fill="#018892"/>
        <circle id="Ellipse_381" data-name="Ellipse 381" cx="2" cy="2" r="2" transform="translate(238 206)" fill="#018892"/>
        <circle id="Ellipse_382" data-name="Ellipse 382" cx="2" cy="2" r="2" transform="translate(256 206)" fill="#018892"/>
        <circle id="Ellipse_383" data-name="Ellipse 383" cx="2" cy="2" r="2" transform="translate(274 206)" fill="#018892"/>
        <circle id="Ellipse_384" data-name="Ellipse 384" cx="2" cy="2" r="2" transform="translate(292 206)" fill="#018892"/>
        <circle id="Ellipse_385" data-name="Ellipse 385" cx="2" cy="2" r="2" transform="translate(310 206)" fill="#018892"/>
        <circle id="Ellipse_386" data-name="Ellipse 386" cx="2" cy="2" r="2" transform="translate(328 206)" fill="#018892"/>
        <circle id="Ellipse_387" data-name="Ellipse 387" cx="2" cy="2" r="2" transform="translate(346 206)" fill="#018892"/>
        <circle id="Ellipse_388" data-name="Ellipse 388" cx="2" cy="2" r="2" transform="translate(364 206)" fill="#018892"/>
        <circle id="Ellipse_389" data-name="Ellipse 389" cx="2" cy="2" r="2" transform="translate(382 206)" fill="#018892"/>
        <circle id="Ellipse_390" data-name="Ellipse 390" cx="2" cy="2" r="2" transform="translate(400 206)" fill="#018892"/>
        <circle id="Ellipse_391" data-name="Ellipse 391" cx="2" cy="2" r="2" transform="translate(418 206)" fill="#018892"/>
        <circle id="Ellipse_392" data-name="Ellipse 392" cx="2" cy="2" r="2" transform="translate(436 206)" fill="#018892"/>
        <circle id="Ellipse_393" data-name="Ellipse 393" cx="2" cy="2" r="2" transform="translate(454 206)" fill="#018892"/>
        <circle id="Ellipse_394" data-name="Ellipse 394" cx="2" cy="2" r="2" transform="translate(472 206)" fill="#018892"/>
        <circle id="Ellipse_395" data-name="Ellipse 395" cx="2" cy="2" r="2" transform="translate(490 206)" fill="#018892"/>
        <circle id="Ellipse_396" data-name="Ellipse 396" cx="2" cy="2" r="2" transform="translate(508 206)" fill="#018892"/>
        <circle id="Ellipse_397" data-name="Ellipse 397" cx="2" cy="2" r="2" transform="translate(238 220)" fill="#018892"/>
        <circle id="Ellipse_398" data-name="Ellipse 398" cx="2" cy="2" r="2" transform="translate(256 220)" fill="#018892"/>
        <circle id="Ellipse_399" data-name="Ellipse 399" cx="2" cy="2" r="2" transform="translate(274 220)" fill="#018892"/>
        <circle id="Ellipse_400" data-name="Ellipse 400" cx="2" cy="2" r="2" transform="translate(292 220)" fill="#018892"/>
        <circle id="Ellipse_401" data-name="Ellipse 401" cx="2" cy="2" r="2" transform="translate(310 220)" fill="#018892"/>
        <circle id="Ellipse_402" data-name="Ellipse 402" cx="2" cy="2" r="2" transform="translate(328 220)" fill="#018892"/>
        <circle id="Ellipse_403" data-name="Ellipse 403" cx="2" cy="2" r="2" transform="translate(346 220)" fill="#018892"/>
        <circle id="Ellipse_404" data-name="Ellipse 404" cx="2" cy="2" r="2" transform="translate(364 220)" fill="#018892"/>
        <circle id="Ellipse_405" data-name="Ellipse 405" cx="2" cy="2" r="2" transform="translate(382 220)" fill="#018892"/>
        <circle id="Ellipse_406" data-name="Ellipse 406" cx="2" cy="2" r="2" transform="translate(400 220)" fill="#018892"/>
        <circle id="Ellipse_407" data-name="Ellipse 407" cx="2" cy="2" r="2" transform="translate(418 220)" fill="#018892"/>
        <circle id="Ellipse_408" data-name="Ellipse 408" cx="2" cy="2" r="2" transform="translate(436 220)" fill="#018892"/>
        <circle id="Ellipse_409" data-name="Ellipse 409" cx="2" cy="2" r="2" transform="translate(454 220)" fill="#018892"/>
        <circle id="Ellipse_410" data-name="Ellipse 410" cx="2" cy="2" r="2" transform="translate(472 220)" fill="#018892"/>
        <circle id="Ellipse_411" data-name="Ellipse 411" cx="2" cy="2" r="2" transform="translate(490 220)" fill="#018892"/>
        <circle id="Ellipse_412" data-name="Ellipse 412" cx="2" cy="2" r="2" transform="translate(508 220)" fill="#018892"/>
      </g>
    </g>
    <g id="Polygon_18" data-name="Polygon 18" transform="translate(1009 4088) rotate(90)" fill="#ccf381">
      <path d="M 25.05206489562988 18.5 L 0.9479352831840515 18.5 L 13 0.8854438662528992 L 25.05206489562988 18.5 Z" stroke="none"/>
      <path d="M 13 1.770902633666992 L 1.895879745483398 18 L 24.1041202545166 18 L 13 1.770902633666992 M 13 0 L 26 19 L 0 19 L 13 0 Z" stroke="none" fill="#707070"/>
    </g>
  </g>
</svg>
