<svg width="475" height="57" viewBox="0 0 475 57" fill="none" xmlns="http://www.w3.org/2000/svg">
<path d="M96.6639 21.248C88.5359 21.248 83.3519 25.088 83.3519 31.296C83.3519 36.288 87.0639 38.528 90.4559 40.128C94.2959 41.92 98.0719 42.432 98.0719 45.376C98.0719 48.256 95.6399 49.024 93.4639 49.024C89.1759 49.024 85.5919 45.312 85.5919 45.312L80.9839 50.752C80.9839 50.752 84.3759 56.064 93.3999 56.064C99.8639 56.064 107.992 54.144 107.992 44.992C107.992 38.336 102.36 36.032 98.0079 34.688C94.4239 33.6 92.3119 32.704 92.3119 30.784C92.3119 28.864 93.6559 27.904 96.6639 27.904C100.12 27.904 103.128 29.824 103.128 29.824L107.16 24.384C107.16 24.384 103.64 21.248 96.6639 21.248Z" fill="black"/>
<path d="M111.415 22.272V29.44H115.703V44.416C115.703 49.856 117.623 56.064 125.943 56.064C130.231 56.064 133.431 54.208 133.431 54.208L131.127 46.592C131.127 46.592 129.783 47.616 128.119 47.616C126.007 47.616 125.175 45.952 125.175 42.688V29.44H132.407V22.272H125.175V9.984H115.703V22.272H111.415Z" fill="black"/>
<path d="M135.674 38.656C135.674 48.384 142.522 56.064 152.058 56.064C156.922 56.064 161.018 53.824 163.578 50.56V55.04H173.05V22.272H163.578V26.432C160.89 23.232 156.922 21.248 152.058 21.248C142.522 21.248 135.674 28.928 135.674 38.656ZM145.658 38.656C145.658 33.152 149.626 29.312 154.746 29.312C159.866 29.312 163.834 33.152 163.834 38.656C163.834 44.096 159.994 48 154.746 48C149.37 48 145.658 44.096 145.658 38.656Z" fill="black"/>
<path d="M179.36 38.656C179.36 48.448 187.808 56.064 197.408 56.064C204.768 56.064 208.48 52.864 208.48 52.864L205.152 46.336C205.152 46.336 202.72 48.32 198.752 48.32C193.504 48.32 189.344 44.096 189.344 38.656C189.344 33.216 193.504 28.992 198.752 28.992C202.72 28.992 205.152 30.976 205.152 30.976L208.48 24.448C208.48 24.448 204.768 21.248 197.408 21.248C187.808 21.248 179.36 28.864 179.36 38.656Z" fill="black"/>
<path d="M214.542 0V55.04H224.014V40L237.966 55.04H250.062L233.23 37.12L247.694 22.272H235.47L224.014 34.176V0H214.542Z" fill="black"/>
<path d="M266.226 21.248C258.098 21.248 252.914 25.088 252.914 31.296C252.914 36.288 256.626 38.528 260.018 40.128C263.858 41.92 267.634 42.432 267.634 45.376C267.634 48.256 265.202 49.024 263.026 49.024C258.738 49.024 255.154 45.312 255.154 45.312L250.546 50.752C250.546 50.752 253.938 56.064 262.962 56.064C269.426 56.064 277.554 54.144 277.554 44.992C277.554 38.336 271.922 36.032 267.57 34.688C263.986 33.6 261.874 32.704 261.874 30.784C261.874 28.864 263.218 27.904 266.226 27.904C269.682 27.904 272.69 29.824 272.69 29.824L276.722 24.384C276.722 24.384 273.202 21.248 266.226 21.248Z" fill="black"/>
<path d="M280.978 22.272V29.44H285.266V44.416C285.266 49.856 287.186 56.064 295.506 56.064C299.794 56.064 302.994 54.208 302.994 54.208L300.69 46.592C300.69 46.592 299.346 47.616 297.682 47.616C295.57 47.616 294.738 45.952 294.738 42.688V29.44H301.97V22.272H294.738V9.984H285.266V22.272H280.978Z" fill="black"/>
<path d="M307.73 22.272V55.04H317.202V36.544C317.202 35.264 318.546 29.44 324.434 29.44C327.954 29.44 330.066 31.04 330.066 31.04L333.97 23.04C333.97 23.04 331.282 21.248 327.25 21.248C321.298 21.248 317.714 26.112 317.202 27.008V22.272H307.73Z" fill="black"/>
<path d="M335.11 38.592C335.11 48.256 343.174 56.064 353.03 56.064C360.198 56.064 366.086 53.568 369.67 47.616L362.822 44.16C360.07 47.424 357.83 48.512 353.734 48.512C349.574 48.512 344.902 45.76 344.902 39.872H370.31C370.31 39.872 370.374 38.912 370.374 38.464C370.374 27.712 362.758 21.248 352.902 21.248C343.11 21.248 335.11 28.992 335.11 38.592ZM345.158 34.56C345.414 31.168 348.486 28.096 353.158 28.096C357.382 28.096 360.646 30.848 361.158 34.56H345.158Z" fill="black"/>
<path d="M374.237 38.656C374.237 48.384 381.085 56.064 390.621 56.064C395.485 56.064 399.581 53.824 402.141 50.56V55.04H411.613V22.272H402.141V26.432C399.453 23.232 395.485 21.248 390.621 21.248C381.085 21.248 374.237 28.928 374.237 38.656ZM384.221 38.656C384.221 33.152 388.189 29.312 393.309 29.312C398.429 29.312 402.397 33.152 402.397 38.656C402.397 44.096 398.557 48 393.309 48C387.933 48 384.221 44.096 384.221 38.656Z" fill="black"/>
<path d="M420.355 22.272V55.04H429.827V35.008C429.827 32.256 431.939 28.864 436.163 28.864C440.835 28.864 442.947 32.064 442.947 36.224V55.04H452.355V34.688C452.355 32.064 454.595 28.864 458.627 28.864C463.299 28.864 465.411 32.064 465.411 36.224V55.04H474.819V33.664C474.819 24.768 468.739 21.248 462.083 21.248C458.179 21.248 454.211 23.424 451.075 27.52C448.963 23.104 444.419 21.248 439.619 21.248C435.971 21.248 432.451 23.104 429.827 25.984V22.272H420.355Z" fill="black"/>
<rect y="43.04" width="54" height="12" rx="4" fill="black"/>
<rect x="7" y="27.04" width="54" height="12" rx="4" fill="black"/>
<rect y="11.04" width="54" height="12" rx="4" fill="black"/>
</svg>
