<svg xmlns="http://www.w3.org/2000/svg" xmlns:xlink="http://www.w3.org/1999/xlink" width="333.792" height="306.816" viewBox="0 0 333.792 306.816">
  <defs>
    <linearGradient id="linear-gradient" x1="0.5" x2="0.5" y2="1" gradientUnits="objectBoundingBox">
      <stop offset="0" stop-color="#ccf381"/>
      <stop offset="1" stop-color="#684eff"/>
    </linearGradient>
  </defs>
  <g id="Group_492" data-name="Group 492" transform="translate(-306.208 -960.13)">
    <g id="Group_480" data-name="Group 480" transform="translate(380.095 936.277)">
      <circle id="Ellipse_40" data-name="Ellipse 40" cx="2.797" cy="2.797" r="2.797" transform="translate(76.61 46.723)" fill="#ccf381"/>
      <path id="Path_471" data-name="Path 471" d="M95.056,49.518a2.8,2.8,0,1,1-2.8-2.8A2.8,2.8,0,0,1,95.056,49.518Z" transform="translate(16.765 0.001)" fill="#ccf381"/>
      <path id="Path_472" data-name="Path 472" d="M107.906,49.518a2.8,2.8,0,1,1-2.8-2.8A2.8,2.8,0,0,1,107.906,49.518Z" transform="translate(33.53 0.001)" fill="#ccf381"/>
      <circle id="Ellipse_41" data-name="Ellipse 41" cx="2.797" cy="2.797" r="2.797" transform="translate(165.461 46.723)" fill="#ccf381"/>
      <circle id="Ellipse_42" data-name="Ellipse 42" cx="2.797" cy="2.797" r="2.797" transform="translate(195.078 46.723)" fill="#ccf381"/>
      <path id="Path_473" data-name="Path 473" d="M146.462,49.518a2.8,2.8,0,1,1-2.8-2.8A2.8,2.8,0,0,1,146.462,49.518Z" transform="translate(83.826 0.001)" fill="#ccf381"/>
      <circle id="Ellipse_43" data-name="Ellipse 43" cx="2.797" cy="2.797" r="2.797" transform="translate(254.312 46.723)" fill="#ccf381"/>
      <path id="Path_474" data-name="Path 474" d="M82.2,63.739a2.8,2.8,0,1,1-2.8-2.8A2.8,2.8,0,0,1,82.2,63.739Z" transform="translate(0 18.552)" fill="#ccf381"/>
      <path id="Path_475" data-name="Path 475" d="M95.056,63.739a2.8,2.8,0,1,1-2.8-2.8A2.8,2.8,0,0,1,95.056,63.739Z" transform="translate(16.765 18.552)" fill="#ccf381"/>
      <path id="Path_476" data-name="Path 476" d="M107.906,63.739a2.8,2.8,0,1,1-2.8-2.8A2.8,2.8,0,0,1,107.906,63.739Z" transform="translate(33.53 18.552)" fill="#ccf381"/>
      <path id="Path_477" data-name="Path 477" d="M120.758,63.739a2.8,2.8,0,1,1-2.8-2.8A2.8,2.8,0,0,1,120.758,63.739Z" transform="translate(50.295 18.552)" fill="#ccf381"/>
      <path id="Path_478" data-name="Path 478" d="M133.61,63.739a2.8,2.8,0,1,1-2.8-2.8A2.8,2.8,0,0,1,133.61,63.739Z" transform="translate(67.061 18.552)" fill="#fff"/>
      <path id="Path_479" data-name="Path 479" d="M146.462,63.739a2.8,2.8,0,1,1-2.8-2.8A2.8,2.8,0,0,1,146.462,63.739Z" transform="translate(83.826 18.552)" fill="#ccf381"/>
      <path id="Path_480" data-name="Path 480" d="M159.314,63.739a2.8,2.8,0,1,1-2.8-2.8A2.8,2.8,0,0,1,159.314,63.739Z" transform="translate(100.591 18.552)" fill="#ccf381"/>
      <circle id="Ellipse_44" data-name="Ellipse 44" cx="2.797" cy="2.797" r="2.797" transform="translate(76.61 112.267)" fill="#ccf381"/>
      <path id="Path_481" data-name="Path 481" d="M95.056,77.96a2.8,2.8,0,1,1-2.8-2.8A2.8,2.8,0,0,1,95.056,77.96Z" transform="translate(16.765 37.103)" fill="#ccf381"/>
      <path id="Path_482" data-name="Path 482" d="M107.906,77.96a2.8,2.8,0,1,1-2.8-2.8A2.8,2.8,0,0,1,107.906,77.96Z" transform="translate(33.53 37.103)" fill="#ccf381"/>
      <circle id="Ellipse_45" data-name="Ellipse 45" cx="2.797" cy="2.797" r="2.797" transform="translate(165.461 112.267)" fill="#ccf381"/>
      <circle id="Ellipse_46" data-name="Ellipse 46" cx="2.797" cy="2.797" r="2.797" transform="translate(195.078 112.267)" fill="#ccf381"/>
      <path id="Path_483" data-name="Path 483" d="M146.462,77.96a2.8,2.8,0,1,1-2.8-2.8A2.8,2.8,0,0,1,146.462,77.96Z" transform="translate(83.826 37.103)" fill="#ccf381"/>
      <circle id="Ellipse_47" data-name="Ellipse 47" cx="2.797" cy="2.797" r="2.797" transform="translate(254.312 112.267)" fill="#ccf381"/>
      <path id="Path_484" data-name="Path 484" d="M82.2,92.184a2.8,2.8,0,1,1-2.8-2.8A2.8,2.8,0,0,1,82.2,92.184Z" transform="translate(0 55.653)" fill="#ccf381"/>
      <path id="Path_485" data-name="Path 485" d="M95.056,92.184a2.8,2.8,0,1,1-2.8-2.8A2.8,2.8,0,0,1,95.056,92.184Z" transform="translate(16.765 55.653)" fill="#ccf381"/>
      <path id="Path_486" data-name="Path 486" d="M107.906,92.184a2.8,2.8,0,1,1-2.8-2.8A2.8,2.8,0,0,1,107.906,92.184Z" transform="translate(33.53 55.653)" fill="#fff"/>
      <path id="Path_487" data-name="Path 487" d="M120.758,92.184a2.8,2.8,0,1,1-2.8-2.8A2.8,2.8,0,0,1,120.758,92.184Z" transform="translate(50.295 55.653)" fill="#ccf381"/>
      <path id="Path_488" data-name="Path 488" d="M133.61,92.184a2.8,2.8,0,1,1-2.8-2.8A2.8,2.8,0,0,1,133.61,92.184Z" transform="translate(67.061 55.653)" fill="#ccf381"/>
      <path id="Path_489" data-name="Path 489" d="M146.462,92.184a2.8,2.8,0,1,1-2.8-2.8A2.8,2.8,0,0,1,146.462,92.184Z" transform="translate(83.826 55.653)" fill="#ccf381"/>
      <path id="Path_490" data-name="Path 490" d="M159.314,92.184a2.8,2.8,0,1,1-2.8-2.8A2.8,2.8,0,0,1,159.314,92.184Z" transform="translate(100.591 55.653)" fill="#ccf381"/>
      <circle id="Ellipse_48" data-name="Ellipse 48" cx="2.797" cy="2.797" r="2.797" transform="translate(76.61 177.812)" fill="#ccf381"/>
      <path id="Path_491" data-name="Path 491" d="M95.056,106.4a2.8,2.8,0,1,1-2.8-2.8A2.8,2.8,0,0,1,95.056,106.4Z" transform="translate(16.765 74.204)" fill="#ccf381"/>
      <path id="Path_492" data-name="Path 492" d="M107.906,106.4a2.8,2.8,0,1,1-2.8-2.8A2.8,2.8,0,0,1,107.906,106.4Z" transform="translate(33.53 74.204)" fill="#ccf381"/>
      <circle id="Ellipse_49" data-name="Ellipse 49" cx="2.797" cy="2.797" r="2.797" transform="translate(165.461 177.812)" fill="#ccf381"/>
      <circle id="Ellipse_50" data-name="Ellipse 50" cx="2.797" cy="2.797" r="2.797" transform="translate(195.078 177.812)" fill="#ccf381"/>
      <path id="Path_493" data-name="Path 493" d="M146.462,106.4a2.8,2.8,0,1,1-2.8-2.8A2.8,2.8,0,0,1,146.462,106.4Z" transform="translate(83.826 74.204)" fill="#ccf381"/>
      <circle id="Ellipse_51" data-name="Ellipse 51" cx="2.797" cy="2.797" r="2.797" transform="translate(254.312 177.812)" fill="#ccf381"/>
      <circle id="Ellipse_52" data-name="Ellipse 52" cx="2.797" cy="2.797" r="2.797" transform="translate(76.61 210.584)" fill="#ccf381"/>
      <path id="Path_494" data-name="Path 494" d="M95.056,120.626a2.8,2.8,0,1,1-2.8-2.8A2.8,2.8,0,0,1,95.056,120.626Z" transform="translate(16.765 92.755)" fill="#ccf381"/>
      <path id="Path_495" data-name="Path 495" d="M107.906,120.626a2.8,2.8,0,1,1-2.8-2.8A2.8,2.8,0,0,1,107.906,120.626Z" transform="translate(33.53 92.755)" fill="#ccf381"/>
      <circle id="Ellipse_53" data-name="Ellipse 53" cx="2.797" cy="2.797" r="2.797" transform="translate(165.461 210.584)" fill="#ccf381"/>
      <circle id="Ellipse_54" data-name="Ellipse 54" cx="2.797" cy="2.797" r="2.797" transform="translate(195.078 210.584)" fill="#ccf381"/>
      <path id="Path_496" data-name="Path 496" d="M146.462,120.626a2.8,2.8,0,1,1-2.8-2.8A2.8,2.8,0,0,1,146.462,120.626Z" transform="translate(83.826 92.755)" fill="#fff"/>
      <circle id="Ellipse_55" data-name="Ellipse 55" cx="2.797" cy="2.797" r="2.797" transform="translate(254.312 210.584)" fill="#ccf381"/>
      <path id="Path_497" data-name="Path 497" d="M82.2,134.847a2.8,2.8,0,1,1-2.8-2.8A2.8,2.8,0,0,1,82.2,134.847Z" transform="translate(0 111.306)" fill="#ccf381"/>
      <path id="Path_498" data-name="Path 498" d="M95.056,134.847a2.8,2.8,0,1,1-2.8-2.8A2.8,2.8,0,0,1,95.056,134.847Z" transform="translate(16.765 111.306)" fill="#ccf381"/>
      <path id="Path_499" data-name="Path 499" d="M107.906,134.847a2.8,2.8,0,1,1-2.8-2.8A2.8,2.8,0,0,1,107.906,134.847Z" transform="translate(33.53 111.306)" fill="#ccf381"/>
      <path id="Path_500" data-name="Path 500" d="M120.758,134.847a2.8,2.8,0,1,1-2.8-2.8A2.8,2.8,0,0,1,120.758,134.847Z" transform="translate(50.295 111.306)" fill="#ccf381"/>
      <path id="Path_501" data-name="Path 501" d="M133.61,134.847a2.8,2.8,0,1,1-2.8-2.8A2.8,2.8,0,0,1,133.61,134.847Z" transform="translate(67.061 111.306)" fill="#ccf381"/>
      <path id="Path_502" data-name="Path 502" d="M146.462,134.847a2.8,2.8,0,1,1-2.8-2.8A2.8,2.8,0,0,1,146.462,134.847Z" transform="translate(83.826 111.306)" fill="#ccf381"/>
      <path id="Path_503" data-name="Path 503" d="M159.314,134.847a2.8,2.8,0,1,1-2.8-2.8A2.8,2.8,0,0,1,159.314,134.847Z" transform="translate(100.591 111.306)" fill="#ccf381"/>
      <circle id="Ellipse_56" data-name="Ellipse 56" cx="2.797" cy="2.797" r="2.797" transform="translate(76.61 276.129)" fill="#ccf381"/>
      <path id="Path_504" data-name="Path 504" d="M95.056,149.066a2.8,2.8,0,1,1-2.8-2.8A2.8,2.8,0,0,1,95.056,149.066Z" transform="translate(16.765 129.859)" fill="#ccf381"/>
      <path id="Path_505" data-name="Path 505" d="M107.906,149.066a2.8,2.8,0,1,1-2.8-2.8A2.8,2.8,0,0,1,107.906,149.066Z" transform="translate(33.53 129.859)" fill="#fff"/>
      <circle id="Ellipse_57" data-name="Ellipse 57" cx="2.797" cy="2.797" r="2.797" transform="translate(165.461 276.129)" fill="#ccf381"/>
      <circle id="Ellipse_58" data-name="Ellipse 58" cx="2.797" cy="2.797" r="2.797" transform="translate(195.078 276.129)" fill="#ccf381"/>
      <path id="Path_506" data-name="Path 506" d="M146.462,149.066a2.8,2.8,0,1,1-2.8-2.8A2.8,2.8,0,0,1,146.462,149.066Z" transform="translate(83.826 129.859)" fill="#ccf381"/>
      <circle id="Ellipse_59" data-name="Ellipse 59" cx="2.797" cy="2.797" r="2.797" transform="translate(254.312 276.129)" fill="#ccf381"/>
    </g>
    <g id="Group_451" data-name="Group 451" transform="translate(-13912.501 -12789.865)">
      <g id="flower" transform="translate(13795.605 13974.96)">
        <g id="logo_shape" data-name="logo shape" transform="translate(493 -105.736)">
          <g id="Ellipse_8" data-name="Ellipse 8" transform="translate(70.812 0) rotate(60)" fill="#1d1455" stroke="#ccf381" stroke-width="2">
            <ellipse cx="81.802" cy="34.539" rx="81.802" ry="34.539" stroke="none"/>
            <ellipse cx="81.802" cy="34.539" rx="80.802" ry="33.539" fill="none"/>
          </g>
          <g id="Ellipse_9" data-name="Ellipse 9" transform="translate(0 52.567)" fill="#1d1455" stroke="#ccf381" stroke-width="2">
            <ellipse cx="81.238" cy="34.626" rx="81.238" ry="34.626" stroke="none"/>
            <ellipse cx="81.238" cy="34.626" rx="80.238" ry="33.626" fill="none"/>
          </g>
          <g id="Ellipse_10" data-name="Ellipse 10" transform="translate(152.615 34.539) rotate(120)" fill="#1d1455" stroke="#ccf381" stroke-width="2">
            <ellipse cx="81.802" cy="34.539" rx="81.802" ry="34.539" stroke="none"/>
            <ellipse cx="81.802" cy="34.539" rx="80.802" ry="33.539" fill="none"/>
          </g>
        </g>
        <path id="Union_3" data-name="Union 3" d="M-12311.3-13595.221c-15.6,14.455-30.985,20.806-40.9,15.08-10.031-5.789-12.157-22.607-7.224-43.686-20.4-6.29-33.679-16.521-33.679-28.076,0-11.479,13.107-21.654,33.29-27.955-4.423-20.271-2.145-36.335,7.612-41.967,9.914-5.726,25.3.627,40.9,15.082,15.6-14.455,30.986-20.808,40.9-15.082,9.811,5.662,12.06,21.875,7.539,42.3,19.584,6.322,32.236,16.342,32.236,27.62,0,11.354-12.823,21.433-32.63,27.747,5.034,21.232,2.938,38.2-7.146,44.015a16.288,16.288,0,0,1-8.271,2.092C-12287.933-13578.047-12299.555-13584.337-12311.3-13595.221Zm8.976,4.949a69.56,69.56,0,0,0,9.156,5.924,40.7,40.7,0,0,0,8.433,3.432c5.287,1.424,9.777,1.1,13.337-.954s6.082-5.783,7.5-11.072a40.7,40.7,0,0,0,1.244-9.019,69.3,69.3,0,0,0-.551-10.89,101.988,101.988,0,0,0-1.954-10.714,148.735,148.735,0,0,1-26.051,5.16,154.353,154.353,0,0,1-18.629,21.812Q-12306.088-13593.121-12302.327-13590.271Zm-57.063-22.579a69.277,69.277,0,0,0-.552,10.886,40.7,40.7,0,0,0,1.244,9.022c1.413,5.289,3.936,9.015,7.5,11.072s8.05,2.378,13.337.954a40.7,40.7,0,0,0,8.433-3.432,69.56,69.56,0,0,0,9.156-5.924q3.754-2.843,7.519-6.32a154.161,154.161,0,0,1-18.535-21.681,151.294,151.294,0,0,1-26.217-4.98A101.292,101.292,0,0,0-12359.391-13612.851Zm37.979,4.066a137.815,137.815,0,0,0,10.109,10.823,138.205,138.205,0,0,0,10.112-10.823q3.76-4.462,7.313-9.344c-5.788.558-11.807.853-17.989.853-5.751,0-11.364-.255-16.777-.739Q-12325.133-13613.2-12321.411-13608.784Zm9.546-10.49a184.719,184.719,0,0,0,19.54-1.018q4.837-6.861,9.2-14.421c3.109-5.387,5.912-10.826,8.384-16.27-2.472-5.443-5.274-10.883-8.384-16.269a187.642,187.642,0,0,0-10.625-16.4c-5.9-.58-11.955-.872-18.118-.872-5.743,0-11.394.254-16.909.757a187.892,187.892,0,0,0-10.708,16.519c-3.109,5.385-5.912,10.825-8.385,16.27,2.473,5.443,5.275,10.883,8.385,16.269q4.395,7.611,9.295,14.546C-12324.226-13619.574-12318.1-13619.274-12311.865-13619.274Zm-31.267-2.688q5.051.91,10.308,1.514c-2.9-4.187-5.707-8.616-8.389-13.261-2.865-4.963-5.446-9.932-7.735-14.843q-2.164,4.964-3.954,9.914a139.314,139.314,0,0,0-4.139,13.443A136.846,136.846,0,0,0-12343.132-13621.963Zm61.74-11.751c-2.651,4.593-5.427,8.974-8.29,13.119q4.617-.564,9.083-1.368a135.357,135.357,0,0,0,14.956-3.543q-1.613-6.36-4.06-13.133-1.787-4.945-3.955-9.915C-12275.946-13643.643-12278.526-13638.676-12281.392-13633.714Zm-87.135-40.833a68.688,68.688,0,0,0-9.636,4.977,40.54,40.54,0,0,0-7.141,5.6c-3.849,3.881-5.8,7.939-5.8,12.068s1.954,8.188,5.8,12.071a40.307,40.307,0,0,0,7.141,5.6,68.07,68.07,0,0,0,9.636,4.977,99.48,99.48,0,0,0,9.572,3.488,154.207,154.207,0,0,1,8.9-25.212,151.94,151.94,0,0,1-9.312-26.921Q-12364.216-13676.382-12368.526-13674.547Zm104.792,48.448q4.5-1.441,8.53-3.159a68.109,68.109,0,0,0,9.635-4.977,40.378,40.378,0,0,0,7.137-5.6c3.854-3.884,5.8-7.942,5.8-12.071s-1.95-8.187-5.8-12.068a40.612,40.612,0,0,0-7.137-5.6,68.728,68.728,0,0,0-9.635-4.977q-3.836-1.633-8.109-3.021a152.462,152.462,0,0,1-9.233,26.585A154.524,154.524,0,0,1-12263.734-13626.1Zm-89.168-37.225q1.787,4.944,3.955,9.913c2.289-4.91,4.869-9.879,7.734-14.841,3.11-5.388,6.4-10.49,9.789-15.256q-5.977.637-11.708,1.668a136.485,136.485,0,0,0-14.326,3.354A136.757,136.757,0,0,0-12352.9-13663.323Zm71.511-4.928c2.865,4.962,5.445,9.93,7.734,14.84q2.165-4.964,3.955-9.915a137.235,137.235,0,0,0,4.48-14.842,134.839,134.839,0,0,0-15.377-3.671q-5.139-.924-10.486-1.533C-12287.726-13678.646-12284.473-13673.588-12281.392-13668.251Zm16.616-11.87q1.017-4.63,1.563-8.992a69.288,69.288,0,0,0,.551-10.887,40.672,40.672,0,0,0-1.24-9.019c-1.417-5.293-3.936-9.019-7.5-11.075s-8.047-2.378-13.337-.955a40.757,40.757,0,0,0-8.433,3.433,69.177,69.177,0,0,0-9.152,5.924q-3.759,2.843-7.523,6.322a152.032,152.032,0,0,1,17.186,19.814A149.662,149.662,0,0,1-12264.775-13680.121Zm-86.428-39.973c-3.56,2.057-6.082,5.782-7.5,11.075a40.9,40.9,0,0,0-1.24,9.019,69.348,69.348,0,0,0,.552,10.89q.524,4.206,1.492,8.673a152.041,152.041,0,0,1,28.043-5.239,151.9,151.9,0,0,1,17.1-19.694q-3.76-3.473-7.523-6.321a69.177,69.177,0,0,0-9.152-5.924,40.757,40.757,0,0,0-8.433-3.433,23.5,23.5,0,0,0-6.067-.869A14.3,14.3,0,0,0-12351.2-13720.094Zm55.865,34.282q-2.861-3.814-5.855-7.368A137.8,137.8,0,0,0-12311.3-13704a137.624,137.624,0,0,0-10.109,10.822q-2.953,3.5-5.778,7.266c4.963-.4,10.085-.615,15.324-.615C-12306.2-13686.529-12300.675-13686.281-12295.338-13685.812Zm-25.9,15.052,31.8,18.348-31.8,18.344Z" transform="translate(12886.104 13633.358)" fill="url(#linear-gradient)"/>
      </g>
      <line id="Line_41" data-name="Line 41" x2="60" transform="translate(14265.314 13910.762) rotate(140)" fill="none" stroke="#fff" stroke-width="2" opacity="0.23"/>
      <line id="Line_43" data-name="Line 43" x2="60" transform="translate(14475.314 13750.762) rotate(140)" fill="none" stroke="#ccf381" stroke-width="2" style="mix-blend-mode: overlay;isolation: isolate"/>
      <line id="Line_42" data-name="Line 42" x2="30" transform="translate(14505.314 14036.762) rotate(140)" fill="none" stroke="#ccf381" stroke-width="2" opacity="0.28"/>
    </g>
  </g>
</svg>
