<svg xmlns="http://www.w3.org/2000/svg" xmlns:xlink="http://www.w3.org/1999/xlink" width="383.296" height="298.877" viewBox="0 0 383.296 298.877">
  <defs>
    <clipPath id="clip-path">
      <path id="Path_290" data-name="Path 290" d="M337.042,374.693l.1-37.734c.411-1.525.74-7.124,1.617-11.025,1.48-6.541-4.357-14.424-4.768-14.679-1.636-1.023-5.115-1-5.115-1s-3.389-3.9-6.459-5.134a15.215,15.215,0,0,0-6.54-.813,31.23,31.23,0,0,0-7.765-4.7,6.388,6.388,0,0,0-6.54,1.233l-3.818,5.946a4.451,4.451,0,0,0,.521,5.562c1.827,1.8,4.165.959,5.344.959,1.635,0,2.247-1.846,2.247-1.846s.4,9.609,0,10.833l-.009.009c-.42,1.224-3.471,4.083-3.471,4.083l-10.212-13.519a98.711,98.711,0,0,1-9.2-15.172,6.98,6.98,0,0,0-1.152-1.791c-1.79-2.027-5.626-2.621-6.622,1.133a7.349,7.349,0,0,0,.164,3.618c4.275,12.614,9.71,22.15,14.67,32.088,2.95,5.9,1.854,5.828,3.325,8.5-.173.119-.091.338-.274.447-.721,2.868-1.224,5.746-1.945,8.614a39.468,39.468,0,0,0-3.27-10.395,23.434,23.434,0,0,0,.447-6.074,7.984,7.984,0,0,0-2.53-5.39,5.246,5.246,0,0,0-2.977-1.159,3.108,3.108,0,0,0-3.279,2.657,31.389,31.389,0,0,1-.859,4.622,46.165,46.165,0,0,1-2.357,5.8c0,3.809,2.357,3.187,4.074,18.506,1.334,11.93,16.7,19.812,25.065,28.426l8.914,28.042a172.869,172.869,0,0,0,29.751-15.62Z" transform="translate(-275.049 -294.294)" fill="#fff"/>
    </clipPath>
    <clipPath id="clip-path-2">
      <path id="Path_462" data-name="Path 462" d="M443.086,312.544a61.332,61.332,0,0,1-.831,10.13c-2.475,14.77-10.239,25.548-19.429,25.548a12.116,12.116,0,0,1-2.439-.255c-10.029-2.129-17.812-17.173-17.812-35.423,0-19.7,9.07-26.672,20.251-26.672S443.086,292.841,443.086,312.544Z" transform="translate(-402.576 -285.872)" fill="#fff" stroke="#1a3d5b" stroke-miterlimit="10" stroke-width="1"/>
    </clipPath>
  </defs>
  <g id="Group_487" data-name="Group 487" transform="translate(-28.757 -84.333)">
    <g id="Plants" transform="translate(28.757 169.393)">
      <path id="Path_242" data-name="Path 242" d="M32.121,262.241c-.171-.111-.128-.188,0,0Z" transform="translate(-29.233 -200.148)" fill="#1a3d5b" opacity="0.2"/>
      <g id="Group_329" data-name="Group 329">
        <path id="Path_243" data-name="Path 243" d="M112.342,244.13a15.642,15.642,0,0,1-10.73,12.352l-2.117.691c-7.614,10.781-20.965,15.382-32.344,8.7l-3.329-1.955L54.5,252.837l-.111.026c-2.954.615-6.291.162-8.477-1.921a2.9,2.9,0,1,1-4.7-2.774c-1.878,1.656-4.78.9-6.59-.913a56.939,56.939,0,0,1,1.665-14.759,59.517,59.517,0,0,1,2.945-8.75,61.641,61.641,0,0,1,3.065-6.266c.085-.171.188-.35.29-.521a75.015,75.015,0,0,1,5.677-8.553l1.076-.973c.811-.743,1.63-1.468,2.458-2.2.051-.043.1-.094.154-.137q1.985-1.741,4.021-3.44c2.091-1.75,4.217-3.466,6.36-5.173.068-.06.145-.111.213-.171,1.835-1.451,3.688-2.894,5.532-4.328.93-.717,1.852-1.434,2.783-2.151a7.633,7.633,0,0,1,1.639.384c2.279.794,2.672,2.885,4.251,4.319,2.1,1.921,4.115-1.306,7.35-1.2,9.945.307,6.086,10.508,10.944,9.228,20.974-5.532,17.448,21.3,8.331,27.188C108.748,234.2,113.383,237.147,112.342,244.13Z" transform="translate(-29.614 -189.566)" opacity="0.2"/>
        <g id="Group_315" data-name="Group 315" transform="translate(2.255 10.194)">
          <ellipse id="Ellipse_35" data-name="Ellipse 35" cx="35.374" cy="34.936" rx="35.374" ry="34.936" fill="#fff" stroke="#1a3d5b" stroke-miterlimit="10" stroke-width="1"/>
          <ellipse id="Ellipse_36" data-name="Ellipse 36" cx="32.253" cy="31.854" rx="32.253" ry="31.854" transform="translate(3.12 1.668)" fill="#1a3d5b" stroke="#fff" stroke-miterlimit="10" stroke-width="1"/>
        </g>
        <g id="Group_328" data-name="Group 328">
          <g id="Group_327" data-name="Group 327">
            <g id="Group_326" data-name="Group 326">
              <g id="Group_325" data-name="Group 325">
                <g id="Group_317" data-name="Group 317">
                  <g id="Group_316" data-name="Group 316">
                    <path id="Path_244" data-name="Path 244" d="M31.727,245.793c-2.031,1.261-2.612,5.508-1.011,7.346s4.659.417,5.285-2.448a.954.954,0,0,0,1.725.24,1.969,1.969,0,0,0,.118-1.8c-.153-.129-.1-.222,0,0,1.039.825,2.831-.074,3.08-1.84-.761,4.692,3.506,8.79,6.65,6.4-.928,1.994.288,4.618,1.914,5.122s3.365-.453,4.919-1.518,3.142-2.277,4.841-2.352c1.482-.072,2.855.764,4.264,1.261,4.49,1.563,9.745-.508,13.18-5.216,2.27,3.884,7.862,2.454,9.361-2.382.315,2.265,1.865,3.988,3.593,4.011s3.473-1.656,4.064-3.906v.029c.038,2.143,1.95,3.193,3.316,1.814a7.987,7.987,0,0,0,1.968-7.573c2.327-.093,4.578-2.791,4.93-5.917s-1.219-6.261-3.463-6.874c3.851-1.6,6.869-6.846,7.013-12.2s-2.609-10.318-6.392-11.568a4.028,4.028,0,0,0-4.342.908c-.448-3.047-1.832-5.769-3.869-7.137-3.246-2.193-7.762-.691-10.178,3.391a8.028,8.028,0,0,0,.185-7.158,3.725,3.725,0,0,0-5.013-1.848c-.39-3.268-2.913-5.594-5.382-4.958s-4.455,4.127-4.244,7.436c-.23-2.665-3.374-3.322-4.507-1.088.1.2-.048.082,0,0-1.567-3.294-4.762-4.987-7.725-4.024-3.151,1.033-5.8,4.99-6.2,9.305a5.577,5.577,0,0,0-7.678.213c-2.333,2.1-3.677,6.1-3.27,9.67-2.452-2.42-6.576-1.1-8.257,2.64s-.522,9.037,2.318,10.6c-1.959.3-3.681,2.895-3.683,5.524s1.732,4.885,3.695,4.814c-1.98.171-3.844,2.509-4.133,5.166S29.831,245.208,31.727,245.793Z" transform="translate(-28.757 -189.521)" fill="#95faff"/>
                  </g>
                </g>
                <g id="Group_324" data-name="Group 324" transform="translate(7.27 12.994)" opacity="0.2">
                  <g id="Group_318" data-name="Group 318" transform="translate(22.119 27.182)">
                    <path id="Path_245" data-name="Path 245" d="M69.286,240.44a3.676,3.676,0,0,0-3.456-.851,4.094,4.094,0,0,0-2.587,3.172c-.275,1.543.439,3.249,1.622,3.543,1.439.357,2.916-1.253,4.386-1.077a10.511,10.511,0,0,1,1.513.494c2.105.592,4.237-1.3,6.026-3.08a8.281,8.281,0,0,0,1.7-2.127,3.461,3.461,0,0,0,.229-2.808c-.52-1.15-1.8-1.245-2.869-1.024a11.466,11.466,0,0,0-5.946,3.5q.095-.647.189-1.294Z" transform="translate(-63.184 -236.586)" fill="#fff"/>
                  </g>
                  <g id="Group_319" data-name="Group 319" transform="translate(54.981 25.654)">
                    <path id="Path_246" data-name="Path 246" d="M105.753,235.973a4.749,4.749,0,0,0-1.828-1.129,1.762,1.762,0,0,0-1.93.8,2.811,2.811,0,0,0,.475,3.21,4.476,4.476,0,0,0,2.678,1c.973.132,2.2.1,2.706-1.026a2.459,2.459,0,0,0-.411-2.459,4.142,4.142,0,0,0-1.9-1.09Z" transform="translate(-101.682 -234.796)" fill="#fff"/>
                  </g>
                  <g id="Group_323" data-name="Group 323">
                    <path id="Path_247" data-name="Path 247" d="M49.2,215.018a9.329,9.329,0,0,0-4.043,6.244c-.153.808-.152,1.811.388,2.2a1.428,1.428,0,0,0,1.327-.038l5.669-2.052a8.537,8.537,0,0,0-2.571,1.875,4.269,4.269,0,0,0-1.025,3.343,2.459,2.459,0,0,0,2.57,2.08A5.537,5.537,0,0,0,54.65,226.9a5.76,5.76,0,0,0,2.027-3.8c.047-1.541-1.448-2.876-2.394-1.832a21.032,21.032,0,0,0,6.115-3.884,7.307,7.307,0,0,0,1.788-2.195,3.754,3.754,0,0,0,.232-2.942c-1.846-4.345-4.4,2.351-5.6,3.007C54.555,216.5,52.08,213.323,49.2,215.018Z" transform="translate(-38.414 -205.628)" fill="#fff"/>
                    <path id="Path_248" data-name="Path 248" d="M38.948,237.827a2.716,2.716,0,0,0,.449,2.462,1.115,1.115,0,0,0,1.809-.582,6.881,6.881,0,0,0-3.431,2.636c-.809,1.4-.658,3.749.585,4.195.776.277,1.62-.263,2.351-.81a48.7,48.7,0,0,0,5.913-5.25,2.7,2.7,0,0,0,2.121,3.534c1.4.067,2.727-.979,3.947-1.985,1.5-1.233,3.219-3.082,2.87-5.2a2.554,2.554,0,0,0-3.61-1.922c-1.449.636-2.559,2.183-3.594,3.664.818-1.517-.265-3.628-1.645-3.782-1.341-.15-2.7.977-3.563,2.291,1.586-1.193,1.99-4.074-.1-4.276C41.685,232.667,39.3,236.355,38.948,237.827Z" transform="translate(-37.273 -208.849)" fill="#fff"/>
                    <path id="Path_249" data-name="Path 249" d="M89.045,228.064c-1.173-.492-2.674.581-3.022,2.161s.539,3.3,1.783,3.472a3.751,3.751,0,0,0-2.417,1.734,2.955,2.955,0,0,0-.535,1.824,1.665,1.665,0,0,0,1.654,1.534,4.534,4.534,0,0,0,2.208-.918,3.733,3.733,0,0,0-2.173.929,2.175,2.175,0,0,0-.368,2.554c.44.544,1.184.4,1.8.147a9.726,9.726,0,0,0,3.741-2.877,3,3,0,0,0,3.062,1.472,2.965,2.965,0,0,0,1.828-3.327,2.143,2.143,0,0,0-1.879-1.656,4.91,4.91,0,0,0-2.457.638,6.292,6.292,0,0,0,2.017-2.883c.318-1.228-.293-2.813-1.287-2.655-1.117.179-1.722,2.149-2.614,2.9C89.323,231.879,91.406,229.053,89.045,228.064Z" transform="translate(-44.236 -208.139)" fill="#fff"/>
                    <g id="Group_320" data-name="Group 320" transform="translate(23.115 14.589)">
                      <path id="Path_250" data-name="Path 250" d="M66.069,222.489c-1.288,1.173-1.766,3.358-1.714,5.3.058,2.146.784,4.4,2.317,5.168,2.016,1.012,4.6-1.306,5.027-4.125a6.9,6.9,0,0,0-2.911-6.759A2.444,2.444,0,0,0,66.069,222.489Z" transform="translate(-64.352 -221.834)" fill="#fff"/>
                    </g>
                    <g id="Group_321" data-name="Group 321" transform="translate(35.092 9.681)">
                      <path id="Path_251" data-name="Path 251" d="M82.393,218.454l.514.545a2.245,2.245,0,0,0-3.708-.147,4.07,4.07,0,0,0-.1,4.752,2.314,2.314,0,0,0,3.723-.57,3.41,3.41,0,0,0,4.464-1.333c1.064-1.656.88-4.417-.511-5.351s-3.565.728-3.453,2.778q-.3-.415-.6-.831Z" transform="translate(-78.382 -216.084)" fill="#fff"/>
                    </g>
                    <g id="Group_322" data-name="Group 322" transform="translate(52.118 14.143)">
                      <path id="Path_252" data-name="Path 252" d="M100.957,221.489a11.753,11.753,0,0,0-2.5,4.5c-.4,1.763.168,3.94,1.53,4.3s2.669-1.152,3.473-2.691a6.882,6.882,0,0,0,.915-4.609c-.375-1.508-2.09-2.309-2.977-1.076Z" transform="translate(-98.328 -221.311)" fill="#fff"/>
                    </g>
                    <path id="Path_253" data-name="Path 253" d="M74.365,209.942a1.972,1.972,0,0,0-3.182-.928,4.367,4.367,0,0,0-1.07,4.294,3.362,3.362,0,0,0,2.858,2.487,3.152,3.152,0,0,0,3.082-3.49,2.744,2.744,0,0,0,2.931,1.244,7.565,7.565,0,0,0,3.094-1.66c1.314-1.029,2.722-2.585,2.621-4.475a2.725,2.725,0,0,0-2.391-2.668,4.386,4.386,0,0,0-3.288,1.748c-.726.819-1.335,1.811-2.117,2.537a2.259,2.259,0,0,1-2.651.639Z" transform="translate(-42.055 -204.743)" fill="#fff"/>
                  </g>
                </g>
              </g>
            </g>
          </g>
        </g>
      </g>
    </g>
    <g id="Keyboard" transform="translate(128.569 239.609)">
      <g id="Group_338" data-name="Group 338">
        <g id="Group_337" data-name="Group 337" transform="translate(0 0.841)">
          <rect id="Rectangle_263" data-name="Rectangle 263" width="196.905" height="82.928" fill="#00f2fe" stroke="#1a3d5b" stroke-linecap="round" stroke-linejoin="round" stroke-width="1"/>
          <g id="Group_336" data-name="Group 336" transform="translate(4.114 5.018)">
            <rect id="Rectangle_264" data-name="Rectangle 264" width="18.527" height="10.256" fill="#fff" stroke="#1a3d5b" stroke-miterlimit="10" stroke-width="1"/>
            <rect id="Rectangle_265" data-name="Rectangle 265" width="29.18" height="10.256" transform="translate(159.056 49.992)" fill="#fff" stroke="#1a3d5b" stroke-miterlimit="10" stroke-width="1"/>
            <rect id="Rectangle_266" data-name="Rectangle 266" width="18.012" height="10.256" transform="translate(170.225 12.807)" fill="#fff" stroke="#1a3d5b" stroke-miterlimit="10" stroke-width="1"/>
            <rect id="Rectangle_267" data-name="Rectangle 267" width="18.527" height="10.256" transform="translate(0 37.347)" fill="#fff" stroke="#1a3d5b" stroke-miterlimit="10" stroke-width="1"/>
            <rect id="Rectangle_268" data-name="Rectangle 268" width="14.998" height="10.256" transform="translate(0 24.996)" fill="#fff" stroke="#1a3d5b" stroke-miterlimit="10" stroke-width="1"/>
            <g id="Group_330" data-name="Group 330" transform="translate(0 12.498)">
              <rect id="Rectangle_269" data-name="Rectangle 269" width="10.256" height="10.256" fill="#fff" stroke="#1a3d5b" stroke-miterlimit="10" stroke-width="1"/>
              <rect id="Rectangle_270" data-name="Rectangle 270" width="10.256" height="10.256" transform="translate(13.089)" fill="#fff" stroke="#1a3d5b" stroke-miterlimit="10" stroke-width="1"/>
              <rect id="Rectangle_271" data-name="Rectangle 271" width="10.256" height="10.256" transform="translate(26.179)" fill="#fff" stroke="#1a3d5b" stroke-miterlimit="10" stroke-width="1"/>
              <rect id="Rectangle_272" data-name="Rectangle 272" width="10.256" height="10.256" transform="translate(39.268)" fill="#fff" stroke="#1a3d5b" stroke-miterlimit="10" stroke-width="1"/>
              <rect id="Rectangle_273" data-name="Rectangle 273" width="10.256" height="10.256" transform="translate(52.357)" fill="#fff" stroke="#1a3d5b" stroke-miterlimit="10" stroke-width="1"/>
              <rect id="Rectangle_274" data-name="Rectangle 274" width="10.256" height="10.256" transform="translate(65.446)" fill="#fff" stroke="#1a3d5b" stroke-miterlimit="10" stroke-width="1"/>
              <rect id="Rectangle_275" data-name="Rectangle 275" width="10.256" height="10.256" transform="translate(78.536)" fill="#fff" stroke="#1a3d5b" stroke-miterlimit="10" stroke-width="1"/>
              <rect id="Rectangle_276" data-name="Rectangle 276" width="10.256" height="10.256" transform="translate(91.625)" fill="#fff" stroke="#1a3d5b" stroke-miterlimit="10" stroke-width="1"/>
              <rect id="Rectangle_277" data-name="Rectangle 277" width="10.256" height="10.256" transform="translate(104.714)" fill="#fff" stroke="#1a3d5b" stroke-miterlimit="10" stroke-width="1"/>
              <rect id="Rectangle_278" data-name="Rectangle 278" width="10.256" height="10.256" transform="translate(117.803)" fill="#fff" stroke="#1a3d5b" stroke-miterlimit="10" stroke-width="1"/>
              <rect id="Rectangle_279" data-name="Rectangle 279" width="10.256" height="10.256" transform="translate(130.893)" fill="#fff" stroke="#1a3d5b" stroke-miterlimit="10" stroke-width="1"/>
              <rect id="Rectangle_280" data-name="Rectangle 280" width="10.256" height="10.256" transform="translate(143.982)" fill="#fff" stroke="#1a3d5b" stroke-miterlimit="10" stroke-width="1"/>
              <rect id="Rectangle_281" data-name="Rectangle 281" width="10.256" height="10.256" transform="translate(157.071)" fill="#fff" stroke="#1a3d5b" stroke-miterlimit="10" stroke-width="1"/>
            </g>
            <g id="Group_331" data-name="Group 331" transform="translate(0 62.637)">
              <rect id="Rectangle_282" data-name="Rectangle 282" width="10.256" height="10.256" fill="#fff" stroke="#1a3d5b" stroke-miterlimit="10" stroke-width="1"/>
              <rect id="Rectangle_283" data-name="Rectangle 283" width="10.256" height="10.256" transform="translate(13.089)" fill="#fff" stroke="#1a3d5b" stroke-miterlimit="10" stroke-width="1"/>
              <rect id="Rectangle_284" data-name="Rectangle 284" width="10.256" height="10.256" transform="translate(26.179)" fill="#fff" stroke="#1a3d5b" stroke-miterlimit="10" stroke-width="1"/>
              <rect id="Rectangle_285" data-name="Rectangle 285" width="12.513" height="10.256" transform="translate(39.268)" fill="#fff" stroke="#1a3d5b" stroke-miterlimit="10" stroke-width="1"/>
              <rect id="Rectangle_286" data-name="Rectangle 286" width="62.613" height="10.256" transform="translate(54.615)" fill="#fff" stroke="#1a3d5b" stroke-miterlimit="10" stroke-width="1"/>
              <rect id="Rectangle_287" data-name="Rectangle 287" width="10.256" height="10.256" transform="translate(138.278)" fill="#fff" stroke="#1a3d5b" stroke-miterlimit="10" stroke-width="1"/>
              <rect id="Rectangle_288" data-name="Rectangle 288" width="10.256" height="10.256" transform="translate(151.367)" fill="#fff" stroke="#1a3d5b" stroke-miterlimit="10" stroke-width="1"/>
              <rect id="Rectangle_289" data-name="Rectangle 289" width="10.256" height="10.256" transform="translate(164.478)" fill="#fff" stroke="#1a3d5b" stroke-miterlimit="10" stroke-width="1"/>
              <rect id="Rectangle_290" data-name="Rectangle 290" width="15.923" height="10.256" transform="translate(119.788)" fill="#fff" stroke="#1a3d5b" stroke-miterlimit="10" stroke-width="1"/>
              <rect id="Rectangle_291" data-name="Rectangle 291" width="10.256" height="10.256" transform="translate(177.981)" fill="#fff" stroke="#1a3d5b" stroke-miterlimit="10" stroke-width="1"/>
            </g>
            <g id="Group_332" data-name="Group 332" transform="translate(17.908 24.996)">
              <rect id="Rectangle_292" data-name="Rectangle 292" width="10.256" height="10.256" fill="#fff" stroke="#1a3d5b" stroke-miterlimit="10" stroke-width="1"/>
              <rect id="Rectangle_293" data-name="Rectangle 293" width="10.256" height="10.256" transform="translate(13.089)" fill="#fff" stroke="#1a3d5b" stroke-miterlimit="10" stroke-width="1"/>
              <rect id="Rectangle_294" data-name="Rectangle 294" width="10.256" height="10.256" transform="translate(26.179)" fill="#fff" stroke="#1a3d5b" stroke-miterlimit="10" stroke-width="1"/>
              <rect id="Rectangle_295" data-name="Rectangle 295" width="10.256" height="10.256" transform="translate(39.268)" fill="#fff" stroke="#1a3d5b" stroke-miterlimit="10" stroke-width="1"/>
              <rect id="Rectangle_296" data-name="Rectangle 296" width="10.256" height="10.256" transform="translate(52.357)" fill="#fff" stroke="#1a3d5b" stroke-miterlimit="10" stroke-width="1"/>
              <rect id="Rectangle_297" data-name="Rectangle 297" width="10.256" height="10.256" transform="translate(65.446)" fill="#fff" stroke="#1a3d5b" stroke-miterlimit="10" stroke-width="1"/>
              <rect id="Rectangle_298" data-name="Rectangle 298" width="10.256" height="10.256" transform="translate(78.536)" fill="#fff" stroke="#1a3d5b" stroke-miterlimit="10" stroke-width="1"/>
              <rect id="Rectangle_299" data-name="Rectangle 299" width="10.256" height="10.256" transform="translate(91.625)" fill="#fff" stroke="#1a3d5b" stroke-miterlimit="10" stroke-width="1"/>
              <rect id="Rectangle_300" data-name="Rectangle 300" width="10.256" height="10.256" transform="translate(104.714)" fill="#fff" stroke="#1a3d5b" stroke-miterlimit="10" stroke-width="1"/>
              <rect id="Rectangle_301" data-name="Rectangle 301" width="10.256" height="10.256" transform="translate(117.804)" fill="#fff" stroke="#1a3d5b" stroke-miterlimit="10" stroke-width="1"/>
              <rect id="Rectangle_302" data-name="Rectangle 302" width="10.256" height="10.256" transform="translate(130.893)" fill="#fff" stroke="#1a3d5b" stroke-miterlimit="10" stroke-width="1"/>
              <rect id="Rectangle_303" data-name="Rectangle 303" width="10.256" height="10.256" transform="translate(143.982)" fill="#fff" stroke="#1a3d5b" stroke-miterlimit="10" stroke-width="1"/>
              <path id="Path_254" data-name="Path 254" d="M368.741,307.924v22.752H358.488v-12.5h-3.007V307.924Z" transform="translate(-198.412 -307.922)" fill="#fff" stroke="#1a3d5b" stroke-miterlimit="10" stroke-width="1"/>
            </g>
            <g id="Group_333" data-name="Group 333" transform="translate(20.91 37.494)">
              <rect id="Rectangle_304" data-name="Rectangle 304" width="10.256" height="10.256" fill="#fff" stroke="#1a3d5b" stroke-miterlimit="10" stroke-width="1"/>
              <rect id="Rectangle_305" data-name="Rectangle 305" width="10.256" height="10.256" transform="translate(13.089)" fill="#fff" stroke="#1a3d5b" stroke-miterlimit="10" stroke-width="1"/>
              <rect id="Rectangle_306" data-name="Rectangle 306" width="10.256" height="10.256" transform="translate(26.178)" fill="#fff" stroke="#1a3d5b" stroke-miterlimit="10" stroke-width="1"/>
              <rect id="Rectangle_307" data-name="Rectangle 307" width="10.256" height="10.256" transform="translate(39.268)" fill="#fff" stroke="#1a3d5b" stroke-miterlimit="10" stroke-width="1"/>
              <rect id="Rectangle_308" data-name="Rectangle 308" width="10.256" height="10.256" transform="translate(52.357)" fill="#fff" stroke="#1a3d5b" stroke-miterlimit="10" stroke-width="1"/>
              <rect id="Rectangle_309" data-name="Rectangle 309" width="10.256" height="10.256" transform="translate(65.446)" fill="#fff" stroke="#1a3d5b" stroke-miterlimit="10" stroke-width="1"/>
              <rect id="Rectangle_310" data-name="Rectangle 310" width="10.256" height="10.256" transform="translate(78.535)" fill="#fff" stroke="#1a3d5b" stroke-miterlimit="10" stroke-width="1"/>
              <rect id="Rectangle_311" data-name="Rectangle 311" width="10.256" height="10.256" transform="translate(91.625)" fill="#fff" stroke="#1a3d5b" stroke-miterlimit="10" stroke-width="1"/>
              <rect id="Rectangle_312" data-name="Rectangle 312" width="10.256" height="10.256" transform="translate(104.714)" fill="#fff" stroke="#1a3d5b" stroke-miterlimit="10" stroke-width="1"/>
              <rect id="Rectangle_313" data-name="Rectangle 313" width="10.256" height="10.256" transform="translate(117.803)" fill="#fff" stroke="#1a3d5b" stroke-miterlimit="10" stroke-width="1"/>
              <rect id="Rectangle_314" data-name="Rectangle 314" width="10.256" height="10.256" transform="translate(130.893)" fill="#fff" stroke="#1a3d5b" stroke-miterlimit="10" stroke-width="1"/>
              <rect id="Rectangle_315" data-name="Rectangle 315" width="10.256" height="10.256" transform="translate(143.982)" fill="#fff" stroke="#1a3d5b" stroke-miterlimit="10" stroke-width="1"/>
            </g>
            <g id="Group_334" data-name="Group 334" transform="translate(15.347 49.992)">
              <rect id="Rectangle_316" data-name="Rectangle 316" width="10.256" height="10.256" fill="#fff" stroke="#1a3d5b" stroke-miterlimit="10" stroke-width="1"/>
              <rect id="Rectangle_317" data-name="Rectangle 317" width="10.256" height="10.256" transform="translate(13.089)" fill="#fff" stroke="#1a3d5b" stroke-miterlimit="10" stroke-width="1"/>
              <rect id="Rectangle_318" data-name="Rectangle 318" width="10.256" height="10.256" transform="translate(26.179)" fill="#fff" stroke="#1a3d5b" stroke-miterlimit="10" stroke-width="1"/>
              <rect id="Rectangle_319" data-name="Rectangle 319" width="10.256" height="10.256" transform="translate(39.268)" fill="#fff" stroke="#1a3d5b" stroke-miterlimit="10" stroke-width="1"/>
              <rect id="Rectangle_320" data-name="Rectangle 320" width="10.256" height="10.256" transform="translate(52.357)" fill="#fff" stroke="#1a3d5b" stroke-miterlimit="10" stroke-width="1"/>
              <rect id="Rectangle_321" data-name="Rectangle 321" width="10.256" height="10.256" transform="translate(65.446)" fill="#fff" stroke="#1a3d5b" stroke-miterlimit="10" stroke-width="1"/>
              <rect id="Rectangle_322" data-name="Rectangle 322" width="10.256" height="10.256" transform="translate(78.536)" fill="#fff" stroke="#1a3d5b" stroke-miterlimit="10" stroke-width="1"/>
              <rect id="Rectangle_323" data-name="Rectangle 323" width="10.256" height="10.256" transform="translate(91.625)" fill="#fff" stroke="#1a3d5b" stroke-miterlimit="10" stroke-width="1"/>
              <rect id="Rectangle_324" data-name="Rectangle 324" width="10.256" height="10.256" transform="translate(104.714)" fill="#fff" stroke="#1a3d5b" stroke-miterlimit="10" stroke-width="1"/>
              <rect id="Rectangle_325" data-name="Rectangle 325" width="10.256" height="10.256" transform="translate(117.803)" fill="#fff" stroke="#1a3d5b" stroke-miterlimit="10" stroke-width="1"/>
              <rect id="Rectangle_326" data-name="Rectangle 326" width="10.256" height="10.256" transform="translate(130.893)" fill="#fff" stroke="#1a3d5b" stroke-miterlimit="10" stroke-width="1"/>
            </g>
            <g id="Group_335" data-name="Group 335" transform="translate(20.91 0.619)">
              <rect id="Rectangle_327" data-name="Rectangle 327" width="10.256" height="10.256" fill="#fff" stroke="#1a3d5b" stroke-miterlimit="10" stroke-width="1"/>
              <rect id="Rectangle_328" data-name="Rectangle 328" width="10.256" height="10.256" transform="translate(13.089)" fill="#fff" stroke="#1a3d5b" stroke-miterlimit="10" stroke-width="1"/>
              <rect id="Rectangle_329" data-name="Rectangle 329" width="10.256" height="10.256" transform="translate(26.178)" fill="#fff" stroke="#1a3d5b" stroke-miterlimit="10" stroke-width="1"/>
              <rect id="Rectangle_330" data-name="Rectangle 330" width="10.256" height="10.256" transform="translate(39.268)" fill="#fff" stroke="#1a3d5b" stroke-miterlimit="10" stroke-width="1"/>
              <rect id="Rectangle_331" data-name="Rectangle 331" width="10.256" height="10.256" transform="translate(52.357)" fill="#fff" stroke="#1a3d5b" stroke-miterlimit="10" stroke-width="1"/>
              <rect id="Rectangle_332" data-name="Rectangle 332" width="10.256" height="10.256" transform="translate(65.446)" fill="#fff" stroke="#1a3d5b" stroke-miterlimit="10" stroke-width="1"/>
              <rect id="Rectangle_333" data-name="Rectangle 333" width="10.256" height="10.256" transform="translate(78.535)" fill="#fff" stroke="#1a3d5b" stroke-miterlimit="10" stroke-width="1"/>
              <rect id="Rectangle_334" data-name="Rectangle 334" width="10.256" height="10.256" transform="translate(91.625)" fill="#fff" stroke="#1a3d5b" stroke-miterlimit="10" stroke-width="1"/>
              <rect id="Rectangle_335" data-name="Rectangle 335" width="10.256" height="10.256" transform="translate(104.714)" fill="#fff" stroke="#1a3d5b" stroke-miterlimit="10" stroke-width="1"/>
              <rect id="Rectangle_336" data-name="Rectangle 336" width="10.256" height="10.256" transform="translate(117.803)" fill="#fff" stroke="#1a3d5b" stroke-miterlimit="10" stroke-width="1"/>
              <rect id="Rectangle_337" data-name="Rectangle 337" width="10.256" height="10.256" transform="translate(130.893)" fill="#fff" stroke="#1a3d5b" stroke-miterlimit="10" stroke-width="1"/>
              <rect id="Rectangle_338" data-name="Rectangle 338" width="10.256" height="10.256" transform="translate(143.982)" fill="#fff" stroke="#1a3d5b" stroke-miterlimit="10" stroke-width="1"/>
              <rect id="Rectangle_339" data-name="Rectangle 339" width="10.256" height="10.256" transform="translate(157.071)" fill="#fff" stroke="#1a3d5b" stroke-miterlimit="10" stroke-width="1"/>
            </g>
            <rect id="Rectangle_340" data-name="Rectangle 340" width="12.424" height="10.256" transform="translate(0 49.992)" fill="#fff" stroke="#1a3d5b" stroke-miterlimit="10" stroke-width="1"/>
          </g>
        </g>
        <path id="Path_255" data-name="Path 255" d="M145.683,273.148l4.114-1.372H339.914l2.709,1.355Z" transform="translate(-145.683 -271.776)" fill="#1a3d5b"/>
      </g>
    </g>
    <g id="Hands" transform="translate(140.029 258.831)">
      <g id="Group_383" data-name="Group 383">
        <path id="Path_256" data-name="Path 256" d="M304.977,418.779l-4-24.115a19.7,19.7,0,0,0-5.421-9.441c-7.964-7.683-18.49-15.57-18.942-25.643-.691-15.391-3.09-14.93-2.834-18.729a46.142,46.142,0,0,0,2.74-5.634,32.833,32.833,0,0,0,1.161-4.558,3.111,3.111,0,0,1,3.449-2.433,5.286,5.286,0,0,1,2.894,1.357,8.015,8.015,0,0,1,2.168,5.549,23.725,23.725,0,0,1-.854,6.027,39.4,39.4,0,0,1,2.569,10.594c.913-2.817,1.6-5.66,2.518-8.468.188-.1.12-.324.3-.427-1.289-2.766-.2-2.612-2.749-8.7-4.294-10.244-9.083-20.12-12.506-32.993a7.318,7.318,0,0,1,.077-3.619c1.238-3.679,5.028-2.834,6.684-.691a7.071,7.071,0,0,1,1.024,1.861,99.408,99.408,0,0,0,8.169,15.749l9.3,14.17s3.235-2.655,3.73-3.841l.009-.009c.487-1.2.726-10.815.726-10.815s-.734,1.8-2.365,1.7c-1.178-.085-3.568.6-5.267-1.315a4.445,4.445,0,0,1-.154-5.583l4.208-5.685a6.382,6.382,0,0,1,6.607-.794,31.434,31.434,0,0,1,7.435,5.207,15.2,15.2,0,0,1,6.471,1.246c2.979,1.434,6.1,5.549,6.1,5.549s3.474.213,5.036,1.349c.393.282,5.694,8.536,3.782,14.964-1.135,3.833-1.835,9.4-2.347,10.892l-2.6,37.637,5.25,24.772-11.224,6.257a80.35,80.35,0,0,1-12.917,5.776Z" transform="translate(-175.889 -294.4)" opacity="0.2"/>
        <g id="Group_359" data-name="Group 359" transform="translate(98.971)">
          <g id="Group_358" data-name="Group 358">
            <g id="Group_357" data-name="Group 357">
              <g id="Group_356" data-name="Group 356">
                <g id="Group_351" data-name="Group 351">
                  <path id="Path_257" data-name="Path 257" d="M337.042,374.693l.1-37.734c.411-1.525.74-7.124,1.617-11.025,1.48-6.541-4.357-14.424-4.768-14.679-1.636-1.023-5.115-1-5.115-1s-3.389-3.9-6.459-5.134a15.215,15.215,0,0,0-6.54-.813,31.23,31.23,0,0,0-7.765-4.7,6.388,6.388,0,0,0-6.54,1.233l-3.818,5.946a4.451,4.451,0,0,0,.521,5.562c1.827,1.8,4.165.959,5.344.959,1.635,0,2.247-1.846,2.247-1.846s.4,9.609,0,10.833l-.009.009c-.42,1.224-3.471,4.083-3.471,4.083l-10.212-13.519a98.711,98.711,0,0,1-9.2-15.172,6.98,6.98,0,0,0-1.152-1.791c-1.79-2.027-5.626-2.621-6.622,1.133a7.349,7.349,0,0,0,.164,3.618c4.275,12.614,9.71,22.15,14.67,32.088,2.95,5.9,1.854,5.828,3.325,8.5-.173.119-.091.338-.274.447-.721,2.868-1.224,5.746-1.945,8.614a39.468,39.468,0,0,0-3.27-10.395,23.434,23.434,0,0,0,.447-6.074,7.984,7.984,0,0,0-2.53-5.39,5.246,5.246,0,0,0-2.977-1.159,3.108,3.108,0,0,0-3.279,2.657,31.389,31.389,0,0,1-.859,4.622,46.165,46.165,0,0,1-2.357,5.8c0,3.809,2.357,3.187,4.074,18.506,1.334,11.93,16.7,19.812,25.065,28.426l8.914,28.042a172.869,172.869,0,0,0,29.751-15.62Z" transform="translate(-275.049 -294.294)" fill="#fff"/>
                </g>
                <g id="Group_355" data-name="Group 355" transform="translate(1.355 4.073)">
                  <g id="Group_354" data-name="Group 354">
                    <g id="Group_353" data-name="Group 353" transform="translate(8.621 5.118)">
                      <path id="Path_291" data-name="Path 291" d="M323.966,307.592a67.086,67.086,0,0,1,2.329,17.091,9.107,9.107,0,0,0,.3,2.866,2.826,2.826,0,0,0,1.958,1.951" transform="translate(-292.185 -305.431)" fill="none"/>
                      <path id="Path_292" data-name="Path 292" d="M338.109,314.161c2.535,5.346-.059,17.282.132,18.123a3,3,0,0,0,1.438,2.05" transform="translate(-294.255 -306.393)" fill="none"/>
                      <g id="Group_352" data-name="Group 352">
                        <path id="Path_293" data-name="Path 293" d="M311.6,306.49c-.3,1.7-.547,3.669-.845,5.368a9.9,9.9,0,0,1-3.422-6.8" transform="translate(-289.75 -305.061)" fill="none"/>
                        <path id="Path_294" data-name="Path 294" d="M292.853,360.092l-1.842.811" transform="translate(-287.362 -313.116)" fill="none"/>
                        <path id="Path_295" data-name="Path 295" d="M293.682,361.824a10.68,10.68,0,0,0-.02,4.319" transform="translate(-287.719 -313.369)" fill="none"/>
                        <path id="Path_296" data-name="Path 296" d="M306.358,343.135l2.044,3.679" transform="translate(-289.608 -310.634)" fill="none"/>
                        <path id="Path_297" data-name="Path 297" d="M310.955,326.872l2.032-2.87" transform="translate(-290.281 -307.833)" fill="none"/>
                        <path id="Path_298" data-name="Path 298" d="M344.326,343.135l-.613,2.248" transform="translate(-295.076 -310.634)" fill="none"/>
                        <path id="Path_299" data-name="Path 299" d="M338.61,334.944q.9-2.868,1.8-5.736" transform="translate(-294.329 -308.595)" fill="none"/>
                        <path id="Path_300" data-name="Path 300" d="M345.648,323.966a2.3,2.3,0,0,1,3.106.967" transform="translate(-295.359 -307.789)" fill="none"/>
                        <path id="Path_301" data-name="Path 301" d="M331.275,312.5a4.415,4.415,0,0,1,4.113.941" transform="translate(-293.255 -306.126)" fill="none"/>
                        <path id="Path_302" data-name="Path 302" d="M286.736,318.852a6.259,6.259,0,0,1,5.3-1.995" transform="translate(-286.736 -306.782)" fill="none"/>
                      </g>
                    </g>
                    <path id="Path_303" data-name="Path 303" d="M277.714,300.153a5.716,5.716,0,0,1,4.3-1.006" transform="translate(-276.795 -299.066)" fill="none"/>
                    <path id="Path_304" data-name="Path 304" d="M279.14,345.087a10.948,10.948,0,0,0-2.5,2.815Z" transform="translate(-276.637 -305.802)" fill="#fff"/>
                  </g>
                  <path id="Path_305" data-name="Path 305" d="M280.53,339.91c1.35-.965,3.5,1.193,4.741.092a1.992,1.992,0,0,0,.417-1.85,6.218,6.218,0,0,1-.247-1.956" transform="translate(-277.207 -304.501)" fill="none"/>
                </g>
              </g>
            </g>
            <path id="Path_306" data-name="Path 306" d="M325.12,333.612a15.436,15.436,0,0,1,.936,10.941" transform="translate(-282.378 -300.049)" fill="none"/>
            <path id="Path_307" data-name="Path 307" d="M336.588,339.779a7.073,7.073,0,0,1-.856,4.692" transform="translate(-283.931 -300.952)" fill="none"/>
          </g>
        </g>
        <g id="Group_368" data-name="Group 368" transform="translate(98.971)">
          <g id="Group_367" data-name="Group 367">
            <g id="Group_366" data-name="Group 366">
              <g id="Group_365" data-name="Group 365">
                <g id="Group_360" data-name="Group 360">
                  <path id="Path_308" data-name="Path 308" d="M314.371,415.331l-8.915-28.042c-8.366-8.614-23.73-16.5-25.064-28.426-1.717-15.318-4.074-14.7-4.074-18.506a46.165,46.165,0,0,0,2.357-5.8,31.389,31.389,0,0,0,.859-4.622,3.108,3.108,0,0,1,3.279-2.657,5.246,5.246,0,0,1,2.977,1.159,7.984,7.984,0,0,1,2.53,5.39,23.434,23.434,0,0,1-.447,6.074,39.468,39.468,0,0,1,3.27,10.395c.721-2.868,1.224-5.746,1.945-8.614.183-.109.1-.329.274-.447-1.471-2.668-.375-2.594-3.325-8.5-4.96-9.938-10.395-19.474-14.67-32.088a7.349,7.349,0,0,1-.164-3.618c1-3.754,4.832-3.16,6.622-1.133a6.957,6.957,0,0,1,1.152,1.791,98.711,98.711,0,0,0,9.2,15.172l10.212,13.519s3.051-2.859,3.471-4.083l.009-.009c.4-1.224,0-10.833,0-10.833s-.612,1.846-2.247,1.846c-1.179,0-3.517.84-5.344-.959a4.451,4.451,0,0,1-.521-5.562l3.818-5.946a6.388,6.388,0,0,1,6.54-1.233,31.23,31.23,0,0,1,7.765,4.7,15.215,15.215,0,0,1,6.54.813c3.07,1.233,6.459,5.134,6.459,5.134s3.479-.018,5.115,1c.411.255,6.248,8.138,4.768,14.679-.877,3.9-1.205,9.5-1.617,11.025l-.1,37.734,7.079,25.018" transform="translate(-275.049 -294.294)" fill="none" stroke="#1a3d5b" stroke-miterlimit="10" stroke-width="1"/>
                </g>
                <g id="Group_364" data-name="Group 364" transform="translate(1.355 4.073)">
                  <g id="Group_363" data-name="Group 363">
                    <g id="Group_362" data-name="Group 362" transform="translate(8.621 5.118)">
                      <path id="Path_309" data-name="Path 309" d="M323.966,307.592a67.086,67.086,0,0,1,2.329,17.091,9.107,9.107,0,0,0,.3,2.866,2.826,2.826,0,0,0,1.958,1.951" transform="translate(-292.185 -305.431)" fill="none" stroke="#1a3d5b" stroke-miterlimit="10" stroke-width="1"/>
                      <path id="Path_310" data-name="Path 310" d="M338.109,314.161c2.535,5.346-.059,17.282.132,18.123a3,3,0,0,0,1.438,2.05" transform="translate(-294.255 -306.393)" fill="none" stroke="#1a3d5b" stroke-miterlimit="10" stroke-width="1"/>
                      <g id="Group_361" data-name="Group 361">
                        <path id="Path_311" data-name="Path 311" d="M311.6,306.49c-.3,1.7-.547,3.669-.845,5.368a9.9,9.9,0,0,1-3.422-6.8" transform="translate(-289.75 -305.061)" fill="none" stroke="#1a3d5b" stroke-miterlimit="10" stroke-width="1"/>
                        <path id="Path_312" data-name="Path 312" d="M292.853,360.092l-1.842.811" transform="translate(-287.362 -313.116)" fill="none" stroke="#1a3d5b" stroke-miterlimit="10" stroke-width="1"/>
                        <path id="Path_313" data-name="Path 313" d="M293.682,361.824a10.68,10.68,0,0,0-.02,4.319" transform="translate(-287.719 -313.369)" fill="none" stroke="#1a3d5b" stroke-miterlimit="10" stroke-width="1"/>
                        <path id="Path_314" data-name="Path 314" d="M306.358,343.135l2.044,3.679" transform="translate(-289.608 -310.634)" fill="none" stroke="#1a3d5b" stroke-miterlimit="10" stroke-width="1"/>
                        <path id="Path_315" data-name="Path 315" d="M310.955,326.872l2.032-2.87" transform="translate(-290.281 -307.833)" fill="none" stroke="#1a3d5b" stroke-miterlimit="10" stroke-width="1"/>
                        <path id="Path_316" data-name="Path 316" d="M344.326,343.135l-.613,2.248" transform="translate(-295.076 -310.634)" fill="none" stroke="#1a3d5b" stroke-miterlimit="10" stroke-width="1"/>
                        <path id="Path_317" data-name="Path 317" d="M338.61,334.944q.9-2.868,1.8-5.736" transform="translate(-294.329 -308.595)" fill="none" stroke="#1a3d5b" stroke-miterlimit="10" stroke-width="1"/>
                        <path id="Path_318" data-name="Path 318" d="M345.648,323.966a2.3,2.3,0,0,1,3.106.967" transform="translate(-295.359 -307.789)" fill="none" stroke="#1a3d5b" stroke-miterlimit="10" stroke-width="1"/>
                        <path id="Path_319" data-name="Path 319" d="M331.275,312.5a4.415,4.415,0,0,1,4.113.941" transform="translate(-293.255 -306.126)" fill="none" stroke="#1a3d5b" stroke-miterlimit="10" stroke-width="1"/>
                        <path id="Path_320" data-name="Path 320" d="M286.736,318.852a6.259,6.259,0,0,1,5.3-1.995" transform="translate(-286.736 -306.782)" fill="none" stroke="#1a3d5b" stroke-miterlimit="10" stroke-width="1"/>
                      </g>
                    </g>
                    <path id="Path_321" data-name="Path 321" d="M277.714,300.153a5.716,5.716,0,0,1,4.3-1.006" transform="translate(-276.795 -299.066)" fill="none" stroke="#1a3d5b" stroke-miterlimit="10" stroke-width="1"/>
                    <path id="Path_322" data-name="Path 322" d="M279.14,345.087a10.948,10.948,0,0,0-2.5,2.815" transform="translate(-276.637 -305.802)" fill="none" stroke="#1a3d5b" stroke-miterlimit="10" stroke-width="1"/>
                  </g>
                  <path id="Path_323" data-name="Path 323" d="M280.53,339.91c1.35-.965,3.5,1.193,4.741.092a1.992,1.992,0,0,0,.417-1.85,6.218,6.218,0,0,1-.247-1.956" transform="translate(-277.207 -304.501)" fill="none" stroke="#1a3d5b" stroke-miterlimit="10" stroke-width="1"/>
                </g>
              </g>
            </g>
            <path id="Path_324" data-name="Path 324" d="M325.12,333.612a15.436,15.436,0,0,1,.936,10.941" transform="translate(-282.378 -300.049)" fill="none" stroke="#1a3d5b" stroke-miterlimit="10" stroke-width="1"/>
            <path id="Path_325" data-name="Path 325" d="M336.588,339.779a7.073,7.073,0,0,1-.856,4.692" transform="translate(-283.931 -300.952)" fill="none" stroke="#1a3d5b" stroke-miterlimit="10" stroke-width="1"/>
          </g>
        </g>
        <path id="Path_326" data-name="Path 326" d="M229.569,346.666a5.173,5.173,0,0,1-.077,1.776c-.555,2.569-2.16,10.056-2.749,14.153-.7,5-8.784,20.487-8.784,20.487s-7.444,9.253-11.234,14.068c-1.861,2.365-4.806,11.934-7.307,21.051q-4.738-1.434-9.39-3.09c-2.569-.913-5.139-1.878-7.674-2.877a125.555,125.555,0,0,1-13.342-6.5c1.417-5.147,2.365-9.108,2.347-9.339-.043-.538,3.039-6.471,3.039-6.471l-2.689-35.375-1.588-5.386a40.452,40.452,0,0,1-1.562-8.519,41.261,41.261,0,0,1,1.1-13.086l4.635-6.88,2.168-.162,6.71-9.373s3.628-1.093,4.558,1.639-3.022,7.836-3.022,7.836l-1.357,8.425,3.227,7.888,1.673.615s.563-13.889.179-16.663L192,308.2a60.218,60.218,0,0,0,2.783-6.368c.649-2.126,4.464-4.234,6.658-.5a5.485,5.485,0,0,1,.341,4.5c-.9,2.6-1.639,4.652-1.639,4.652s-.811,10.739-1.067,11.037c-.256.282,1.579,15.989,1.579,15.989l1.4.623.5-14.981,2.911-14.076s-.239-6.769,4.533-5.95a3.687,3.687,0,0,1,3.508,2.185c1.272,2.433.06,18.635.06,18.635l1.178,16.748,1.887,12.915,2.219-8.852s.128-12.685,8.135-13.769c0,0,2.382-.427,2.868,1.229s-1.187,5.036-.948,8.28C229.082,342.773,229.407,345.342,229.569,346.666Z" transform="translate(-160.474 -295.024)" opacity="0.2"/>
        <g id="Group_382" data-name="Group 382" transform="translate(0 0.731)">
          <g id="Group_380" data-name="Group 380">
            <path id="Path_327" data-name="Path 327" d="M225.77,330.38c-.365-1.69-2.767-1.443-2.767-1.443-8.066.475-9.153,13.117-9.153,13.117l-2.886,8.659-.9-13.026.091-16.788s2.439-16.067,1.352-18.589a3.673,3.673,0,0,0-3.334-2.439c-4.695-1.178-4.969,5.59-4.969,5.59l-3.964,13.811-1.626,14.9-1.351-.722s-.639-15.8-.365-16.067,1.9-10.925,1.9-10.925.895-1.982,1.981-4.512a5.467,5.467,0,0,0,0-4.512c-1.9-3.881-5.864-2.073-6.677,0a60.131,60.131,0,0,1-3.251,6.138l-4.522,12.367c.174,2.8-1.434,16.607-1.434,16.607l-1.625-.74-2.621-8.111,1.991-8.3s4.33-4.777,3.608-7.581-4.421-1.982-4.421-1.982l-7.4,8.842h-2.174l-5.142,6.5a41.179,41.179,0,0,0-1.179,21.584l1.179,5.49v35.478s-3.517,5.681-3.517,6.22c0,.246-1.453,4.732-3.48,10.321,8.851,5.206,16.479,9.235,21.877,11.364,2.539,1,5.106,1.963,7.682,2.877,3.242-9.107,7.033-18.853,9.125-21.127,4.146-4.512,12.267-13.181,12.267-13.181s9.235-14.825,10.313-19.757c.9-4.046,3.06-11.39,3.809-13.912a5,5,0,0,0,.21-1.763c-.064-1.333-.191-3.918-.191-6.2C224.2,335.313,226.126,332.061,225.77,330.38Z" transform="translate(-159.108 -295.15)" fill="#fff"/>
          </g>
          <g id="Group_381" data-name="Group 381">
            <path id="Path_339" data-name="Path 339" d="M159.108,400.266c2.027-5.59,3.48-10.075,3.48-10.321,0-.539,3.517-6.22,3.517-6.22V348.247l-1.179-5.49a41.179,41.179,0,0,1,1.179-21.584l5.142-6.5h2.174l7.4-8.842s3.7-.813,4.421,1.982-3.608,7.581-3.608,7.581l-1.991,8.3,2.621,8.111,1.625.74s1.608-13.811,1.434-16.607l4.522-12.367a60.131,60.131,0,0,0,3.251-6.138c.814-2.073,4.778-3.881,6.677,0a5.467,5.467,0,0,1,0,4.512c-1.087,2.53-1.982,4.512-1.982,4.512s-1.625,10.651-1.9,10.925.365,16.067.365,16.067l1.351.722,1.626-14.9,3.964-13.811s.274-6.768,4.969-5.59a3.673,3.673,0,0,1,3.334,2.439c1.087,2.522-1.352,18.589-1.352,18.589l-.091,16.788.9,13.026,2.886-8.659s1.087-12.641,9.153-13.117c0,0,2.4-.247,2.767,1.443s-1.571,4.932-1.571,8.184c0,2.284.127,4.869.191,6.2a5,5,0,0,1-.21,1.763c-.749,2.522-2.913,9.865-3.809,13.912-1.078,4.932-10.313,19.757-10.313,19.757s-8.121,8.669-12.268,13.181c-2.091,2.275-5.882,12.021-9.124,21.127" transform="translate(-159.108 -295.15)" fill="none" stroke="#1a3d5b" stroke-miterlimit="10" stroke-width="1"/>
          </g>
          <path id="Path_340" data-name="Path 340" d="M187.757,340.522a5.16,5.16,0,0,1-1.214,4.862" transform="translate(-163.124 -301.791)" fill="#fff" stroke="#1a3d5b" stroke-miterlimit="10" stroke-width="1"/>
          <path id="Path_341" data-name="Path 341" d="M171.838,349.779c1.175-1.817,2.315-4.311,2-6.451-.617-4.19-2.526-9.013-1.667-13.16q.825-3.975,1.648-7.948" transform="translate(-160.971 -299.112)" fill="#fff" stroke="#1a3d5b" stroke-miterlimit="10" stroke-width="1"/>
          <path id="Path_342" data-name="Path 342" d="M211.708,307.921a8.323,8.323,0,0,1,4.258.012l.049-1.188" transform="translate(-166.807 -296.847)" fill="none" stroke="#1a3d5b" stroke-miterlimit="10" stroke-width="1"/>
          <path id="Path_343" data-name="Path 343" d="M198.578,301.485a2.723,2.723,0,0,0,4.309-2.278" transform="translate(-164.885 -295.744)" fill="none" stroke="#1a3d5b" stroke-miterlimit="10" stroke-width="1"/>
          <path id="Path_344" data-name="Path 344" d="M234.045,336.59A5.241,5.241,0,0,0,230.127,342l2.093.624" transform="translate(-169.5 -301.216)" fill="none" stroke="#1a3d5b" stroke-miterlimit="10" stroke-width="1"/>
          <path id="Path_345" data-name="Path 345" d="M202.535,337.811c.1,1.432-.08,4.856.015,6.287" transform="translate(-165.462 -301.394)" fill="#fff" stroke="#1a3d5b" stroke-miterlimit="10" stroke-width="1"/>
          <path id="Path_346" data-name="Path 346" d="M204.291,340.136q-.259,3.519-.518,7.038.022-.448.042-.9" transform="translate(-165.646 -301.735)" fill="#fff" stroke="#1a3d5b" stroke-miterlimit="10" stroke-width="1"/>
          <path id="Path_347" data-name="Path 347" d="M219.5,363.311a11.7,11.7,0,0,1-.8,7.733" transform="translate(-167.831 -305.127)" fill="#fff" stroke="#1a3d5b" stroke-miterlimit="10" stroke-width="1"/>
          <path id="Path_348" data-name="Path 348" d="M194.06,348.9c-1.861,2.041-1.588,6.935-.274,9.628" transform="translate(-164.03 -303.018)" fill="none" stroke="#1a3d5b" stroke-miterlimit="10" stroke-width="1"/>
          <path id="Path_349" data-name="Path 349" d="M210.009,352.846a9.579,9.579,0,0,1-2.277,6.261" transform="translate(-166.225 -303.595)" fill="none" stroke="#1a3d5b" stroke-miterlimit="10" stroke-width="1"/>
          <path id="Path_350" data-name="Path 350" d="M178.393,350.045a8.723,8.723,0,0,0,1.274,5.949" transform="translate(-161.917 -303.185)" fill="none" stroke="#1a3d5b" stroke-miterlimit="10" stroke-width="1"/>
          <path id="Path_351" data-name="Path 351" d="M169.131,357.51a7.241,7.241,0,0,0,1.315,4.559" transform="translate(-160.573 -304.278)" fill="none" stroke="#1a3d5b" stroke-miterlimit="10" stroke-width="1"/>
          <path id="Path_352" data-name="Path 352" d="M181.847,311.25a2.711,2.711,0,0,1,2.987.478l1.055-1.392" transform="translate(-162.436 -297.373)" fill="none" stroke="#1a3d5b" stroke-miterlimit="10" stroke-width="1"/>
          <path id="Path_353" data-name="Path 353" d="M192.108,318.662a3.536,3.536,0,0,1,4.513.767" transform="translate(-163.938 -298.519)" fill="none" stroke="#1a3d5b" stroke-miterlimit="10" stroke-width="1"/>
          <path id="Path_354" data-name="Path 354" d="M208.134,323.665a5.713,5.713,0,0,1,4.851.1" transform="translate(-166.284 -299.252)" fill="none" stroke="#1a3d5b" stroke-miterlimit="10" stroke-width="1"/>
          <path id="Path_355" data-name="Path 355" d="M172.475,331.753a4.631,4.631,0,0,1,4.474-2.219" transform="translate(-161.065 -300.178)" fill="none" stroke="#1a3d5b" stroke-miterlimit="10" stroke-width="1"/>
          <path id="Path_356" data-name="Path 356" d="M165.769,341.315a2.422,2.422,0,0,1,2.024-2.272" transform="translate(-160.083 -301.575)" fill="none" stroke="#1a3d5b" stroke-miterlimit="10" stroke-width="1"/>
        </g>
      </g>
    </g>
    <g id="Coffee" transform="translate(330.287 156.622)">
      <g id="Group_391" data-name="Group 391">
        <circle id="Ellipse_37" data-name="Ellipse 37" cx="35.38" cy="35.38" r="35.38" transform="translate(0 10.573)" fill="none" stroke="#1a3d5b" stroke-linecap="round" stroke-linejoin="round" stroke-width="1"/>
        <g id="Group_390" data-name="Group 390" transform="translate(9.4)">
          <g id="Group_387" data-name="Group 387" transform="translate(0 14.667)">
            <g id="Group_384" data-name="Group 384" transform="translate(10.144)">
              <path id="Path_357" data-name="Path 357" d="M460.776,223.954c-7.544,12.373-10.227,10.7-35.959,23.029-13.062,6.257-25.687-13.86-17.147-34.508.417-1.008,4.108-6.1,4.108-6.1a18.849,18.849,0,0,1,32.933-7.785,20.353,20.353,0,0,1,18.08-4.319c.3.871.58,1.724.854,2.561.1.324.213.64.307.965.324,1,.632,2,.913,3q.845,2.868,1.571,5.771a11.565,11.565,0,0,0-8.4.5c-1.887.922-3.466,2.441-5.429,3.193s-4.678.324-5.429-1.639c.948,3.944,5.085,2.765,9.061,3.545C462.393,213.379,463.952,218.747,460.776,223.954Z" transform="translate(-404.884 -191.741)" opacity="0.2"/>
            </g>
            <g id="Group_386" data-name="Group 386" transform="translate(0 1.61)">
              <path id="Path_358" data-name="Path 358" d="M455.2,222.242s6.334-.859,9.343-.409a5.766,5.766,0,0,1,3.642,2.091,2.009,2.009,0,0,1,.437,1.129l.34,4.949a2.008,2.008,0,0,1-.545,1.534c-1.234,1.286-4.966,3.634-16.008,4.478C436.876,237.2,455.2,222.242,455.2,222.242Z" transform="translate(-400.781 -197.737)" fill="#fff" stroke="#1a3d5b" stroke-linecap="round" stroke-linejoin="round" stroke-width="1"/>
              <g id="Group_385" data-name="Group 385">
                <path id="Path_359" data-name="Path 359" d="M442.788,205.931a23.63,23.63,0,0,1,5.184,15.05c0,5.9-6.831,26.045-24.323,28.5-18.514,2.6-33.4-13.25-30.219-32.318C395.629,203.972,427.925,187.458,442.788,205.931Z" transform="translate(-393 -194.222)" fill="#fff" stroke="#1a3d5b" stroke-linecap="round" stroke-linejoin="round" stroke-width="1"/>
                <ellipse id="Ellipse_38" data-name="Ellipse 38" cx="26.864" cy="25.427" rx="26.864" ry="25.427" transform="translate(0.302 0)" fill="#fff"/>
                <ellipse id="Ellipse_39" data-name="Ellipse 39" cx="22.054" cy="20.874" rx="22.054" ry="20.874" transform="translate(5.056 5.884)" fill="#1a3d5b"/>
                <path id="Path_360" data-name="Path 360" d="M447.082,219.055c0-14.043-12.028-25.427-26.864-25.427s-26.864,11.384-26.864,25.427" transform="translate(-393.052 -193.628)" fill="none" stroke="#1a3d5b" stroke-linecap="round" stroke-linejoin="round" stroke-width="1"/>
                <path id="Path_361" data-name="Path 361" d="M447.99,240.624a24.608,24.608,0,0,0,7.089-17.209" transform="translate(-401.049 -197.988)" fill="none" stroke="#1a3d5b" stroke-linecap="round" stroke-linejoin="round" stroke-width="1"/>
                <path id="Path_362" data-name="Path 362" d="M402.779,244.672a27.576,27.576,0,0,0,18.818,7.281,27.963,27.963,0,0,0,12.468-2.9" transform="translate(-394.432 -201.099)" fill="none" stroke="#1a3d5b" stroke-linecap="round" stroke-linejoin="round" stroke-width="1"/>
                <path id="Path_363" data-name="Path 363" d="M398.239,239.362q.528.786,1.114,1.533" transform="translate(-393.767 -200.322)" fill="none" stroke="#1a3d5b" stroke-linecap="round" stroke-linejoin="round" stroke-width="1"/>
                <path id="Path_364" data-name="Path 364" d="M393.354,223.415a24.21,24.21,0,0,0,2.56,10.847" transform="translate(-393.052 -197.988)" fill="none" stroke="#1a3d5b" stroke-linecap="round" stroke-linejoin="round" stroke-width="1"/>
              </g>
              <path id="Path_365" data-name="Path 365" d="M468.854,231.294s-4.79-3.348-12.56-.312" transform="translate(-402.264 -198.909)" fill="#fff" stroke="#1a3d5b" stroke-linecap="round" stroke-linejoin="round" stroke-width="1"/>
              <path id="Path_366" data-name="Path 366" d="M464.474,234.293a49.31,49.31,0,0,1-9.935,1.561" transform="translate(-402.008 -199.58)" fill="#fff" stroke="#1a3d5b" stroke-linecap="round" stroke-linejoin="round" stroke-width="1"/>
              <path id="Path_367" data-name="Path 367" d="M468.888,233.054a4.564,4.564,0,0,1-1.2.617" transform="translate(-403.932 -199.399)" fill="#fff" stroke="#1a3d5b" stroke-linecap="round" stroke-linejoin="round" stroke-width="1"/>
            </g>
          </g>
          <g id="Group_389" data-name="Group 389" transform="translate(22.174)">
            <g id="Group_388" data-name="Group 388">
              <path id="Path_368" data-name="Path 368" d="M466.015,195.278c-.094-.324-.2-.64-.307-.965-1.63-5.053-3.73-10.6-6.283-16.458-.47-1.084-.965-2.185-1.46-3.3l-.572.051c-2.45.248-5.028.555-7.042,1.946-2.023,1.417-3.218,4.328-1.912,6.419,1.28,2.074,4.635,3.227,4.106,5.591-5.472,3.082-12.147,2.723-18.234,4.277a29.693,29.693,0,0,0-10.167,4.8c-.009,0-.009.009-.017.009a31.338,31.338,0,0,0-2.766,2.322,10.936,10.936,0,0,0-1.127,1.212c-.009.008-.009.008-.009.017a4.172,4.172,0,0,0-.965,2.168c-.213,2.279,1.861,3.833,4.072,4.823a.5.5,0,0,1-.034.922,12.72,12.72,0,0,0-3.986,2.3c-.009,0-.017.009-.026.017a.99.99,0,0,0,.828,1.69c.1-.017.23-.026.341-.034a6.443,6.443,0,0,1,2.578.307,3.1,3.1,0,0,1,2.313,2.441c.137,1.733-1.835,3.295-4.4,3.491-.623.06-.145.8.768.956a13.631,13.631,0,0,0,5.463-.444c2.143-.512,4.43-1.255,5.643-3.09a3.862,3.862,0,0,0,.512-2.715,2.747,2.747,0,0,0-2.271-2.493,74.677,74.677,0,0,0,11.712-2.347h.009l1.2-.367a11.234,11.234,0,0,0,3.3-1.443,4.6,4.6,0,0,0,1.443-1.588c.888-1.716-.367-4.43-2.262-4.072,5.506-2.16,11.328-3.423,16.893-5.412C464.256,195.995,465.144,195.653,466.015,195.278Z" transform="translate(-418.976 -174.56)" fill="#fff"/>
            </g>
          </g>
        </g>
      </g>
    </g>
    <g id="Monitor" transform="translate(83.69 52.006)">
      <g id="Group_401" data-name="Group 401">
        <path id="Path_370" data-name="Path 370" d="M379.474,100.641,93.11,101.948l4.331-6.49a11.228,11.228,0,0,1,9.339-5H365.9a11.227,11.227,0,0,1,8.746,4.187Z" transform="translate(-93.11 -57.634)" fill="#fff" stroke="#1a3d5b" stroke-linecap="round" stroke-linejoin="round" stroke-width="1"/>
        <g id="Group_400" data-name="Group 400" transform="translate(0 41.174)">
          <g id="Group_394" data-name="Group 394">
            <rect id="Rectangle_341" data-name="Rectangle 341" width="73.997" height="73.996" rx="34.152" transform="translate(103.33 44.76)" fill="#757575" stroke="#1a3d5b" stroke-linecap="round" stroke-linejoin="round" stroke-width="1"/>
            <path id="Path_371" data-name="Path 371" d="M229.913,203.337v10.519a5.977,5.977,0,0,0,5.977,5.977h36.08a5.983,5.983,0,0,0,5.976-5.935c.045-4.733.3-10.561.3-10.561Z" transform="translate(-113.133 -115.33)" fill="#999" stroke="#1a3d5b" stroke-linecap="round" stroke-linejoin="round" stroke-width="1"/>
            <g id="Group_393" data-name="Group 393">
              <g id="Group_392" data-name="Group 392">
                <path id="Path_372" data-name="Path 372" d="M341.949,191.762H130.927a5.407,5.407,0,0,1-5.037-3.444L93.34,104.784a3.334,3.334,0,0,1,3.106-4.544H376.43a3.334,3.334,0,0,1,3.105,4.544l-32.55,83.535A5.405,5.405,0,0,1,341.949,191.762Z" transform="translate(-93.11 -100.24)" fill="#bfbfbf" stroke="#1a3d5b" stroke-linecap="round" stroke-linejoin="round" stroke-width="1"/>
                <path id="Path_373" data-name="Path 373" d="M344.579,185.388H129.917L100.379,106.44h273.6Z" transform="translate(-94.174 -101.147)" fill="#1a3d5b"/>
              </g>
            </g>
          </g>
          <rect id="Rectangle_342" data-name="Rectangle 342" width="47.856" height="3.276" transform="translate(117.01 91.408)" fill="#1a3d5b"/>
          <g id="Group_398" data-name="Group 398" transform="translate(44.079 10.108)">
            <g id="Group_396" data-name="Group 396">
              <path id="Path_374" data-name="Path 374" d="M319.716,182.824H168.131c-.832,0-1.627-.378-1.774-.847l-21.562-68.5c-.242-.768.431-1.394,1.5-1.394H341.547c1.073,0,1.746.626,1.5,1.394l-21.561,68.5C321.343,182.446,320.548,182.824,319.716,182.824Z" transform="translate(-144.746 -112.081)" fill="#00f2fe"/>
              <path id="Path_375" data-name="Path 375" d="M320.121,182.815H169.654l-18.323-60.19H338.443Z" transform="translate(-145.71 -113.624)" fill="#1a3d5b"/>
              <g id="Group_395" data-name="Group 395" transform="translate(12.882 12.727)">
                <path id="Path_376" data-name="Path 376" d="M193.031,140.13H164.545c-.7,0-1.165.379-1.032.846a1.564,1.564,0,0,0,1.506.841H193.34c.7,0,1.2-.376,1.116-.841S193.733,140.13,193.031,140.13Z" transform="translate(-160.372 -128.914)" fill="#fff"/>
                <path id="Path_377" data-name="Path 377" d="M194.879,146.222H170.653c-.691,0-1.151.366-1.029.816a1.509,1.509,0,0,0,1.465.812h24.089c.687,0,1.179-.363,1.1-.812S195.57,146.222,194.879,146.222Z" transform="translate(-161.267 -129.805)" fill="#fff"/>
                <path id="Path_378" data-name="Path 378" d="M195.4,152.1H167.913c-.68,0-1.129.353-1,.788a1.5,1.5,0,0,0,1.446.784h27.337c.674,0,1.159-.351,1.082-.784S196.081,152.1,195.4,152.1Z" transform="translate(-160.869 -130.666)" fill="#fff" opacity="0.5"/>
                <path id="Path_379" data-name="Path 379" d="M198.387,157.779H182.241c-.667,0-1.123.341-1.02.761s.724.756,1.387.756h16.059c.663,0,1.14-.338,1.065-.756S199.055,157.779,198.387,157.779Z" transform="translate(-162.965 -131.497)" fill="#fff"/>
                <path id="Path_380" data-name="Path 380" d="M197.615,163.265H171.053c-.656,0-1.094.329-.977.736a1.445,1.445,0,0,0,1.39.732h26.418c.652,0,1.123-.327,1.05-.732S198.27,163.265,197.615,163.265Z" transform="translate(-161.333 -132.3)" fill="#fff"/>
                <path id="Path_381" data-name="Path 381" d="M199.464,168.568H178.016c-.645,0-1.082.319-.977.711s.709.709,1.351.709h21.335c.642,0,1.105-.317,1.035-.709S200.109,168.568,199.464,168.568Z" transform="translate(-162.353 -133.076)" fill="#fff"/>
                <path id="Path_382" data-name="Path 382" d="M200.468,173.7h-21.1c-.634,0-1.066.309-.965.689s.7.685,1.327.685H200.72c.631,0,1.088-.306,1.02-.685S201.1,173.7,200.468,173.7Z" transform="translate(-162.553 -133.827)" fill="#fff"/>
                <path id="Path_383" data-name="Path 383" d="M201.052,178.663h-23.02c-.624,0-1.047.3-.946.667s.686.663,1.308.663h22.9c.621,0,1.071-.3,1.006-.663S201.677,178.663,201.052,178.663Z" transform="translate(-162.36 -134.554)" fill="#fff"/>
                <path id="Path_384" data-name="Path 384" d="M203.331,183.472H188.462c-.614,0-1.041.289-.954.645s.654.643,1.265.643h14.794c.611,0,1.056-.288.992-.643S203.946,183.472,203.331,183.472Z" transform="translate(-163.886 -135.258)" fill="#fff" opacity="0.5"/>
                <path id="Path_385" data-name="Path 385" d="M193.11,133.813H171.881c-.716,0-1.2.394-1.07.878a1.552,1.552,0,0,0,1.516.872h21.1c.712,0,1.22-.39,1.133-.872A1.421,1.421,0,0,0,193.11,133.813Z" transform="translate(-161.441 -127.989)" fill="#fff" opacity="0.5"/>
                <path id="Path_386" data-name="Path 386" d="M190.481,127.258H160.925c-.73,0-1.2.409-1.062.911a1.636,1.636,0,0,0,1.572.906h29.379c.725,0,1.241-.4,1.152-.906A1.454,1.454,0,0,0,190.481,127.258Z" transform="translate(-159.837 -127.03)" fill="#fff"/>
                <path id="Path_387" data-name="Path 387" d="M202.542,188.13H178.048c-.605,0-1.015.281-.917.626s.666.623,1.268.623H202.77c.6,0,1.04-.279.978-.623S203.146,188.13,202.542,188.13Z" transform="translate(-162.367 -135.939)" fill="#fff"/>
                <path id="Path_388" data-name="Path 388" d="M209.762,141.99h5.526l-.277-2.109h-5.566Z" transform="translate(-167.098 -128.877)" fill="#fff" opacity="0.5"/>
                <path id="Path_389" data-name="Path 389" d="M210.668,148.017H216.1l-.267-2.035h-5.467Z" transform="translate(-167.233 -129.77)" fill="#fff" opacity="0.5"/>
                <path id="Path_390" data-name="Path 390" d="M211.542,153.835h5.334l-.258-1.965h-5.371Z" transform="translate(-167.362 -130.632)" fill="#fff" opacity="0.5"/>
                <path id="Path_391" data-name="Path 391" d="M212.385,159.453h5.243l-.249-1.9H212.1Z" transform="translate(-167.487 -131.464)" fill="#fff" opacity="0.5"/>
                <path id="Path_392" data-name="Path 392" d="M213.2,164.883h5.155l-.241-1.835h-5.19Z" transform="translate(-167.608 -132.268)" fill="#fff" opacity="0.5"/>
                <path id="Path_393" data-name="Path 393" d="M213.99,170.133h5.07l-.233-1.774h-5.1Z" transform="translate(-167.725 -133.046)" fill="#fff" opacity="0.5"/>
                <path id="Path_394" data-name="Path 394" d="M214.752,175.213h4.987l-.225-1.717h-5.02Z" transform="translate(-167.837 -133.797)" fill="#fff" opacity="0.5"/>
                <path id="Path_395" data-name="Path 395" d="M215.491,180.13H220.4l-.218-1.662h-4.939Z" transform="translate(-167.947 -134.525)" fill="#fff" opacity="0.5"/>
                <path id="Path_396" data-name="Path 396" d="M216.206,184.892h4.83l-.211-1.61h-4.861Z" transform="translate(-168.053 -135.23)" fill="#fff" opacity="0.5"/>
                <path id="Path_397" data-name="Path 397" d="M208.824,135.742h5.627l-.287-2.187H208.5Z" transform="translate(-166.959 -127.951)" fill="#fff" opacity="0.5"/>
                <path id="Path_398" data-name="Path 398" d="M207.851,129.261h5.732l-.3-2.27H207.51Z" transform="translate(-166.815 -126.991)" fill="#fff" opacity="0.5"/>
                <path id="Path_399" data-name="Path 399" d="M216.9,189.507h4.756l-.2-1.561h-4.785Z" transform="translate(-168.155 -135.912)" fill="#fff" opacity="0.5"/>
                <path id="Path_400" data-name="Path 400" d="M251.046,179.33c-.012-.367.484-.667,1.108-.667h81.794c.624,0,1.043.3.936.667s-.7.663-1.317.663H252.192C251.571,179.993,251.058,179.7,251.046,179.33Z" transform="translate(-173.187 -134.554)" fill="#fff"/>
                <path id="Path_401" data-name="Path 401" d="M341.177,175.072H295.888c-.632,0-1.11-.306-1.068-.685s.59-.689,1.225-.689h45.526c.634,0,1.058.309.948.689S341.808,175.072,341.177,175.072Z" transform="translate(-179.594 -133.827)" fill="#fff"/>
                <path id="Path_402" data-name="Path 402" d="M280.87,175.072H266.781c-.631,0-1.138-.306-1.132-.685s.524-.689,1.159-.689h14.163c.634,0,1.124.309,1.1.689S281.5,175.072,280.87,175.072Z" transform="translate(-175.325 -133.827)" fill="#fff" opacity="0.5"/>
                <path id="Path_403" data-name="Path 403" d="M306.763,169.987H242.876c-.642,0-1.181-.317-1.205-.708s.48-.711,1.124-.711h64.226c.645,0,1.108.318,1.035.711S307.4,169.987,306.763,169.987Z" transform="translate(-171.815 -133.076)" fill="#fff"/>
                <path id="Path_404" data-name="Path 404" d="M227.248,168.568H231.8c.645,0,1.2.318,1.228.711s-.459.708-1.1.708H227.4c-.642,0-1.2-.317-1.24-.708S226.6,168.568,227.248,168.568Z" transform="translate(-169.544 -133.076)" fill="#fff" opacity="0.5"/>
                <path id="Path_405" data-name="Path 405" d="M317.992,164c-.086.4-.685.732-1.337.732h-60.2c-.653,0-1.187-.327-1.194-.732s.518-.736,1.174-.736h60.528C317.618,163.264,318.079,163.594,317.992,164Z" transform="translate(-173.804 -132.3)" fill="#fff"/>
                <path id="Path_406" data-name="Path 406" d="M226.679,163.264h17.085c.656,0,1.2.33,1.217.736s-.5.732-1.152.732H226.835c-.652,0-1.217-.327-1.262-.732S226.023,163.264,226.679,163.264Z" transform="translate(-169.459 -132.3)" fill="#fff"/>
                <path id="Path_407" data-name="Path 407" d="M226.091,157.778h65.671c.667,0,1.162.341,1.105.761s-.639.757-1.3.757H226.253c-.663,0-1.239-.338-1.286-.757S225.424,157.778,226.091,157.778Z" transform="translate(-169.37 -131.497)" fill="#fff"/>
                <path id="Path_408" data-name="Path 408" d="M276.028,153.673c-.675,0-1.208-.35-1.189-.784s.583-.788,1.262-.788h34.652c.679,0,1.168.353,1.092.788s-.683.784-1.358.784Z" transform="translate(-176.67 -130.666)" fill="#fff"/>
                <path id="Path_409" data-name="Path 409" d="M225.483,152.1h29.992c.679,0,1.228.353,1.226.788s-.55.784-1.225.784H225.65c-.675,0-1.261-.35-1.309-.784S224.8,152.1,225.483,152.1Z" transform="translate(-169.278 -130.666)" fill="#fff"/>
                <path id="Path_410" data-name="Path 410" d="M342.557,147.85H260.01c-.686,0-1.245-.363-1.249-.812s.555-.816,1.245-.816h83.017c.691,0,1.145.366,1.013.816A1.543,1.543,0,0,1,342.557,147.85Z" transform="translate(-174.317 -129.805)" fill="#fff"/>
                <path id="Path_411" data-name="Path 411" d="M345.986,141.817H273.349c-.7,0-1.254-.376-1.239-.841s.6-.846,1.3-.846h73.059c.7,0,1.163.379,1.027.846A1.577,1.577,0,0,1,345.986,141.817Z" transform="translate(-176.271 -128.914)" fill="#fff"/>
                <path id="Path_412" data-name="Path 412" d="M357.648,135.563h-15.21c-.712,0-1.2-.39-1.088-.872a1.511,1.511,0,0,1,1.5-.878h15.3c.716,0,1.182.394,1.041.878A1.61,1.61,0,0,1,357.648,135.563Z" transform="translate(-186.403 -127.989)" fill="#fff" opacity="0.5"/>
                <path id="Path_413" data-name="Path 413" d="M320.363,135.563H264.51c-.712,0-1.286-.39-1.284-.872s.586-.878,1.3-.878h56.184c.716,0,1.217.394,1.118.878A1.454,1.454,0,0,1,320.363,135.563Z" transform="translate(-174.97 -127.989)" fill="#fff"/>
                <path id="Path_414" data-name="Path 414" d="M228.845,183.471h51.578c.614,0,1.083.29,1.048.646s-.56.643-1.171.643H228.983c-.611,0-1.139-.288-1.178-.643S228.231,183.471,228.845,183.471Z" transform="translate(-169.785 -135.257)" fill="#fff"/>
                <path id="Path_415" data-name="Path 415" d="M229.345,188.13h79.246c.605,0,1.035.281.962.626s-.621.623-1.222.623H229.478c-.6,0-1.121-.279-1.159-.623S228.739,188.13,229.345,188.13Z" transform="translate(-169.861 -135.939)" fill="#fff"/>
                <path id="Path_416" data-name="Path 416" d="M319.779,129.075H279.435c-.726,0-1.294-.4-1.269-.906s.636-.911,1.366-.911h40.586c.73,0,1.244.409,1.147.911A1.463,1.463,0,0,1,319.779,129.075Z" transform="translate(-177.157 -127.03)" fill="#fff"/>
                <path id="Path_417" data-name="Path 417" d="M259.711,129.075h-36.7c-.726,0-1.358-.4-1.414-.906s.49-.911,1.22-.911h36.919c.73,0,1.314.409,1.3.911S260.436,129.075,259.711,129.075Z" transform="translate(-168.877 -127.03)" fill="#fff" opacity="0.5"/>
                <path id="Path_418" data-name="Path 418" d="M301.961,183.471c.615,0,1.07.29,1.019.646s-.588.643-1.2.643h-3.987c-.611,0-1.072-.288-1.029-.643s.575-.646,1.19-.646Z" transform="translate(-179.879 -135.257)" fill="#fff" opacity="0.5"/>
                <path id="Path_419" data-name="Path 419" d="M244.217,179.33c.019.367-.47.663-1.09.663h-5.432c-.621,0-1.148-.3-1.178-.663s.452-.667,1.076-.667h5.46C243.677,178.663,244.2,178.963,244.217,179.33Z" transform="translate(-171.061 -134.554)" fill="#fff" opacity="0.5"/>
                <path id="Path_420" data-name="Path 420" d="M320.787,158.539c-.079.419-.681.757-1.345.757h-6.348c-.663,0-1.148-.338-1.082-.757s.661-.761,1.328-.761h6.384C320.39,157.778,320.867,158.119,320.787,158.539Z" transform="translate(-182.11 -131.497)" fill="#fff" opacity="0.5"/>
                <path id="Path_421" data-name="Path 421" d="M344.392,163.264c.656,0,1.1.33.989.736s-.726.732-1.378.732h-5.061c-.652,0-1.1-.327-1-.732s.71-.736,1.366-.736Z" transform="translate(-185.904 -132.3)" fill="#fff" opacity="0.5"/>
                <path id="Path_422" data-name="Path 422" d="M248.292,147.85c-.687,0-1.259-.363-1.278-.812s.527-.816,1.217-.816h5.388c.691,0,1.257.366,1.263.816s-.545.812-1.233.812Z" transform="translate(-172.597 -129.805)" fill="#fff" opacity="0.5"/>
              </g>
            </g>
            <g id="Group_397" data-name="Group 397" transform="translate(9.93 1.909)">
              <path id="Path_423" data-name="Path 423" d="M161.666,116.9a1.82,1.82,0,0,1-1.8,2.519,3.791,3.791,0,0,1-3.361-2.519,1.826,1.826,0,0,1,1.778-2.579A3.782,3.782,0,0,1,161.666,116.9Z" transform="translate(-156.379 -114.317)" fill="#fff"/>
              <path id="Path_424" data-name="Path 424" d="M169.809,116.945a1.878,1.878,0,0,1-1.877,2.518,3.637,3.637,0,0,1-3.28-2.518,1.883,1.883,0,0,1,1.861-2.578A3.628,3.628,0,0,1,169.809,116.945Z" transform="translate(-157.574 -114.324)" fill="#fff"/>
              <path id="Path_425" data-name="Path 425" d="M178.045,116.9a1.942,1.942,0,0,1-1.96,2.519,3.49,3.49,0,0,1-3.2-2.519,1.946,1.946,0,0,1,1.945-2.579A3.481,3.481,0,0,1,178.045,116.9Z" transform="translate(-158.783 -114.317)" fill="#fff"/>
            </g>
          </g>
          <g id="Group_399" data-name="Group 399" transform="translate(6.205 4.905)">
            <path id="Path_426" data-name="Path 426" d="M100.379,106.44l23,61.485,27.751-61.485Z" transform="translate(-100.379 -106.052)" fill="#fff" opacity="0.1"/>
            <path id="Path_427" data-name="Path 427" d="M145.847,185.388l46.035-78.949h48.192l-67.753,78.949Z" transform="translate(-107.034 -106.052)" fill="#fff" opacity="0.1"/>
            <path id="Path_428" data-name="Path 428" d="M268.256,105.986,196.5,185.322h11.048l74.329-78.949Z" transform="translate(-114.448 -105.986)" fill="#fff" opacity="0.1"/>
            <path id="Path_429" data-name="Path 429" d="M297.157,185.388l78.861-78.949h11.128l-81.307,78.949Z" transform="translate(-129.181 -106.052)" fill="#fff" opacity="0.1"/>
          </g>
        </g>
      </g>
    </g>
    <g id="Code" transform="translate(95.785 198.876)">
      <g id="Group_439" data-name="Group 439">
        <g id="Group_405" data-name="Group 405" transform="translate(32.924 12.811)">
          <g id="Group_403" data-name="Group 403">
            <g id="Group_402" data-name="Group 402">
              <path id="Path_430" data-name="Path 430" d="M168.088,239.067H150.08a4.233,4.233,0,0,0-4.233,4.233v8.762a4.233,4.233,0,0,0,4.233,4.233h4.707l3.566,8.084,5.028-8.084h4.707a4.233,4.233,0,0,0,4.233-4.233V243.3A4.233,4.233,0,0,0,168.088,239.067Z" transform="translate(-145.847 -239.067)" fill="#fff" stroke="#1a3d5b" stroke-linecap="round" stroke-linejoin="round" stroke-width="1"/>
            </g>
          </g>
          <g id="Group_404" data-name="Group 404" transform="translate(10.734 4.189)">
            <path id="Path_431" data-name="Path 431" d="M158.422,244.8a.835.835,0,0,1,.878-.823.816.816,0,0,1,.877.79.878.878,0,0,1-1.754.033Zm.187,1.788h1.371v5.857h-1.371Z" transform="translate(-158.422 -243.974)" fill="#1a3d5b"/>
            <path id="Path_432" data-name="Path 432" d="M163.731,246.32v.351h1.613v1.1h-1.568v4.716H162.4v-4.716h-.965v-1.1h.965V246.3a1.892,1.892,0,0,1,2.095-2.028,2.195,2.195,0,0,1,1.239.318l-.384,1.031a1.349,1.349,0,0,0-.757-.242C164.027,245.377,163.731,245.7,163.731,246.32Z" transform="translate(-158.864 -244.017)" fill="#1a3d5b"/>
          </g>
        </g>
        <g id="Group_409" data-name="Group 409" transform="translate(87.741 14.038)">
          <g id="Group_407" data-name="Group 407">
            <g id="Group_406" data-name="Group 406">
              <path id="Path_433" data-name="Path 433" d="M232.3,240.5H214.3a4.233,4.233,0,0,0-4.233,4.233V253.5a4.233,4.233,0,0,0,4.233,4.233H219l3.566,8.084,5.028-8.084H232.3a4.233,4.233,0,0,0,4.233-4.233v-8.762A4.233,4.233,0,0,0,232.3,240.5Z" transform="translate(-210.063 -240.504)" fill="#fff" stroke="#1a3d5b" stroke-linecap="round" stroke-linejoin="round" stroke-width="1"/>
            </g>
          </g>
          <g id="Group_408" data-name="Group 408" transform="translate(2.052 4.518)">
            <path id="Path_434" data-name="Path 434" d="M218.433,251.825h-4.6a1.773,1.773,0,0,0,1.9,1.4,2.1,2.1,0,0,0,1.59-.637l.735.845a3.289,3.289,0,0,1-5.593-2.052,2.913,2.913,0,0,1,3.027-2.994,2.856,2.856,0,0,1,2.96,3.028C218.454,251.528,218.444,251.694,218.433,251.825Zm-4.606-.91h3.323a1.6,1.6,0,0,0-1.656-1.426A1.618,1.618,0,0,0,213.827,250.915Z" transform="translate(-212.467 -246.177)" fill="#1a3d5b"/>
            <path id="Path_435" data-name="Path 435" d="M221.019,245.8h1.371v8.138h-1.371Z" transform="translate(-213.719 -245.797)" fill="#1a3d5b"/>
            <path id="Path_436" data-name="Path 436" d="M223.946,253.733l.526-1.041a3.943,3.943,0,0,0,2.04.58c.866,0,1.228-.241,1.228-.646,0-1.119-3.619-.067-3.619-2.4,0-1.108,1-1.832,2.577-1.832a4.67,4.67,0,0,1,2.194.5l-.527,1.042a3.2,3.2,0,0,0-1.677-.439c-.834,0-1.228.274-1.228.658,0,1.185,3.619.131,3.619,2.423,0,1.1-1.009,1.81-2.654,1.81A4.649,4.649,0,0,1,223.946,253.733Z" transform="translate(-214.147 -246.177)" fill="#1a3d5b"/>
            <path id="Path_437" data-name="Path 437" d="M236.744,251.825h-4.6a1.773,1.773,0,0,0,1.9,1.4,2.1,2.1,0,0,0,1.59-.637l.735.845a3.29,3.29,0,0,1-5.594-2.052,2.913,2.913,0,0,1,3.027-2.994,2.856,2.856,0,0,1,2.961,3.028C236.765,251.528,236.754,251.694,236.744,251.825Zm-4.606-.91h3.322a1.594,1.594,0,0,0-1.656-1.426A1.618,1.618,0,0,0,232.138,250.915Z" transform="translate(-215.147 -246.177)" fill="#1a3d5b"/>
          </g>
        </g>
        <g id="Group_413" data-name="Group 413" transform="translate(140.888 13.518)">
          <g id="Group_411" data-name="Group 411">
            <g id="Group_410" data-name="Group 410">
              <path id="Path_438" data-name="Path 438" d="M294.564,239.9H276.556a4.233,4.233,0,0,0-4.233,4.233v8.762a4.233,4.233,0,0,0,4.233,4.233h4.707l3.566,8.084,5.028-8.084h4.707a4.233,4.233,0,0,0,4.233-4.233v-8.762A4.233,4.233,0,0,0,294.564,239.9Z" transform="translate(-272.323 -239.895)" fill="#fff" stroke="#1a3d5b" stroke-linecap="round" stroke-linejoin="round" stroke-width="1"/>
            </g>
          </g>
          <g id="Group_412" data-name="Group 412" transform="translate(6.071 4.442)">
            <path id="Path_439" data-name="Path 439" d="M281.727,247.149v.351h1.612v1.1h-1.568v4.716H280.4V248.6h-.965v-1.1h.965v-.372a1.893,1.893,0,0,1,2.095-2.029,2.2,2.2,0,0,1,1.24.318l-.385,1.031a1.344,1.344,0,0,0-.755-.242C282.024,246.206,281.727,246.525,281.727,247.149Z" transform="translate(-279.435 -245.099)" fill="#1a3d5b"/>
            <path id="Path_440" data-name="Path 440" d="M284.418,250.778a3.122,3.122,0,1,1,3.114,3A2.948,2.948,0,0,1,284.418,250.778Zm4.858,0a1.74,1.74,0,1,0-1.744,1.831A1.706,1.706,0,0,0,289.276,250.778Z" transform="translate(-280.164 -245.492)" fill="#1a3d5b"/>
            <path id="Path_441" data-name="Path 441" d="M296.653,247.784v1.305a1.719,1.719,0,0,0-.318-.033,1.6,1.6,0,0,0-1.7,1.811v2.84h-1.37V247.85h1.3v.855A2.306,2.306,0,0,1,296.653,247.784Z" transform="translate(-281.459 -245.492)" fill="#1a3d5b"/>
          </g>
        </g>
        <g id="Group_417" data-name="Group 417" transform="translate(193.267 12.811)">
          <g id="Group_415" data-name="Group 415" transform="translate(0)">
            <g id="Group_414" data-name="Group 414">
              <path id="Path_442" data-name="Path 442" d="M355.924,239.067H337.916a4.233,4.233,0,0,0-4.233,4.233v8.762a4.233,4.233,0,0,0,4.233,4.233h4.706l3.567,8.084,5.028-8.084h4.707a4.233,4.233,0,0,0,4.233-4.233V243.3A4.233,4.233,0,0,0,355.924,239.067Z" transform="translate(-333.683 -239.067)" fill="#fff" stroke="#1a3d5b" stroke-linecap="round" stroke-linejoin="round" stroke-width="1"/>
            </g>
          </g>
          <g id="Group_416" data-name="Group 416" transform="translate(10.897 6.511)">
            <path id="Path_443" data-name="Path 443" d="M346.449,246.694h5.056v1.1h-5.056Zm0,2.654h5.056v1.1h-5.056Z" transform="translate(-346.449 -246.694)" fill="#1a3d5b"/>
          </g>
        </g>
        <g id="Group_421" data-name="Group 421" transform="translate(60.373 2.671)">
          <g id="Group_419" data-name="Group 419">
            <g id="Group_418" data-name="Group 418">
              <path id="Path_444" data-name="Path 444" d="M200.244,227.188H182.236A4.233,4.233,0,0,0,178,231.421v8.762a4.233,4.233,0,0,0,4.233,4.233h4.707l3.566,8.084,5.028-8.084h4.707a4.233,4.233,0,0,0,4.233-4.233v-8.762A4.233,4.233,0,0,0,200.244,227.188Z" transform="translate(-178.003 -227.188)" fill="#fff" stroke="#1a3d5b" stroke-linecap="round" stroke-linejoin="round" stroke-width="1"/>
            </g>
          </g>
          <g id="Group_420" data-name="Group 420" transform="translate(9.001 3.642)">
            <path id="Path_445" data-name="Path 445" d="M188.547,231.454h2.622v1.1h-1.251v8.072h1.251v1.1h-2.622Z" transform="translate(-188.547 -231.454)" fill="#1a3d5b"/>
            <path id="Path_446" data-name="Path 446" d="M195.6,241.72v-1.1h1.239v-8.072H195.6v-1.1h2.61V241.72Z" transform="translate(-189.579 -231.454)" fill="#1a3d5b"/>
          </g>
        </g>
        <g id="Group_425" data-name="Group 425" transform="translate(113.914 1.776)">
          <g id="Group_423" data-name="Group 423">
            <g id="Group_422" data-name="Group 422">
              <path id="Path_447" data-name="Path 447" d="M262.965,226.139H244.957a4.233,4.233,0,0,0-4.233,4.233v8.762a4.233,4.233,0,0,0,4.233,4.233h4.707l3.566,8.084,5.028-8.084h4.707a4.233,4.233,0,0,0,4.233-4.233v-8.762A4.233,4.233,0,0,0,262.965,226.139Z" transform="translate(-240.724 -226.139)" fill="#fff" stroke="#1a3d5b" stroke-linecap="round" stroke-linejoin="round" stroke-width="1"/>
            </g>
          </g>
          <g id="Group_424" data-name="Group 424" transform="translate(7.993 3.605)">
            <path id="Path_448" data-name="Path 448" d="M251.666,235.495c.439.143.647.439.647,1.118V238.7a.736.736,0,0,0,.812.833h.23v1.1h-.549a1.628,1.628,0,0,1-1.863-1.787v-2.26c0-.362-.187-.527-.493-.527h-.363v-1.118h.363c.306,0,.493-.165.493-.527V232.15a1.628,1.628,0,0,1,1.863-1.788h.549v1.1h-.23a.736.736,0,0,0-.812.833v2.085C252.313,235.056,252.105,235.352,251.666,235.495Z" transform="translate(-250.087 -230.362)" fill="#1a3d5b"/>
            <path id="Path_449" data-name="Path 449" d="M261.173,234.936v1.118H260.8c-.3,0-.483.165-.483.527v2.26a1.636,1.636,0,0,1-1.875,1.787h-.548v-1.1h.23a.739.739,0,0,0,.823-.833v-2.085c0-.679.2-.976.636-1.118-.44-.143-.636-.439-.636-1.118v-2.085a.739.739,0,0,0-.823-.833h-.23v-1.1h.548a1.637,1.637,0,0,1,1.875,1.788v2.259c0,.362.187.527.483.527Z" transform="translate(-251.23 -230.362)" fill="#1a3d5b"/>
          </g>
        </g>
        <g id="Group_429" data-name="Group 429" transform="translate(166.887)">
          <g id="Group_427" data-name="Group 427" transform="translate(0)">
            <g id="Group_426" data-name="Group 426">
              <path id="Path_450" data-name="Path 450" d="M325.021,224.059H307.013a4.233,4.233,0,0,0-4.233,4.233v8.762a4.233,4.233,0,0,0,4.233,4.233h4.707l3.566,8.084,5.028-8.084h4.707a4.233,4.233,0,0,0,4.233-4.233v-8.762A4.233,4.233,0,0,0,325.021,224.059Z" transform="translate(-302.78 -224.059)" fill="#fff" stroke="#1a3d5b" stroke-linecap="round" stroke-linejoin="round" stroke-width="1"/>
            </g>
          </g>
          <g id="Group_428" data-name="Group 428" transform="translate(12.521 5.574)">
            <path id="Path_451" data-name="Path 451" d="M317.448,231.5a.9.9,0,1,1,1.8,0,.9.9,0,1,1-1.8,0Zm1.8,4.178a2.483,2.483,0,0,1-.253.943l-.56,1.546h-.888l.439-1.677a.843.843,0,0,1-.515-.812.888.888,0,1,1,1.776,0Z" transform="translate(-317.448 -230.589)" fill="#1a3d5b"/>
          </g>
        </g>
        <g id="Group_433" data-name="Group 433" transform="translate(114.488 127.864)">
          <g id="Group_431" data-name="Group 431">
            <g id="Group_430" data-name="Group 430">
              <path id="Path_452" data-name="Path 452" d="M245.63,399.159h18.009a4.233,4.233,0,0,0,4.233-4.233v-8.762a4.233,4.233,0,0,0-4.233-4.233h-4.707l-1.374-8.084-7.221,8.084H245.63a4.233,4.233,0,0,0-4.233,4.233v8.762A4.233,4.233,0,0,0,245.63,399.159Z" transform="translate(-241.397 -373.847)" fill="#fff" stroke="#1a3d5b" stroke-linecap="round" stroke-linejoin="round" stroke-width="1"/>
            </g>
          </g>
          <g id="Group_432" data-name="Group 432" transform="translate(5.508 10.916)">
            <path id="Path_453" data-name="Path 453" d="M252.905,391.1l-3.783,1.414,3.783,1.414v1.141l-5.055-1.963v-1.184l5.055-1.963Z" transform="translate(-247.85 -387.122)" fill="#1a3d5b"/>
            <path id="Path_454" data-name="Path 454" d="M257.824,386.635h1.228l-3.619,10.331h-1.228Z" transform="translate(-248.78 -386.635)" fill="#1a3d5b"/>
            <path id="Path_455" data-name="Path 455" d="M265.245,391.926v1.184l-5.056,1.963v-1.141l3.784-1.414-3.784-1.414v-1.14Z" transform="translate(-249.656 -387.122)" fill="#1a3d5b"/>
          </g>
        </g>
        <g id="Group_438" data-name="Group 438" transform="translate(0 64.06)">
          <g id="Group_436" data-name="Group 436">
            <g id="Group_435" data-name="Group 435">
              <g id="Group_434" data-name="Group 434">
                <path id="Path_456" data-name="Path 456" d="M111.511,324.414h18.008a4.233,4.233,0,0,0,4.233-4.233v-8.762a4.233,4.233,0,0,0-4.233-4.232h-4.707l1.025-8.084-9.62,8.084h-4.707a4.233,4.233,0,0,0-4.233,4.232v8.762A4.233,4.233,0,0,0,111.511,324.414Z" transform="translate(-107.278 -299.103)" fill="#fff" stroke="#1a3d5b" stroke-linecap="round" stroke-linejoin="round" stroke-width="1"/>
              </g>
            </g>
          </g>
          <g id="Group_437" data-name="Group 437" transform="translate(9.572 12.857)">
            <path id="Path_457" data-name="Path 457" d="M118.491,321.062a.848.848,0,0,1,.889-.844.835.835,0,0,1,.866.844.844.844,0,0,1-.866.855A.857.857,0,0,1,118.491,321.062Zm.077-6.9h1.623l-.274,5.133h-1.086Z" transform="translate(-118.491 -314.164)" fill="#1a3d5b"/>
            <path id="Path_458" data-name="Path 458" d="M122.138,316.464h5.055v1.1h-5.055Zm0,2.653h5.055v1.1h-5.055Z" transform="translate(-119.025 -314.501)" fill="#1a3d5b"/>
          </g>
        </g>
      </g>
    </g>
    <g id="Mouse" transform="translate(325.397 243.863)">
      <g id="Group_446" data-name="Group 446">
        <g id="Group_445" data-name="Group 445" transform="translate(22.462 7.778)">
          <g id="Group_444" data-name="Group 444">
            <g id="Group_442" data-name="Group 442" transform="translate(0.002)">
              <path id="Path_459" data-name="Path 459" d="M443.086,312.544a61.332,61.332,0,0,1-.831,10.13c-2.475,14.77-10.239,25.548-19.429,25.548a12.116,12.116,0,0,1-2.439-.255c-10.029-2.129-17.812-17.173-17.812-35.423,0-19.7,9.07-26.672,20.251-26.672S443.086,292.841,443.086,312.544Z" transform="translate(-402.576 -285.872)" fill="#fff"/>
              <g id="Group_441" data-name="Group 441" clip-path="url(#clip-path-2)">
                <g id="Group_440" data-name="Group 440" transform="translate(23.101 -6.147)">
                  <path id="Path_460" data-name="Path 460" d="M439.706,311.715c.754,10.565-1.064,21.187-4.108,31.333,7.631-6.261,11.141-16.112,14.313-25.46,2.3-6.788,4.637-13.786,4.222-20.942s-4.25-14.6-10.966-17.108a14.6,14.6,0,0,0-10.349.168c-5.627,2.257-2.546,4.091-.184,8.131A55.175,55.175,0,0,1,439.706,311.715Z" transform="translate(-429.638 -278.671)" fill="#00f2fe"/>
                  <path id="Path_461" data-name="Path 461" d="M439.706,311.715c.754,10.565-1.064,21.187-4.108,31.333,7.631-6.261,11.141-16.112,14.313-25.46,2.3-6.788,4.637-13.786,4.222-20.942s-4.25-14.6-10.966-17.108a14.6,14.6,0,0,0-10.349.168c-5.627,2.257-2.546,4.091-.184,8.131A55.175,55.175,0,0,1,439.706,311.715Z" transform="translate(-429.638 -278.671)" fill="#fff" opacity="0.5"/>
                </g>
              </g>
              <path id="Path_463" data-name="Path 463" d="M443.086,312.544a61.332,61.332,0,0,1-.831,10.13c-2.475,14.77-10.239,25.548-19.429,25.548a12.116,12.116,0,0,1-2.439-.255c-10.029-2.129-17.812-17.173-17.812-35.423,0-19.7,9.07-26.672,20.251-26.672S443.086,292.841,443.086,312.544Z" transform="translate(-402.576 -285.872)" fill="none" stroke="#1a3d5b" stroke-miterlimit="10" stroke-width="1"/>
            </g>
            <g id="Group_443" data-name="Group 443" transform="translate(24.491 26.626)">
              <path id="Path_464" data-name="Path 464" d="M437.908,338.353a34.958,34.958,0,0,1-6.644,12.463" transform="translate(-431.264 -320.179)" fill="#fff" stroke="#1a3d5b" stroke-miterlimit="10" stroke-width="1"/>
              <path id="Path_465" data-name="Path 465" d="M439.742,335.445q-.161.723-.351,1.439" transform="translate(-432.454 -319.754)" fill="none" stroke="#1a3d5b" stroke-miterlimit="10" stroke-width="1"/>
              <path id="Path_466" data-name="Path 466" d="M439.741,317.063a34.933,34.933,0,0,1,.4,13.9" transform="translate(-432.505 -317.063)" fill="#fff" stroke="#1a3d5b" stroke-miterlimit="10" stroke-width="1"/>
            </g>
            <path id="Path_467" data-name="Path 467" d="M402.574,316.425s23.021-9.1,40.507,0" transform="translate(-402.574 -289.752)" fill="none" stroke="#1a3d5b" stroke-miterlimit="10" stroke-width="1"/>
            <path id="Path_468" data-name="Path 468" d="M426.3,285.872s2.306,8.538,2.572,22.42" transform="translate(-406.047 -285.872)" fill="#fff" stroke="#1a3d5b" stroke-miterlimit="10" stroke-width="1"/>
            <path id="Path_469" data-name="Path 469" d="M429.514,297.255c.3,2.654-.164,4.915-1.026,5.052s-1.8-1.9-2.1-4.558.164-4.915,1.026-5.051S429.218,294.6,429.514,297.255Z" transform="translate(-406.047 -286.87)" fill="#bfbfbf" stroke="#1a3d5b" stroke-linecap="round" stroke-linejoin="round" stroke-width="1"/>
          </g>
        </g>
        <path id="Path_470" data-name="Path 470" d="M409.893,353.715H382.9a6.617,6.617,0,0,1-6.564-5.728,4.552,4.552,0,0,1-.077-.913V283.4a4.8,4.8,0,0,1,.077-.922,6.61,6.61,0,0,1,6.564-5.719h76.588a6.542,6.542,0,0,1,3.184.819" transform="translate(-376.26 -276.76)" fill="none" stroke="#1a3d5b" stroke-miterlimit="10" stroke-width="1"/>
      </g>
    </g>
  </g>
</svg>
