<svg xmlns="http://www.w3.org/2000/svg" xmlns:xlink="http://www.w3.org/1999/xlink" width="572.462" height="300" viewBox="0 0 572.462 300">
  <defs>
    <clipPath id="clip-path">
      <rect id="Rectangle_42" data-name="Rectangle 42" width="412.462" height="140" transform="translate(0 0.235)" fill="#fff"/>
    </clipPath>
    <clipPath id="clip-path-2">
      <rect id="Rectangle_41" data-name="Rectangle 41" width="131.01" height="139.685" fill="#fff"/>
    </clipPath>
  </defs>
  <g id="Group_504" data-name="Group 504" transform="translate(-482 -3405)">
    <rect id="Rectangle_355" data-name="Rectangle 355" width="572.462" height="300" transform="translate(482 3405)" fill="rgba(255,255,255,0.06)"/>
    <g id="Logo_negative" data-name="Logo negative" transform="translate(562 3484.765)" clip-path="url(#clip-path)">
      <path id="Path_23" data-name="Path 23" d="M129.443,44.817h20.921V28.185h11.067V70.851H150.364V54.219H129.443V70.851H118.766V28.185h10.677Zm74.2-16.632H186.562c-4.732,0-7.612.895-9.791,3.075s-3,4.927-3,9.791V58c0,4.865.833,7.612,3,9.791s5.051,3.075,9.791,3.075h17.084c4.732,0,7.612-.895,9.791-3.075s3-4.927,3-9.791V41.051c0-4.865-.833-7.612-3-9.791S208.377,28.185,203.646,28.185Zm2.109,30.065c0,2.5-.833,3.2-3.837,3.2H188.289c-3,0-3.837-.7-3.837-3.2V40.785c0-2.5.833-3.2,3.837-3.2h13.628c3.075,0,3.837.638,3.837,3.2Zm37.161-12.99H258.2c4.732,0,7.674.895,9.791,3.075a12.05,12.05,0,0,1,3,8.445V59.34a12.159,12.159,0,0,1-3,8.445c-2.118,2.18-5,3.075-9.791,3.075h-29.17v-9.4h27.38c3,0,3.837-.7,3.837-3.2V56.983c0-2.5-.833-3.2-3.837-3.2H241.126c-4.741,0-7.682-.9-9.791-3.075a12.05,12.05,0,0,1-3-8.445V39.7a12.118,12.118,0,0,1,3-8.445c2.118-2.18,4.989-3.075,9.791-3.075h27.646v9.4H242.916c-3,0-3.837.7-3.837,3.2v1.276C239.079,44.56,239.912,45.26,242.916,45.26Zm34.849-7.674v-9.4h43.5v9.4H304.888V70.851H294.2V37.587Z" transform="translate(91.711 21.709)" fill="#fff" fill-rule="evenodd"/>
      <path id="Path_24" data-name="Path 24" d="M117.359,28H100.276c-4.732,0-7.612.895-9.791,3.075s-3,4.927-3,9.783V70.989H98.167V40.6c0-2.5.833-3.2,3.837-3.2h13.627c3.075,0,3.837.638,3.837,3.2V71h10.686V40.861c0-4.865-.833-7.612-3-9.783C124.979,28.89,122.1,28,117.359,28Z" transform="translate(67.552 21.562)" fill="#3787ff"/>
      <g id="Group_44" data-name="Group 44" transform="translate(0 -0.056)" clip-path="url(#clip-path-2)">
        <path id="Path_25" data-name="Path 25" d="M118.782,30,70.091,1.887A14.164,14.164,0,0,0,48.842,14.151v3.668L45.67,15.985A14.164,14.164,0,0,0,24.421,28.258v3.668l-3.172-1.834A14.164,14.164,0,0,0,0,42.364v88.1a6.662,6.662,0,0,0,10.784,5.228L34.93,116.646l37.234,21.5a6.655,6.655,0,0,0,3.332.886,6.747,6.747,0,0,0,3.332-.886,6.676,6.676,0,0,0,3.332-5.769V79.359a24.489,24.489,0,0,0-12.21-21.151l-12.21-7.053V14.16A5.281,5.281,0,0,1,65.66,9.588l48.691,28.107a15.588,15.588,0,0,1,7.771,13.46v66.014a5.292,5.292,0,0,1-2.641,4.572l-12.9,7.452V65.252A24.489,24.489,0,0,0,94.37,44.1L64.393,26.8V37.048L89.93,51.793A15.577,15.577,0,0,1,97.7,65.252V133.03a6.673,6.673,0,0,0,10,5.768l16.233-9.375a14.207,14.207,0,0,0,7.08-12.272V51.137A24.547,24.547,0,0,0,118.782,30ZM65.492,65.9a15.577,15.577,0,0,1,7.771,13.46v49.179l-30.836-17.8,9.9-7.8a14.074,14.074,0,0,0,5.4-11.121V61.424Zm-16.65-9.614V91.8a5.244,5.244,0,0,1-2.011,4.147L8.879,125.871V42.356A5.281,5.281,0,0,1,16.8,37.783l7.62,4.4v62.957l8.879-7V28.258a5.281,5.281,0,0,1,7.922-4.572l7.62,4.4V46.024l-8.879-5.131V51.155Z" transform="translate(0 0)" fill="#3787ff"/>
      </g>
    </g>
  </g>
</svg>
